<svg id="Layer_1" data-name="Layer 1" xmlns="http://www.w3.org/2000/svg" xmlns:xlink="http://www.w3.org/1999/xlink" viewBox="0 0 54 54"><defs><style>.cls-1{fill:url(#linear-gradient);}</style><linearGradient id="linear-gradient" x1="0.75" y1="27.59" x2="52.84" y2="27.59" gradientUnits="userSpaceOnUse"><stop offset="0" stop-color="#f26736"/><stop offset="1" stop-color="#bd4988"/></linearGradient></defs><path class="cls-1" d="M41,26.74a24.26,24.26,0,0,1,.69,2.52c.22,1.3.69,2.2,2.35,1.75v1.72H28.59V31.2c3.23.16,2.12-2.71,3.27-4.46H25.55c-.78,0-1.57,0-2.35,0a3.4,3.4,0,0,1-3.3-3.43q0-9.15,0-18.28a3.34,3.34,0,0,1,3.47-3.4q12.94-.07,25.9,0A3.38,3.38,0,0,1,52.8,5.1q.08,9.08,0,18.14a3.43,3.43,0,0,1-3.68,3.49C46.45,26.76,43.78,26.74,41,26.74ZM21.59,20.55H51.06c0-5.2,0-10.28,0-15.35,0-1.36-.65-1.85-2.21-1.85q-12.48,0-24.95,0c-1.74,0-2.27.58-2.28,2.37,0,2.49,0,5,0,7.48Zm.13,1.91c-.18,1.82.37,2.51,2.07,2.54s3.69,0,5.53,0H48.7c1.94,0,2.55-.76,2.14-2.55ZM39.18,26.8H33.5L32.35,31h7.89a5.57,5.57,0,0,0-.08-.63ZM11.31,46.1c-.17,2.09-.17,2.09-2.54,2.39-.44,2.27-.44,2.27-2.6,2.61-.43,2.5-.43,2.5-3.16,2.5-2.2,0-2.08,0-2.24-2.26a4.78,4.78,0,0,1,1.76-4.21c2.12-1.92,4.05-4.05,6.11-6a2.67,2.67,0,0,0,.93-2.52,6.78,6.78,0,0,1,5.61-7.4,6.92,6.92,0,0,1,3.17,13.45.7.7,0,0,1-.26.08A16.8,16.8,0,0,0,11.31,46.1Zm-2,.43a2.8,2.8,0,0,0,.12-.5c.17-2,.16-1.94,2.06-2a2.68,2.68,0,0,0,1.6-.54,1.89,1.89,0,0,1,2-.48A5.11,5.11,0,0,0,21,40.44a5.19,5.19,0,0,0-7.06-7,5.08,5.08,0,0,0-2.51,5.9,1.85,1.85,0,0,1-.64,2c-2.4,2.37-4.73,4.81-7.18,7.13a2.91,2.91,0,0,0-.89,3.24H4.16c.34-2.19.34-2.19,2.64-2.69C7,46.9,7,46.9,9.35,46.53Zm26.1-8.44.07,1.57h1.61V38.09Zm-12.2,8.47V45H21.67v1.55Zm6.93,0V45H28.6v1.55Zm7-1.53H35.45l.07,1.59h1.61Zm-26-31.25H9.57v1.58h1.56Zm-5,3.49v1.6H7.66v-1.6Zm12-1.92V13.81H16.48v1.54Zm19,19.25H35.54v1.58h1.58Zm0,6.84-1.54.08v1.59H37.1ZM26.74,45H25.19v1.61h1.55ZM7.66,32.73V31.14H6.1v1.59Zm26,13.82V45H32.11v1.55ZM7.65,24.21H6.1v1.61H7.65Zm0-10.37H6.09v1.53H7.75ZM13,15.35h1.53V13.78H13ZM7.62,34.59H6.09v1.57H7.62ZM6.1,22.29H7.65V20.72H6.1Zm1.52,5.37H6.09v1.57H7.62ZM38.09,10.27c0-.91,0-1.64,0-2.36C38,6.81,37.57,6,36.37,6s-1.71.74-1.78,1.86c0,.18,0,.36-.06.61H33.05c-.36-2.27.86-4,2.9-4.18a3.43,3.43,0,0,1,3.86,3.4c0,.78,0,1.56,0,2.46,1.79,0,1.77,1.14,1.72,2.41-.06,1.66,0,3.33,0,5,0,1-.34,1.46-1.36,1.45-2.58,0-5.17,0-7.75,0-.85,0-1.27-.35-1.27-1.24,0-2.07,0-4.15,0-6.22,0-1,.56-1.24,1.42-1.23C34.36,10.28,36.15,10.27,38.09,10.27ZM33,12.1v5h6.74v-5ZM25.2,8.62v1.57h2.4V8.62Zm1.19-3.07L28,7.4,29,6.26,27.38,4.49Zm.72,8.56,2.07-1.51-1.16-1-1.78,1.58ZM19.88,37.05a2.6,2.6,0,1,1-5.2.13,2.63,2.63,0,0,1,2.47-2.65A2.6,2.6,0,0,1,19.88,37.05Zm-2.64-1.11c-.35.53-.77.89-.71,1.14a1.31,1.31,0,0,0,.82.79c.2,0,.75-.49.73-.73S17.64,36.48,17.24,35.94ZM35.53,13.8v1.57h1.6V13.8Z"/></svg>