<svg width="161" height="26" viewBox="0 0 161 26" fill="none" xmlns="http://www.w3.org/2000/svg">
<g opacity="0.88">
<path opacity="0.88" d="M45.5575 11.6082C46.7365 12.2972 47.3261 13.3372 47.3261 14.7282C47.3261 15.8852 46.9224 16.8342 46.115 17.5752C45.3076 18.3162 44.3143 18.6867 43.1353 18.6867H37.4258V5.03667H42.7316C43.885 5.03667 44.8526 5.40067 45.6344 6.12867C46.429 6.84367 46.8263 7.76017 46.8263 8.87817C46.8263 10.0092 46.4033 10.9192 45.5575 11.6082ZM42.7316 7.55217H40.0787V10.5552H42.7316C43.1417 10.5552 43.4813 10.4122 43.7504 10.1262C44.0324 9.84017 44.1734 9.48267 44.1734 9.05367C44.1734 8.62467 44.0388 8.26717 43.7697 7.98117C43.5005 7.69517 43.1545 7.55217 42.7316 7.55217ZM43.1353 16.1712C43.5838 16.1712 43.9555 16.0217 44.2503 15.7227C44.545 15.4107 44.6924 15.0207 44.6924 14.5527C44.6924 14.0977 44.545 13.7207 44.2503 13.4217C43.9555 13.1097 43.5838 12.9537 43.1353 12.9537H40.0787V16.1712H43.1353ZM54.1211 16.1127H59.2539V18.6867H51.4682V5.03667H54.1211V16.1127ZM73.6608 16.9122C72.3023 18.2772 70.6491 18.9597 68.701 18.9597C66.753 18.9597 65.0998 18.2772 63.7413 16.9122C62.3956 15.5342 61.7228 13.8507 61.7228 11.8617C61.7228 9.87267 62.3956 8.19567 63.7413 6.83067C65.0998 5.45267 66.753 4.76367 68.701 4.76367C70.6491 4.76367 72.3023 5.45267 73.6608 6.83067C75.0193 8.19567 75.6985 9.87267 75.6985 11.8617C75.6985 13.8507 75.0193 15.5342 73.6608 16.9122ZM65.606 15.0792C66.439 15.9112 67.4707 16.3272 68.701 16.3272C69.9314 16.3272 70.963 15.9112 71.7961 15.0792C72.6291 14.2342 73.0456 13.1617 73.0456 11.8617C73.0456 10.5617 72.6291 9.48917 71.7961 8.64417C70.963 7.79917 69.9314 7.37667 68.701 7.37667C67.4707 7.37667 66.439 7.79917 65.606 8.64417C64.773 9.48917 64.3564 10.5617 64.3564 11.8617C64.3564 13.1617 64.773 14.2342 65.606 15.0792ZM86.3481 18.9597C84.3232 18.9597 82.6507 18.2772 81.3307 16.9122C80.0109 15.5472 79.3509 13.8637 79.3509 11.8617C79.3509 9.84667 80.0109 8.16317 81.3307 6.81117C82.6507 5.44617 84.3232 4.76367 86.3481 4.76367C87.5656 4.76367 88.687 5.05617 89.7123 5.64117C90.7504 6.21317 91.5578 6.99317 92.1345 7.98117L89.8468 9.32667C89.5136 8.71567 89.0394 8.24117 88.4243 7.90317C87.8091 7.55217 87.117 7.37667 86.3481 7.37667C85.0409 7.37667 83.9835 7.79267 83.1761 8.62467C82.3816 9.45667 81.9843 10.5357 81.9843 11.8617C81.9843 13.1747 82.3816 14.2472 83.1761 15.0792C83.9835 15.9112 85.0409 16.3272 86.3481 16.3272C87.117 16.3272 87.8091 16.1582 88.4243 15.8202C89.0522 15.4692 89.5264 14.9947 89.8468 14.3967L92.1345 15.7422C91.5578 16.7302 90.7568 17.5167 89.7315 18.1017C88.7062 18.6737 87.5784 18.9597 86.3481 18.9597ZM106.683 18.6867H103.626L98.8204 12.2907V18.6867H96.1675V5.03667H98.8204V11.0622L103.434 5.03667H106.491L101.512 11.6667L106.683 18.6867ZM115.415 5.03667C116.71 5.03667 117.799 5.47867 118.683 6.36267C119.568 7.24667 120.01 8.33217 120.01 9.61917C120.01 10.9062 119.568 11.9917 118.683 12.8757C117.799 13.7597 116.71 14.2017 115.415 14.2017H113.051V18.6867H110.398V5.03667H115.415ZM115.415 11.6862C115.979 11.6862 116.447 11.4912 116.819 11.1012C117.19 10.6982 117.376 10.2042 117.376 9.61917C117.376 9.02117 117.19 8.52717 116.819 8.13717C116.447 7.74717 115.979 7.55217 115.415 7.55217H113.051V11.6862H115.415ZM131.42 18.6867L130.613 16.2297H125.249L124.442 18.6867H121.577L126.287 5.03667H129.575L134.304 18.6867H131.42ZM126.095 13.7142H129.786L127.941 8.13717L126.095 13.7142ZM142.307 18.9597C140.974 18.9597 139.853 18.6607 138.943 18.0627C138.033 17.4517 137.392 16.6262 137.021 15.5862L139.289 14.2407C139.815 15.6317 140.846 16.3272 142.384 16.3272C143.127 16.3272 143.672 16.1907 144.018 15.9177C144.364 15.6447 144.537 15.3002 144.537 14.8842C144.537 14.4032 144.326 14.0327 143.903 13.7727C143.48 13.4997 142.724 13.2072 141.634 12.8952C141.032 12.7132 140.519 12.5312 140.096 12.3492C139.686 12.1672 139.27 11.9267 138.847 11.6277C138.437 11.3157 138.123 10.9257 137.905 10.4577C137.687 9.98967 137.578 9.44367 137.578 8.81967C137.578 7.58467 138.007 6.60317 138.866 5.87517C139.738 5.13417 140.782 4.76367 142 4.76367C143.089 4.76367 144.044 5.03667 144.864 5.58267C145.697 6.11567 146.344 6.86317 146.806 7.82517L144.576 9.13167C144.037 7.96167 143.179 7.37667 142 7.37667C141.449 7.37667 141.013 7.50667 140.692 7.76667C140.385 8.01367 140.231 8.33867 140.231 8.74167C140.231 9.17067 140.404 9.52167 140.75 9.79467C141.109 10.0547 141.788 10.3407 142.788 10.6527C143.198 10.7827 143.505 10.8867 143.711 10.9647C143.928 11.0297 144.217 11.1402 144.576 11.2962C144.947 11.4392 145.229 11.5757 145.421 11.7057C145.627 11.8357 145.857 12.0112 146.114 12.2322C146.37 12.4532 146.562 12.6807 146.69 12.9147C146.831 13.1487 146.947 13.4347 147.036 13.7727C147.139 14.0977 147.19 14.4552 147.19 14.8452C147.19 16.1062 146.735 17.1072 145.825 17.8482C144.928 18.5892 143.755 18.9597 142.307 18.9597ZM155.505 18.9597C154.172 18.9597 153.051 18.6607 152.141 18.0627C151.231 17.4517 150.59 16.6262 150.219 15.5862L152.487 14.2407C153.012 15.6317 154.044 16.3272 155.582 16.3272C156.325 16.3272 156.87 16.1907 157.216 15.9177C157.562 15.6447 157.735 15.3002 157.735 14.8842C157.735 14.4032 157.524 14.0327 157.101 13.7727C156.678 13.4997 155.922 13.2072 154.832 12.8952C154.23 12.7132 153.717 12.5312 153.294 12.3492C152.884 12.1672 152.468 11.9267 152.045 11.6277C151.635 11.3157 151.321 10.9257 151.103 10.4577C150.885 9.98967 150.776 9.44367 150.776 8.81967C150.776 7.58467 151.205 6.60317 152.064 5.87517C152.936 5.13417 153.98 4.76367 155.198 4.76367C156.287 4.76367 157.242 5.03667 158.062 5.58267C158.895 6.11567 159.542 6.86317 160.004 7.82517L157.774 9.13167C157.235 7.96167 156.377 7.37667 155.198 7.37667C154.647 7.37667 154.211 7.50667 153.89 7.76667C153.583 8.01367 153.429 8.33867 153.429 8.74167C153.429 9.17067 153.602 9.52167 153.948 9.79467C154.307 10.0547 154.986 10.3407 155.986 10.6527C156.396 10.7827 156.703 10.8867 156.909 10.9647C157.126 11.0297 157.415 11.1402 157.774 11.2962C158.145 11.4392 158.427 11.5757 158.619 11.7057C158.825 11.8357 159.055 12.0112 159.312 12.2322C159.568 12.4532 159.76 12.6807 159.888 12.9147C160.029 13.1487 160.145 13.4347 160.234 13.7727C160.337 14.0977 160.388 14.4552 160.388 14.8452C160.388 16.1062 159.933 17.1072 159.023 17.8482C158.126 18.5892 156.953 18.9597 155.505 18.9597Z" fill="white"/>
</g>
<g style="mix-blend-mode:luminosity">
<g style="mix-blend-mode:luminosity">
<path d="M7.20896 0H0V7.3125H7.20896V0Z" fill="#5997FF"/>
</g>
<g style="mix-blend-mode:luminosity">
<path d="M7.20896 8.125H0V15.4375H7.20896V8.125Z" fill="#5997FF"/>
</g>
<g style="mix-blend-mode:luminosity">
<path d="M15.2207 8.125H8.01172V15.4375H15.2207V8.125Z" fill="#5997FF"/>
</g>
<g style="mix-blend-mode:luminosity">
<path d="M23.2285 8.125H16.0195V15.4375H23.2285V8.125Z" fill="#5997FF"/>
</g>
<g style="mix-blend-mode:luminosity">
<path d="M31.2402 8.125H24.0312V15.4375H31.2402V8.125Z" fill="#5997FF"/>
</g>
<g style="mix-blend-mode:luminosity">
<path d="M23.2285 16.25H16.0195V23.5625H23.2285V16.25Z" fill="#5997FF"/>
</g>
</g>
</svg>
