<svg width="42" height="42" viewBox="0 0 42 42" fill="none" xmlns="http://www.w3.org/2000/svg">
<path d="M2.5821e-06 21.0104C-0.00205684 16.8566 1.22783 12.7954 3.53409 9.34061C5.84035 5.88581 9.11936 3.19256 12.9564 1.60152C16.7935 0.0104857 21.0162 -0.406861 25.0905 0.402252C29.1648 1.21137 32.9076 3.2106 35.8456 6.14708C38.7835 9.08357 40.7846 12.8254 41.5957 16.8993C42.4068 20.9732 41.9916 25.1961 40.4025 29.0339C38.8133 32.8718 36.1217 36.1522 32.6681 38.4601C29.2144 40.7681 25.1539 42 21 42C18.2427 42.0014 15.5122 41.4595 12.9644 40.4052C10.4167 39.351 8.10156 37.8052 6.15139 35.856C4.20123 33.9068 2.65422 31.5924 1.59874 29.0452C0.543267 26.4979 2.24289e-06 23.7677 2.5821e-06 21.0104Z" fill="url(#paint0_linear)"/>
<path d="M21.114 14.5119L16.5954 19.0409C16.5176 19.1172 16.4129 19.16 16.3039 19.16C16.1949 19.16 16.0902 19.1172 16.0124 19.0409L13.6281 16.6567C13.5888 16.6179 13.5575 16.5718 13.5362 16.5208C13.5149 16.4699 13.5039 16.4152 13.5039 16.36C13.5039 16.3047 13.5149 16.2501 13.5362 16.1991C13.5575 16.1482 13.5888 16.102 13.6281 16.0632L21.114 8.57736C21.1528 8.53801 21.199 8.50677 21.2499 8.48544C21.3009 8.46411 21.3555 8.45312 21.4108 8.45312C21.466 8.45313 21.5207 8.46411 21.5716 8.48544C21.6225 8.50677 21.6687 8.53801 21.7075 8.57736L29.1934 16.0632C29.2697 16.1411 29.3124 16.2458 29.3124 16.3548C29.3124 16.4638 29.2697 16.5684 29.1934 16.6463L26.7779 19.0305C26.7391 19.0699 26.6929 19.1011 26.642 19.1225C26.5911 19.1438 26.5364 19.1548 26.4812 19.1548C26.4259 19.1548 26.3713 19.1438 26.3203 19.1225C26.2694 19.1011 26.2232 19.0699 26.1844 19.0305L21.6763 14.5119C21.5975 14.4458 21.4979 14.4096 21.3951 14.4096C21.2923 14.4096 21.1928 14.4458 21.114 14.5119Z" fill="#FFFDFC"/>
<path d="M31.8845 18.7486L34.2583 21.1328C34.2974 21.1707 34.3284 21.216 34.3496 21.266C34.3708 21.3161 34.3817 21.3699 34.3817 21.4243C34.3817 21.4787 34.3708 21.5325 34.3496 21.5826C34.3284 21.6327 34.2974 21.678 34.2583 21.7158L31.8845 24.1001C31.8457 24.1394 31.7996 24.1707 31.7486 24.192C31.6977 24.2133 31.643 24.2243 31.5878 24.2243C31.5325 24.2243 31.4779 24.2133 31.4269 24.192C31.376 24.1707 31.3298 24.1394 31.291 24.1001L28.8651 21.7158C28.7888 21.638 28.7461 21.5333 28.7461 21.4243C28.7461 21.3153 28.7888 21.2107 28.8651 21.1328L31.2494 18.7486C31.2885 18.7025 31.3371 18.6655 31.392 18.6401C31.4468 18.6147 31.5065 18.6016 31.567 18.6016C31.6274 18.6016 31.6871 18.6147 31.7419 18.6401C31.7968 18.6655 31.8454 18.7025 31.8845 18.7486Z" fill="#FFFDFC"/>
<path d="M21.114 34.2753L13.6281 26.7686C13.5888 26.7299 13.5575 26.6837 13.5362 26.6327C13.5149 26.5818 13.5039 26.5271 13.5039 26.4719C13.5039 26.4167 13.5149 26.362 13.5362 26.3111C13.5575 26.2601 13.5888 26.2139 13.6281 26.1752L16.0124 23.7909C16.0902 23.7146 16.1949 23.6719 16.3039 23.6719C16.4129 23.6719 16.5176 23.7146 16.5954 23.7909L21.114 28.3199C21.1948 28.3946 21.3007 28.436 21.4107 28.436C21.5207 28.436 21.6267 28.3946 21.7075 28.3199L26.2156 23.8013C26.2544 23.762 26.3006 23.7307 26.3515 23.7094C26.4025 23.6881 26.4571 23.6771 26.5124 23.6771C26.5676 23.6771 26.6223 23.6881 26.6732 23.7094C26.7241 23.7307 26.7703 23.762 26.8091 23.8013L29.1933 26.1752C29.2327 26.2139 29.2639 26.2601 29.2853 26.3111C29.3066 26.362 29.3176 26.4167 29.3176 26.4719C29.3176 26.5271 29.3066 26.5818 29.2853 26.6327C29.2639 26.6837 29.2327 26.7299 29.1933 26.7686L21.7075 34.2545C21.6701 34.2952 21.625 34.3281 21.5748 34.3513C21.5246 34.3744 21.4703 34.3873 21.4151 34.3893C21.3599 34.3912 21.3048 34.3821 21.2531 34.3626C21.2014 34.343 21.1541 34.3133 21.114 34.2753Z" fill="#FFFDFC"/>
<path d="M11.5381 18.7512L13.912 21.1354C13.951 21.1733 13.982 21.2186 14.0032 21.2687C14.0244 21.3187 14.0354 21.3726 14.0354 21.4269C14.0354 21.4813 14.0244 21.5351 14.0032 21.5852C13.982 21.6353 13.951 21.6806 13.912 21.7185L11.5381 24.1027C11.4994 24.142 11.4532 24.1733 11.4023 24.1946C11.3513 24.2159 11.2967 24.2269 11.2414 24.2269C11.1862 24.2269 11.1315 24.2159 11.0806 24.1946C11.0296 24.1733 10.9835 24.142 10.9447 24.1027L8.56046 21.7185C8.48415 21.6406 8.44141 21.5359 8.44141 21.4269C8.44141 21.3179 8.48415 21.2133 8.56046 21.1354L10.9447 18.7512C10.9835 18.7119 11.0296 18.6806 11.0806 18.6593C11.1315 18.6379 11.1862 18.627 11.2414 18.627C11.2967 18.627 11.3513 18.6379 11.4023 18.6593C11.4532 18.6806 11.4994 18.7119 11.5381 18.7512Z" fill="#FFFDFC"/>
<path d="M18.6894 21.1321L21.1152 18.7063C21.154 18.6669 21.2002 18.6357 21.2511 18.6143C21.3021 18.593 21.3568 18.582 21.412 18.582C21.4672 18.582 21.5219 18.593 21.5728 18.6143C21.6238 18.6357 21.67 18.6669 21.7087 18.7063L24.1346 21.1321C24.2109 21.21 24.2536 21.3146 24.2536 21.4237C24.2536 21.5327 24.2109 21.6373 24.1346 21.7152L21.7087 24.1411C21.67 24.1804 21.6238 24.2117 21.5728 24.233C21.5219 24.2543 21.4672 24.2653 21.412 24.2653C21.3568 24.2653 21.3021 24.2543 21.2511 24.233C21.2002 24.2117 21.154 24.1804 21.1152 24.1411L18.6894 21.7152C18.6131 21.6373 18.5703 21.5327 18.5703 21.4237C18.5703 21.3146 18.6131 21.21 18.6894 21.1321Z" fill="#FFFDFC"/>
<defs>
<linearGradient id="paint0_linear" x1="1.94696" y1="-102.657" x2="25.4978" y2="50.2459" gradientUnits="userSpaceOnUse">
<stop stop-color="#FF9254"/>
<stop offset="0.68" stop-color="#FFDD86"/>
<stop offset="1" stop-color="#E97912"/>
</linearGradient>
</defs>
</svg>
