<svg id="Layer_1" data-name="Layer 1" xmlns="http://www.w3.org/2000/svg" xmlns:xlink="http://www.w3.org/1999/xlink" viewBox="0 0 64 64"><defs><style>.cls-1{fill:url(#linear-gradient);}</style><linearGradient id="linear-gradient" x1="3.8" y1="32" x2="60.2" y2="32" gradientUnits="userSpaceOnUse"><stop offset="0" stop-color="#f26736"/><stop offset="1" stop-color="#bd4988"/></linearGradient></defs><path class="cls-1" d="M3.8,32c0-8.46,0-16.92,0-25.38a7.47,7.47,0,0,1,.41-2.8A3.81,3.81,0,0,1,7.9,1.44q16.63,0,33.26,0A5.27,5.27,0,0,1,44.75,3c2.48,2.3,4.94,4.61,7.41,6.91.85.79,1.74,1.55,2.54,2.38a4.79,4.79,0,0,1,1.51,3.46c0,3.34,0,6.69,0,10,0,1.17-.44,1.66-1.45,1.69s-1.69-.5-1.7-1.68c0-2.77,0-5.53,0-8.29,0-1.33,0-1.32-1.36-1.32-2.37,0-4.73-.07-7.09,0a3.67,3.67,0,0,1-3.9-3.79c0-2.18-.05-4.37,0-6.55,0-.91-.34-1.16-1.21-1.16-8.93,0-17.87,0-26.8,0l-4,0c-1.49,0-1.58.09-1.58,1.56q0,20.84,0,41.66v9.51c0,1.72.07,1.81,1.77,1.81H33.89c.38,0,.76,0,1.13,0a1.54,1.54,0,0,1,1.55,1.57,1.64,1.64,0,0,1-1.67,1.58q-4.37,0-8.73,0H8.41c-3,0-4.6-1.58-4.61-4.61Q3.79,44.91,3.8,32ZM50.7,13,43.93,6.66l-.28.18c0,1.89,0,3.78,0,5.66,0,.24.67.62,1,.64,1.67.06,3.34,0,5,0A7.92,7.92,0,0,0,50.7,13ZM20.2,27.52c-1.47,0-2.95.05-4.42,0a3,3,0,0,1-3.16-3.24c0-2.86,0-5.73,0-8.59a3.12,3.12,0,0,1,3.28-3.3c2.87,0,5.74-.05,8.62,0a3.35,3.35,0,0,1,3.38,3.3q.09,4.29,0,8.6a3.15,3.15,0,0,1-3.26,3.23c-1.47.06-2.94,0-4.41,0Zm-.15-3.17c1.13,0,2.26,0,3.38,0,.83,0,1.16-.21,1.15-1.09,0-2.21,0-4.43,0-6.65,0-.68-.2-1-.93-1-2.33,0-4.65,0-7,0-.65,0-.91.2-.91.89q0,3.47,0,7c0,.69.26.89.91.87C17.79,24.33,18.92,24.35,20.05,24.35Zm3.38,9.86H14.31c-1.19,0-1.68.45-1.67,1.44s.54,1.5,1.78,1.51q9.12,0,18.24,0A1.89,1.89,0,0,0,34,36.58a1.78,1.78,0,0,0,.28-1.39,1.39,1.39,0,0,0-1.51-1H23.43Zm0,7c-3.08,0-6.16,0-9.24,0-1.2,0-1.81.76-1.52,1.85s1.16,1.14,2.05,1.14c5.88,0,11.77,0,17.65,0a1.79,1.79,0,0,0,1.16-.25c.39-.39.87-1,.8-1.45s-.69-.92-1.17-1.21c-.31-.19-.8-.08-1.21-.09H23.42ZM21.74,52c2.5,0,5,0,7.48,0a1.6,1.6,0,0,0,1.71-1.54A1.63,1.63,0,0,0,29.18,49c-1.64,0-3.28,0-4.92,0-3.35,0-6.7,0-10,0-1.32,0-2.08,1.09-1.42,2.11a2.4,2.4,0,0,0,1.67.88c2.43.09,4.86,0,7.28,0Zm34.4,5.9a6.34,6.34,0,0,0,4.06-6.18,6.6,6.6,0,0,0-4.64-5.8c-.46-.16-1.69-.71-1.78-1.39a18.86,18.86,0,0,1,0-3.28c0-.45,0-.91.05-1.39v-.2H54l.89,0c.6,0,1.11,0,1.63,0,1.4.07,2.35-.15,2.44-1.52a1.63,1.63,0,0,0-.39-1.29,2.42,2.42,0,0,0-1.8-.51,3.15,3.15,0,0,1-2.49-.6,2.58,2.58,0,0,1-.44-2.15,1.53,1.53,0,0,0-.36-1.24,1.66,1.66,0,0,0-1.24-.5h-.08a1.61,1.61,0,0,0-1.19.51,1.69,1.69,0,0,0-.34,1.36c.23,2-1,2.46-2.33,2.77a6,6,0,0,0-4.67,5.67,6.18,6.18,0,0,0,4,6.18,14.62,14.62,0,0,0,1.53.48c.28.07.57.15.89.25l.15,0,0,.71,0,1.2c-.06,3.37-.16,3.47-3.51,3.65-1.4.07-2,.57-2.07,1.62s.57,1.59,1.95,1.68c2.93.19,3,.27,3.46,2.93l0,.21c.1.56.82,1.36,1.15,1.37s1-.34,1.8-1.07c.21-.2.17-.87.15-1.23a1.69,1.69,0,0,1,1.88-2A3.7,3.7,0,0,0,56.14,57.92ZM50.22,43.79l0,1.58H50a3.28,3.28,0,0,1-2.35-.82A2.31,2.31,0,0,1,47,42.89,4.86,4.86,0,0,1,48.49,40a1.06,1.06,0,0,1,1.18-.36,1.3,1.3,0,0,1,.62,1.31C50.27,41.85,50.25,42.79,50.22,43.79ZM53.55,55l.14-5.81h.21a2.7,2.7,0,0,1,2.89,2.62c.14,1.14-.27,2.62-3,3.13Z"/></svg>