<svg id="Layer_1" data-name="Layer 1" xmlns="http://www.w3.org/2000/svg" xmlns:xlink="http://www.w3.org/1999/xlink" viewBox="0 0 54 54"><defs><style>.cls-1{fill:url(#linear-gradient);}</style><linearGradient id="linear-gradient" x1="7.73" y1="26.95" x2="49.78" y2="26.95" gradientUnits="userSpaceOnUse"><stop offset="0" stop-color="#f26736"/><stop offset="1" stop-color="#bd4988"/></linearGradient></defs><path class="cls-1" d="M29.22,12.23A15.85,15.85,0,1,0,45,28,15.78,15.78,0,0,0,29.22,12.23Zm-.11,29.44A13.6,13.6,0,1,1,42.77,28.1,13.54,13.54,0,0,1,29.11,41.67Zm17.54,3.86c-.66-.85-1.36-.34-2,.15a26,26,0,0,1-7.11,3.7,26,26,0,0,1-21.23-1.73c-.63-.32-.83-.6-.33-1.23a20.75,20.75,0,0,0,1.42-2.17c.83-1.38.28-2.48-1.34-2.64-1.16-.12-2.33-.15-3.5-.22v0c-1.08,0-2.16-.16-3.24-.15a1.45,1.45,0,0,0-1.43,2.06c1,2.2,2.08,4.38,3.21,6.52a1.37,1.37,0,0,0,2.3.33c.77-1.2,1.43-.72,2.32-.28C26.22,55,36.29,54.06,45.92,47.53,46.62,47.05,47.36,46.46,46.65,45.53ZM12.46,47.65c-.71-1.46-1.33-2.71-2-4.08a28.8,28.8,0,0,1,4.53.29Zm.26-39.34.53-.38c8.93-5.87,18.19-6.6,27.82-1.8.73.37,1,.68.4,1.41A16.27,16.27,0,0,0,40,9.85a1.51,1.51,0,0,0,1.21,2.38q3.38.3,6.75.45a1.54,1.54,0,0,0,1.59-2.33c-.94-2-2-4.06-3-6C46,3.12,44.66,2.91,44,4c-.61.89-1.07.63-1.77.26A29.63,29.63,0,0,0,27.91.76,28.85,28.85,0,0,0,11.38,6.51c-.68.49-1.06,1.12-.47,1.86S12.13,8.8,12.72,8.31Zm30.2,1.1L45,6.7c.83,0,1.11,1.81,1.65,2.81.44.82.38.85-.5.79s-1.89-.12-2.84-.14C42.69,10.15,42.55,10,42.92,9.41Zm-12,14Zm0,0Zm.73,1.34h0Zm-.73-1.34h0l-.06,0,.06,0Zm.69,6.92a1.62,1.62,0,0,1,.19,1.36c-.15.68-.54,1.41-1.17,1.36s-.2-.91-.36-1.38a1.7,1.7,0,0,1,0-.39,3.42,3.42,0,0,1,0-.64c.07-.39-.28-1,.25-1.12S31.31,29.93,31.59,30.31ZM31,26.61c-.19,0-.36,0-.45-.21a13.69,13.69,0,0,1-.09-2.64c0-.27.07-.51.44-.37h0a2,2,0,0,0,.74,1.34,1.27,1.27,0,0,0,1.28,0c1.07-1.52.4-3.4-1.59-4.4-.52-.26-1.12-.35-1.18-1.16,0-.55-.55-.71-1.08-.7a.84.84,0,0,0-.93.72c-.07.61-.45.83-.94,1.09a4.06,4.06,0,0,0-.53,7A2.71,2.71,0,0,1,28,30.16c-.06.47,0,.95,0,1.43s.28,1.26-.22,1.39-1-.57-1.27-1.09a1.92,1.92,0,0,1-.14-.36c-.26-.8-.76-1.31-1.65-1s-1,1.07-.79,1.91A4.7,4.7,0,0,0,27,35.54c.61.23,1.07.42,1.09,1.19a.79.79,0,0,0,.77.75c.45.05,1.1,0,1.14-.38.15-1.48,1.41-1.5,2.33-2a3.06,3.06,0,0,0,1.27-1.25A4.8,4.8,0,0,0,31,26.61Zm-2.93-2c0,.21,0,.47-.31.41a.41.41,0,0,1-.3-.49,1.14,1.14,0,0,1,0-1c0-.33.09-.56.61-.76C28.07,23.36,28.08,24,28.07,24.57Z"/></svg>