<svg id="Layer_1" data-name="Layer 1" xmlns="http://www.w3.org/2000/svg" xmlns:xlink="http://www.w3.org/1999/xlink" viewBox="0 0 54 54"><defs><style>.cls-1{fill:url(#linear-gradient);}</style><linearGradient id="linear-gradient" x1="2.81" y1="27" x2="50.96" y2="27" gradientUnits="userSpaceOnUse"><stop offset="0" stop-color="#f26736"/><stop offset="1" stop-color="#bd4988"/></linearGradient></defs><path class="cls-1" d="M33,31.62c-.7-.36-1.42-.69-2.13-1a1,1,0,0,1-.59-.93A1.91,1.91,0,0,1,31,28.17c.41-.49.3-1.26.76-1.65a2.63,2.63,0,0,0,.81-2.61,6.35,6.35,0,0,1,0-1.74c.32-2.77-.55-4.2-3.14-5.11a1,1,0,0,1-.65-.68,1.1,1.1,0,0,0-1.06-.82,7.29,7.29,0,0,0-4.2,1C21.38,18,21,20,21.28,22.23a4,4,0,0,1,0,1.42,2.5,2.5,0,0,0,.75,2.83.84.84,0,0,1,.24.52,3.91,3.91,0,0,0,.86,1.62,1.28,1.28,0,0,1-.42,2c-.65.34-1.32.63-2,1a5.06,5.06,0,0,0-3,3.93c-.19,1.31.2,1.77,1.53,1.77h15.3c1.13,0,1.54-.47,1.41-1.58A5,5,0,0,0,33,31.62Zm.19,3.23c-.09.35-.43.18-.65.18H21.17c-.2,0-.49.14-.6-.13s.13-.46.31-.63a7.9,7.9,0,0,1,2-1.12,14.69,14.69,0,0,0,1.42-.74A3.77,3.77,0,0,0,25.66,28a1.81,1.81,0,0,0-.52-.64c-.47-.43-.61-1.1-1-1.53-.87-1.06-.24-2.26-.58-3.34a4.57,4.57,0,0,1-.15-1.33,3,3,0,0,1,3-3.17c.34,0,.43.16.56.39a1.21,1.21,0,0,0,1,.6c1.64.15,2.23.79,2.22,2.44a12.85,12.85,0,0,1-.2,1.5c0,.14-.14.31-.09.41.43.94-.11,1.67-.44,2.49a3.87,3.87,0,0,1-1,1.55,1.66,1.66,0,0,0-.6,1.33c-.05,2.64.39,3.34,2.86,4.44a7.76,7.76,0,0,1,2,1.1C33,34.39,33.3,34.57,33.23,34.85ZM46,17.42a3.2,3.2,0,0,0,3.83-.51,3.39,3.39,0,0,0,.87-3.78A3.43,3.43,0,0,0,47.49,11a3.37,3.37,0,0,0-3.37,3.48,1,1,0,0,1-.6,1.05c-2.5,1.46-5,3-7.47,4.45a4.92,4.92,0,0,0-.43.26,1.18,1.18,0,0,0-.54,1.64,1.14,1.14,0,0,0,1.69.34q3.93-2.33,7.82-4.69A1.21,1.21,0,0,1,46,17.42Zm1.53-4.17a1.12,1.12,0,0,1,1.12,1.14,1.16,1.16,0,0,1-1.12,1.15,1.14,1.14,0,0,1-1.15-1.11A1.1,1.1,0,0,1,47.55,13.25ZM18.57,22a1,1,0,0,0,0-1.46,2.52,2.52,0,0,0-.74-.54c-2.51-1.51-5-3-7.54-4.49a1.08,1.08,0,0,1-.63-1.12A3.38,3.38,0,0,0,6.24,11a3.44,3.44,0,0,0-3.17,2.13A3.39,3.39,0,0,0,4,16.94a3.24,3.24,0,0,0,3.83.47,1,1,0,0,1,1.28,0c1,.62,2,1.2,3,1.79l5,3A1.09,1.09,0,0,0,18.57,22ZM6.29,15.54a1.16,1.16,0,0,1-1.18-1.17,1.12,1.12,0,0,1,1.14-1.12,1.09,1.09,0,0,1,1.12,1.11A1.13,1.13,0,0,1,6.29,15.54Zm7.16,18.33c-1.45.88-2.89,1.75-4.32,2.65a1.11,1.11,0,0,1-1.35.07,3.21,3.21,0,0,0-3.84.49,3.42,3.42,0,1,0,5.72,2.49,1,1,0,0,1,.58-1.07c1.49-.86,2.95-1.77,4.41-2.67.79-.5,1-1.13.58-1.76S14.21,33.41,13.45,33.87ZM6.23,40.75a1.11,1.11,0,0,1-1.12-1.13,1.14,1.14,0,1,1,2.27,0A1.1,1.1,0,0,1,6.23,40.75ZM49.79,37a3.26,3.26,0,0,0-3.85-.43,1,1,0,0,1-1.2,0c-1.45-.92-2.92-1.81-4.39-2.7-.8-.48-1.47-.38-1.84.25s-.16,1.21.61,1.68c1.43.89,2.87,1.78,4.33,2.64a1.14,1.14,0,0,1,.67,1.18A3.37,3.37,0,0,0,47.56,43a3.42,3.42,0,0,0,2.23-6Zm-2.24,3.71a1.1,1.1,0,0,1-1.15-1.18,1.14,1.14,0,0,1,2.27,0A1.11,1.11,0,0,1,47.55,40.75ZM28.55,47A1,1,0,0,1,28,46c0-1.71,0-3.43,0-5.15a1.08,1.08,0,0,0-1.12-1.2c-.68,0-1.1.43-1.12,1.21s0,1.74,0,2.62h0c0,.81,0,1.63,0,2.44A1,1,0,0,1,25.15,47a3.31,3.31,0,0,0-1.65,3.5,3.44,3.44,0,0,0,6.68.4A3.32,3.32,0,0,0,28.55,47Zm-1.64,4.11a1.12,1.12,0,0,1-1.14-1.19,1.12,1.12,0,0,1,2.24,0A1.11,1.11,0,0,1,26.91,51.08ZM24.68,6.6a2.29,2.29,0,0,1,1.09,2.5,6.43,6.43,0,0,0,0,.76v1.86c0,1,.39,1.54,1.15,1.53s1.1-.51,1.1-1.49c0-1.15,0-2.31,0-3.46a1.32,1.32,0,0,1,.75-1.4A3.24,3.24,0,0,0,30.2,3.18a3.42,3.42,0,0,0-6.5-.36A3.06,3.06,0,0,0,24.68,6.6Zm2.19-3.68A1.1,1.1,0,0,1,28,4a1.12,1.12,0,1,1-2.24,0A1.09,1.09,0,0,1,26.87,2.92Z"/></svg>