<svg width="539" height="348" viewBox="0 0 539 348" fill="none" xmlns="http://www.w3.org/2000/svg">
<g style="mix-blend-mode:screen" opacity="0.32">
<path d="M517.437 101.173C517.437 101.173 514.825 101.111 514.023 101.409C513.221 101.707 511.282 103.455 511.282 103.455C511.282 103.455 511.338 100.841 511.041 100.037C510.743 99.2331 509 97.2824 509 97.2824C509 97.2824 511.612 97.3442 512.414 97.0463C513.216 96.7483 515.155 95 515.155 95C515.155 95 515.099 97.6141 515.396 98.418C515.694 99.2219 517.437 101.173 517.437 101.173Z" fill="white"/>
</g>
<g style="mix-blend-mode:screen" opacity="0.32">
<path d="M326.437 72.1726C326.437 72.1726 323.825 72.1107 323.023 72.4087C322.221 72.7066 320.282 74.455 320.282 74.455C320.282 74.455 320.338 71.8409 320.041 71.037C319.743 70.2331 318 68.2824 318 68.2824C318 68.2824 320.612 68.3442 321.414 68.0463C322.216 67.7483 324.155 66 324.155 66C324.155 66 324.099 68.6141 324.396 69.418C324.694 70.2219 326.437 72.1726 326.437 72.1726Z" fill="white"/>
</g>
<g style="mix-blend-mode:screen" opacity="0.32">
<path d="M8.4371 6.17258C8.4371 6.17258 5.82469 6.11074 5.02303 6.40869C4.22136 6.70664 2.28166 8.45497 2.28166 8.45497C2.28166 8.45497 2.33773 5.8409 2.04061 5.037C1.74349 4.23311 0 2.28239 0 2.28239C0 2.28239 2.61241 2.34423 3.41408 2.04628C4.21574 1.74834 6.15544 0 6.15544 0C6.15544 0 6.09938 2.61407 6.3965 3.41797C6.69362 4.22186 8.4371 6.17258 8.4371 6.17258Z" fill="white"/>
</g>
<g style="mix-blend-mode:screen" opacity="0.32">
<path d="M437 335.92C437 335.92 435.761 335.891 435.381 336.032C435.001 336.173 434.082 337 434.082 337C434.082 337 434.108 335.763 433.967 335.383C433.827 335.003 433 334.08 433 334.08C433 334.08 434.239 334.109 434.619 333.968C434.999 333.827 435.918 333 435.918 333C435.918 333 435.892 334.237 436.033 334.617C436.173 334.997 437 335.92 437 335.92Z" fill="white"/>
</g>
<circle cx="366.5" cy="12.5" r="12.5" fill="white" fill-opacity="0.15"/>
<circle r="4" transform="matrix(1 0 0 -1 535 151)" fill="white" fill-opacity="0.15"/>
<circle r="9.5" transform="matrix(1 0 0 -1 170.5 338.5)" fill="white" fill-opacity="0.15"/>
</svg>
