<svg width="276" height="236" viewBox="0 0 276 236" fill="none" xmlns="http://www.w3.org/2000/svg">
<line y1="-0.5" x2="251.157" y2="-0.5" transform="matrix(0.869623 -0.493716 0.488316 0.872667 23.832 125)" stroke="white" stroke-opacity="0.31"/>
<line y1="-0.5" x2="314.697" y2="-0.5" transform="matrix(0.873857 -0.486182 0.480813 0.876823 1 209)" stroke="white" stroke-opacity="0.31"/>
<line y1="-0.5" x2="216.998" y2="-0.5" transform="matrix(0.864688 -0.502309 0.496876 0.867822 88.3633 236)" stroke="white" stroke-opacity="0.31"/>
<path d="M87.8649 37C87.8649 41.1456 84.5295 44.5 80.4227 44.5C76.3159 44.5 72.9805 41.1456 72.9805 37C72.9805 32.8544 76.3159 29.5 80.4227 29.5C84.5295 29.5 87.8649 32.8544 87.8649 37Z" stroke="white" stroke-opacity="0.56"/>
<ellipse opacity="0.13" cx="196.579" cy="218" rx="7.94224" ry="8" fill="white"/>
<ellipse opacity="0.13" cx="33.7622" cy="33" rx="13.8989" ry="14" fill="white"/>
<path d="M257.63 162.5C257.63 164.713 255.851 166.5 253.663 166.5C251.475 166.5 249.695 164.713 249.695 162.5C249.695 160.287 251.475 158.5 253.663 158.5C255.851 158.5 257.63 160.287 257.63 162.5Z" stroke="white" stroke-opacity="0.56"/>
<path d="M14.3987 156.5C14.3987 158.16 13.0634 159.5 11.4239 159.5C9.78446 159.5 8.44922 158.16 8.44922 156.5C8.44922 154.84 9.78446 153.5 11.4239 153.5C13.0634 153.5 14.3987 154.84 14.3987 156.5Z" stroke="white" stroke-opacity="0.56"/>
<path d="M98 82L162.086 119V193L98 230L33.9141 193V119L98 82Z" fill="#FDB999"/>
<path d="M106.27 151.014L105.711 151.326C105.798 151.331 105.88 151.331 105.966 151.331C106.241 151.331 106.515 151.321 106.785 151.301L106.27 151.014Z" fill="white"/>
<path d="M122.068 145.126V145.174C122.068 151.945 117.498 157.643 111.323 159.29C110.437 159.519 109.512 159.675 108.568 159.729L108 159.412L107.378 159.758C106.391 159.743 105.423 159.617 104.479 159.397C101.623 158.734 99.0266 157.194 97.0566 155.035C96.5268 154.455 96.0404 153.826 95.6117 153.163C95.053 152.305 94.581 151.379 94.2101 150.399C94.1716 150.302 94.1523 150.209 94.1523 150.112C94.1523 149.785 94.3498 149.483 94.6677 149.356C95.0819 149.196 95.5443 149.405 95.7032 149.819C96.0596 150.755 96.5124 151.628 97.0566 152.437C99.2433 155.693 102.841 157.833 106.781 158.111C107.075 158.135 107.369 158.145 107.662 158.145C108.867 158.145 110.042 157.974 111.145 157.652C116.52 156.112 120.464 151.111 120.464 145.189V145.126C120.464 144.677 120.826 144.316 121.264 144.316C121.707 144.316 122.068 144.677 122.068 145.126Z" fill="white"/>
<path d="M74.4178 145.482C74.018 145.482 73.6953 145.156 73.6953 144.751V142.801C73.6953 142.397 74.018 142.07 74.4178 142.07C74.8175 142.07 75.1402 142.397 75.1402 142.801V144.751C75.1402 145.156 74.8175 145.482 74.4178 145.482Z" fill="white"/>
<path d="M89.3475 166.44C88.9477 166.44 88.625 166.114 88.625 165.709V163.272C88.625 162.868 88.9477 162.541 89.3475 162.541C89.7472 162.541 90.0699 162.868 90.0699 163.272V165.709C90.0699 166.114 89.7472 166.44 89.3475 166.44Z" fill="white"/>
<path d="M107.662 122.514C98.9536 122.514 91.3918 127.563 87.6832 134.928C87.3894 135.513 87.1197 136.113 86.8788 136.727C85.8337 139.34 85.2557 142.196 85.2557 145.189C85.2557 146.363 85.3472 147.519 85.5206 148.649C84.6007 148.649 83.753 148.976 83.0883 149.522V135.976H71.5578C69.4193 135.976 67.6758 137.741 67.6758 139.905V176.433H97.0559V165.149C97.1667 165.217 97.2823 165.275 97.3931 165.334C100.268 166.84 103.5 167.742 106.93 167.854V174.727H101.391C100.991 174.727 100.668 175.053 100.668 175.458C100.668 175.862 100.991 176.189 101.391 176.189H113.432C113.832 176.189 114.154 175.862 114.154 175.458C114.154 175.053 113.832 174.727 113.432 174.727H108.856V167.83C109.863 167.776 110.85 167.654 111.813 167.469C113.456 167.162 115.036 166.665 116.529 166.007C124.485 162.526 130.068 154.503 130.068 145.189C130.068 132.681 120.016 122.514 107.662 122.514ZM81.6434 174.97H75.6229V149.137C75.6229 148.732 75.3002 148.406 74.9004 148.406C74.5006 148.406 74.1779 148.732 74.1779 149.137V174.97H69.1207V139.905C69.1207 138.545 70.214 137.439 71.5578 137.439H81.6434V174.97ZM95.611 174.97H90.0721V169.121C90.0721 168.717 89.7494 168.39 89.3497 168.39C88.9499 168.39 88.6272 168.717 88.6272 169.121V174.97H83.0883V152.578C83.0883 151.218 84.1817 150.112 85.5254 150.112H85.7903C87.0908 156.048 90.6983 161.113 95.611 164.291V174.97ZM116.818 164.081C116.254 164.369 115.686 164.622 115.098 164.851C112.786 165.748 110.282 166.241 107.662 166.241C104.618 166.241 101.718 165.573 99.1125 164.379C98.4816 164.086 97.8651 163.769 97.2727 163.418C97.2004 163.374 97.1282 163.331 97.0559 163.287C96.5598 162.989 96.0782 162.673 95.611 162.331C91.5893 159.431 88.6224 155.118 87.4279 150.112C87.3171 149.629 87.216 149.142 87.1389 148.649C86.9511 147.523 86.8548 146.368 86.8548 145.189C86.8548 142.186 87.4809 139.33 88.6079 136.746C88.8391 136.196 89.104 135.664 89.3834 135.143C92.909 128.592 99.782 124.132 107.662 124.132C119.13 124.132 128.469 133.578 128.469 145.189C128.469 153.475 123.71 160.655 116.818 164.081Z" fill="white"/>
<path d="M120.645 140.992C120.235 141.152 119.768 140.943 119.609 140.528C117.721 135.566 112.915 132.228 107.66 132.228C102.882 132.228 98.6965 134.894 96.505 138.842C96.216 139.344 95.9704 139.87 95.7633 140.407C95.1757 141.888 94.8578 143.502 94.8578 145.188C94.8578 145.632 94.5014 146.012 94.0582 146.012C93.6151 146.012 93.2539 145.661 93.2539 145.217V145.188C93.2539 143.214 93.644 141.338 94.352 139.622C94.5688 139.081 94.8192 138.559 95.1034 138.057C97.5646 133.617 102.27 130.609 107.66 130.609C113.574 130.609 118.974 134.363 121.102 139.944C121.261 140.358 121.054 140.831 120.645 140.992Z" fill="white"/>
<path d="M106.27 151.012L105.711 151.324C105.798 151.329 105.88 151.329 105.966 151.329C106.241 151.329 106.515 151.319 106.785 151.299L106.27 151.012Z" fill="white"/>
<path d="M112.527 146.82C112.359 146.435 112.099 146.109 111.752 145.836C111.497 145.646 111.246 145.49 111.001 145.373C110.75 145.251 110.119 145.041 109.113 144.749L108.39 144.529L107.383 144.247C106.709 144.052 106.228 143.832 105.943 143.584C105.659 143.34 105.515 143.018 105.515 142.624C105.515 142.112 105.736 141.678 106.175 141.327C106.613 140.976 107.249 140.801 108.077 140.801C108.775 140.801 109.334 140.922 109.748 141.161C110.167 141.405 110.379 141.736 110.379 142.16V142.204H112.474V142.16C112.474 141.376 112.147 140.659 111.492 140.011C110.933 139.465 110.057 139.148 108.857 139.065V137.194C108.857 136.926 108.751 136.682 108.573 136.506C108.4 136.326 108.159 136.219 107.894 136.219C107.364 136.219 106.931 136.657 106.931 137.194V139.143C105.972 139.29 105.211 139.64 104.643 140.177C103.848 140.932 103.453 141.81 103.453 142.809C103.453 144.227 104.272 145.246 105.914 145.86L107.35 146.313L108.053 146.538L109.108 146.869C110.148 147.191 110.668 147.746 110.668 148.521C110.668 149.097 110.403 149.599 109.874 150.023C109.344 150.442 108.655 150.656 107.803 150.656C106.83 150.656 106.141 150.476 105.731 150.115C105.327 149.759 105.12 149.306 105.12 148.76V148.716H103.039V148.76C103.039 149.482 103.237 150.115 103.641 150.661C104.041 151.212 104.58 151.641 105.259 151.948C105.842 152.216 106.56 152.372 107.412 152.411V153.766C107.412 154.302 107.846 154.741 108.376 154.741C108.905 154.741 109.339 154.302 109.339 153.766V152.27C110.23 152.089 110.957 151.729 111.511 151.188C112.354 150.374 112.778 149.365 112.778 148.17C112.778 147.659 112.691 147.205 112.527 146.82ZM105.967 151.329C105.881 151.329 105.799 151.329 105.712 151.324L106.271 151.012L106.786 151.3C106.517 151.319 106.242 151.329 105.967 151.329Z" fill="white"/>
</svg>
