<svg width="42" height="42" viewBox="0 0 42 42" fill="none" xmlns="http://www.w3.org/2000/svg">
<path d="M0.844672 26.895C-0.321405 22.9089 -0.27929 18.6666 0.96569 14.7045C2.21067 10.7424 4.6026 7.23838 7.83903 4.63558C11.0755 2.03277 15.011 0.448061 19.1481 0.0818224C23.2852 -0.284416 27.438 0.584274 31.0814 2.57804C34.7247 4.5718 37.6951 7.60111 39.6168 11.2829C41.5385 14.9647 42.3253 19.1336 41.8777 23.2625C41.43 27.3914 39.7681 31.2949 37.1019 34.4793C34.4358 37.6638 30.8853 39.9862 26.8993 41.1528C24.2523 41.9285 21.4784 42.1749 18.7361 41.8781C15.9939 41.5812 13.337 40.7469 10.9173 39.4228C8.49767 38.0987 6.36267 36.3107 4.63435 34.1612C2.90603 32.0116 1.61827 29.5425 0.844672 26.895Z" fill="url(#paint0_linear)"/>
<path d="M20.5959 24.208L28.7251 20.5919L21.1168 6.25253L12.6955 20.1268L20.5959 24.208Z" fill="white"/>
<path d="M21.1168 6.25253L20.9214 24.2177L12.6955 20.1268L21.1168 6.25253Z" fill="#E7E9EE"/>
<path d="M20.563 36.4018L29.3272 21.8923L20.8718 25.6697L12.6652 21.4139L20.563 36.4018Z" fill="white"/>
<path d="M20.8165 16.5134L28.725 20.5904L20.5959 24.2065L12.6955 20.1253L20.8165 16.5134Z" fill="#7062FF" fill-opacity="0.7"/>
<path d="M12.6955 20.1253L20.8165 16.5134L20.5959 24.2065L12.6955 20.1253Z" fill="#7D70FF"/>
<path d="M12.6445 21.4395L20.8512 25.6953L20.5424 36.4273L12.6445 21.4395Z" fill="#E7E9EE"/>
<defs>
<linearGradient id="paint0_linear" x1="43.0656" y1="42.8752" x2="-10.0844" y2="-12.7632" gradientUnits="userSpaceOnUse">
<stop stop-color="#78FFFF"/>
<stop offset="1" stop-color="#803BD8" stop-opacity="0.94"/>
</linearGradient>
</defs>
</svg>
