<svg id="Layer_1" data-name="Layer 1" xmlns="http://www.w3.org/2000/svg" xmlns:xlink="http://www.w3.org/1999/xlink" viewBox="0 0 54 54"><defs><style>.cls-1{fill:url(#linear-gradient);}</style><linearGradient id="linear-gradient" x1="0.38" y1="27.59" x2="53.35" y2="27.59" gradientUnits="userSpaceOnUse"><stop offset="0" stop-color="#f26736"/><stop offset="1" stop-color="#bd4988"/></linearGradient></defs><path class="cls-1" d="M19.06,5.3a5.46,5.46,0,0,1,5.4,5.36,5.4,5.4,0,0,1-10.79.09A5.42,5.42,0,0,1,19.06,5.3Zm-.11,9a3.58,3.58,0,1,0-3.44-3.71A3.58,3.58,0,0,0,19,14.26Zm-12.51,34c1.68-3.58,4.81-6.35,5.3-10.7,1.11,1.69,1.8,3.2,1.3,5-.28,1-.54,2.08-.74,3.13-.16.8-.22,1.62-.34,2.55,0,0,1.9,3.57,5.73,0,.54-2.44,1-4.76,1.56-7.08A4.75,4.75,0,0,0,19,38.33q-1.1-2.73-2.15-5.46a7,7,0,0,1-.23-.95c2.47.61,4.86.89,6.56,2.94,1,1.15,2.32,1.06,3.53.13a1,1,0,0,1,.62-.28c.83.18,1.64.42,2.62.67-.57.79-1,1.4-1.48,2s-.27,1.29.51,1.5c2.61.72,5.22,1.41,7.84,2.09A.86.86,0,0,0,38,40.4c.16-.6-.18-1-.75-1.13l-1.7-.46-4.72-1.26c.66-1.53.86-1.61,2.2-1.19,1.79.57,3.58,1.11,5.38,1.66.79.24,1.5-.13,1.38-.77a1.48,1.48,0,0,0-.82-.91c-1.67-.59-3.37-1.08-5.06-1.61-.26-.08-.52-.2-.78-.3.73-1.39.73-1.39,2.13-1,1.79.56,3.59,1.08,5.38,1.64.63.2,1.16.1,1.37-.55s-.26-1-.81-1.17l-.69-.22c-1.92-.59-3.85-1.17-5.76-1.77-1.37-.42-1.41-.42-2.27.74-1.25,1.66-1.24,1.64-3.29,1.16-.9-.22-1.76-.4-2-1.48-.07-.28-.38-.51-.61-.73-.92-.9-1.83-1.81-2.8-2.66a4.26,4.26,0,0,1-1.42-2.87c-.17-1.54-.42-3.08-.62-4.62a3.83,3.83,0,0,0-2.53-3.25c-1.73-.7-3.46-1.43-5.18-2.17a3.66,3.66,0,0,0-3.12,0q-3.24,1.5-6.47,3a3.86,3.86,0,0,0-2.07,2.25c-.53,1.49-1,3-1.55,4.48a2.65,2.65,0,0,0,.6,2.83,2.87,2.87,0,0,0,2.81.76A7.15,7.15,0,0,1,5.93,29c-.12,1.51-.25,2.78-.33,4.06-.09,1.55-.07,3.11-.26,4.65a7,7,0,0,1-.88,2.61c-.79,1.33-1.76,2.56-2.67,3.82C1,45.24.17,46.28.43,47.63.43,47.64,1.83,51.91,6.44,48.28ZM2.58,46.2c1.06-1.52,2.1-3.05,3.2-4.53a6.72,6.72,0,0,0,1.4-3.94c0-1.64.18-3.27.21-4.9A15.78,15.78,0,0,1,8.4,28c.69-2,1.33-4,2-6,.16-.49.39-1.09-.15-1.38a1.7,1.7,0,0,0-1.33,0c-3.55,1.6-3.13,1.18-4.19,4.59-.14.46-.27.93-.45,1.37a.89.89,0,0,1-1.14.63A.88.88,0,0,1,2.47,26c.53-1.6,1-3.21,1.7-4.76a2.69,2.69,0,0,1,1.28-1.13c2-1,4-1.92,6-2.77a2.91,2.91,0,0,1,1.91-.06c1.74.62,3.42,1.39,5.13,2.1a2.23,2.23,0,0,1,1.44,2c.2,1.67.46,3.34.69,5a5.09,5.09,0,0,0,1.56,3.09l3.09,2.94c.37.36.71.76.27,1.24s-.87.2-1.25-.16c-1.41-1.32-2.83-2.62-4.21-4a2.17,2.17,0,0,1-.55-1.1c-.17-.87-.17-1.77-.37-2.62a1.52,1.52,0,0,0-.77-1c-.48-.21-.84.18-1,.64-.79,1.88-1.59,3.75-2.37,5.63a6.85,6.85,0,0,0-.24,1c.14.46.26,1,.45,1.48.66,1.69,1.41,3.36,2,5.08A5.09,5.09,0,0,1,17.41,41c-.36,2.09-.87,4.14-1.34,6.21-.2.85-.72,1.22-1.41,1.06s-.94-.7-.76-1.53c.31-1.42.64-2.82,1-4.23a5.49,5.49,0,0,0-.39-3.68c-.67-1.44-1.35-2.87-2.1-4.25-.19-.36-.73-.78-1-.74s-.72.59-.83,1c-.34,1.26-.52,2.57-.85,3.84a8.13,8.13,0,0,1-.86,2.14c-1.35,2.25-2.76,4.47-4.16,6.69-.51.81-1.23,1-1.88.62A1.28,1.28,0,0,1,2.58,46.2ZM6.12,26.79c.31-1.05.62-2.1,1-3.12.11-.29.49-.48.74-.72l.24.18c-.43,1.31-.84,2.62-1.29,3.92-.05.12-.33.16-.5.24C6.25,27.13,6.08,26.93,6.12,26.79Zm40.6-1a6.82,6.82,0,0,1-1.66,3.76,7,7,0,0,1-1.39,1.22,1.5,1.5,0,0,1-1.76,0c-.31-.2-.64-.36-1-.53a1.53,1.53,0,0,1-.84-1.14,4.51,4.51,0,0,1,.35-2.54,6.5,6.5,0,0,1,2.44-3.26A1.71,1.71,0,0,1,45,23.22a3.13,3.13,0,0,0,.65.35C46.47,23.92,46.73,24.6,46.72,25.75Zm-6.1,2.69c0,.15,0,.29,0,.44.11.75.56,1,1.26.69a2.39,2.39,0,0,0,.49-.28,6,6,0,0,0,1.68-2.08,5.45,5.45,0,0,0,.7-2.58.92.92,0,0,0-1.6-.83A6.44,6.44,0,0,0,40.62,28.44Zm1.5,1.73a.93.93,0,0,0,1,.18,3.36,3.36,0,0,0,.69-.4A6.29,6.29,0,0,0,46,26.35a5.19,5.19,0,0,0,.06-1.42.85.85,0,0,0-.65-.76A7,7,0,0,1,42.12,30.17Zm.67,1.1a1.92,1.92,0,0,1-1-.31c-.25-.16-.53-.3-.8-.44l-.14-.08a1.76,1.76,0,0,1-1-1.31,4.84,4.84,0,0,1,.36-2.68,6.71,6.71,0,0,1,2.53-3.38A2,2,0,0,1,45.12,23a2.65,2.65,0,0,0,.59.32A2.24,2.24,0,0,1,47,25.76h0a7,7,0,0,1-1.72,3.9,7.2,7.2,0,0,1-1.44,1.27A1.79,1.79,0,0,1,42.79,31.27ZM44,23.15a1.73,1.73,0,0,0-1,.34,6.18,6.18,0,0,0-2.35,3.14A4.3,4.3,0,0,0,40.35,29a1.32,1.32,0,0,0,.7,1l.15.07c.28.15.57.29.84.47a1.26,1.26,0,0,0,1.48,0,6.67,6.67,0,0,0,2.95-4.79c0-1.13-.24-1.65-.95-1.93a4,4,0,0,1-.69-.38A1.41,1.41,0,0,0,44,23.15Zm-1.23,7.54a1.31,1.31,0,0,1-.81-.32l-.26-.22L42,30a6.77,6.77,0,0,0,3.17-5.81v-.33l.31.1a1.1,1.1,0,0,1,.83,1,5.73,5.73,0,0,1-.06,1.49A6.57,6.57,0,0,1,44,30.14a3.24,3.24,0,0,1-.74.43A1.07,1.07,0,0,1,42.77,30.69Zm-.19-.54a.64.64,0,0,0,.47,0,3.14,3.14,0,0,0,.63-.37,6,6,0,0,0,2.07-3.45,5.1,5.1,0,0,0,0-1.35.52.52,0,0,0-.17-.37A7.21,7.21,0,0,1,42.58,30.15Zm-1.2-.2a.82.82,0,0,1-.44-.11,1.15,1.15,0,0,1-.53-.93c0-.11,0-.21,0-.32v-.17A6.75,6.75,0,0,1,43,23.6a1.27,1.27,0,0,1,1.34-.28A1.29,1.29,0,0,1,45,24.63a5.54,5.54,0,0,1-.73,2.69,6,6,0,0,1-1.76,2.17,2.54,2.54,0,0,1-.53.31A1.6,1.6,0,0,1,41.38,30Zm-.51-1.5v.11a2.46,2.46,0,0,0,0,.28c0,.2.1.47.28.56a.71.71,0,0,0,.63-.06,2.16,2.16,0,0,0,.44-.25,5.73,5.73,0,0,0,1.61-2,5.08,5.08,0,0,0,.67-2.46c0-.5-.11-.74-.37-.86s-.46,0-.83.23A6.17,6.17,0,0,0,40.87,28.45Zm6.78,1a7,7,0,0,1,4.92,2.22,1.64,1.64,0,0,1,.33,2,4.67,4.67,0,0,0-.35.9,1.59,1.59,0,0,1-1.25,1.09,5.05,5.05,0,0,1-2.5-.12,6.67,6.67,0,0,1-3-1.58,4.54,4.54,0,0,1-.71-.91A1.35,1.35,0,0,1,45,31.7a7.75,7.75,0,0,0,.35-.91,1.86,1.86,0,0,1,1.82-1.36Zm0,.57a2.36,2.36,0,0,0-.46,0c-.42.07-.88.12-1.07.57a1.07,1.07,0,0,0,.39,1.16,6.3,6.3,0,0,0,4.94,1.92,2.17,2.17,0,0,0,.73-.21.6.6,0,0,0,.33-.86,3,3,0,0,0-.62-.89A6.58,6.58,0,0,0,47.61,30Zm-2,1.73a.85.85,0,0,0-.08.93,3.41,3.41,0,0,0,.54.75A5.93,5.93,0,0,0,49.3,35a6.93,6.93,0,0,0,1.82,0A.85.85,0,0,0,52,34.2,7,7,0,0,1,45.63,31.71ZM50.37,36a6.44,6.44,0,0,1-1.63-.24,6.84,6.84,0,0,1-3.13-1.64,4.85,4.85,0,0,1-.75-1,1.56,1.56,0,0,1-.1-1.51c.11-.27.24-.58.33-.88a2.11,2.11,0,0,1,2-1.54l.35,0h.19a7.2,7.2,0,0,1,5.09,2.31,1.85,1.85,0,0,1,.36,2.24,5.57,5.57,0,0,0-.34.87,1.8,1.8,0,0,1-1.42,1.25A4.25,4.25,0,0,1,50.37,36Zm-2.72-6.29H47.5l-.32,0a1.63,1.63,0,0,0-1.61,1.18,7.21,7.21,0,0,1-.36.93,1.14,1.14,0,0,0,.07,1.06,3.91,3.91,0,0,0,.68.86,6.33,6.33,0,0,0,2.9,1.52,5,5,0,0,0,2.39.12,1.36,1.36,0,0,0,1.06-.93,6.18,6.18,0,0,1,.36-.94,1.36,1.36,0,0,0-.29-1.68A6.66,6.66,0,0,0,47.65,29.66Zm2.68,5.65a7.06,7.06,0,0,1-1.07-.08,6.24,6.24,0,0,1-3.34-1.66,3.46,3.46,0,0,1-.59-.81,1.11,1.11,0,0,1,.09-1.18l.19-.28.21.25A6.75,6.75,0,0,0,52,34l.3,0,0,.3a1.08,1.08,0,0,1-1.09,1.05A7.83,7.83,0,0,1,50.33,35.31Zm-4.62-3.14a.54.54,0,0,0,.06.35,2.93,2.93,0,0,0,.5.69,5.67,5.67,0,0,0,3.07,1.52,6.67,6.67,0,0,0,1.76.05.64.64,0,0,0,.56-.31A7.24,7.24,0,0,1,45.71,32.17Zm5.36,1.72a6.5,6.5,0,0,1-4.78-2A1.16,1.16,0,0,1,47,29.75l.09,0a2.35,2.35,0,0,1,.37,0h.16A6.78,6.78,0,0,1,52,31.49a3.19,3.19,0,0,1,.68,1,.83.83,0,0,1,0,.67.91.91,0,0,1-.51.51,2.17,2.17,0,0,1-.82.24Zm-3.75-3.67H47.1c-.42.07-.67.13-.79.4s0,.54.34.9a6.07,6.07,0,0,0,4.75,1.84,1.8,1.8,0,0,0,.63-.19.47.47,0,0,0,.25-.23.38.38,0,0,0,0-.29,2.84,2.84,0,0,0-.57-.81,6.25,6.25,0,0,0-4.08-1.63h-.28Zm-.62,7.52A10.86,10.86,0,0,1,48,38.1a1.33,1.33,0,0,1,.79.9c.11.35.21.7.34,1a1.59,1.59,0,0,1-.28,1.66A4.86,4.86,0,0,1,47,43.16a6.43,6.43,0,0,1-3.89.79,1.71,1.71,0,0,1-1.6-1.3,3.13,3.13,0,0,0-.27-.72,1.71,1.71,0,0,1,.41-2.13A7.28,7.28,0,0,1,46.7,37.74ZM43.29,42a7.41,7.41,0,0,0,4-1.51,3.77,3.77,0,0,0,.74-.85.71.71,0,0,0-.44-1.15,3.24,3.24,0,0,0-1-.16,6.55,6.55,0,0,0-4,1.39,3.54,3.54,0,0,0-.84,1,.65.65,0,0,0,.36,1A9.78,9.78,0,0,0,43.29,42Zm-1.16.45a.92.92,0,0,0,.72.82,2.93,2.93,0,0,0,.72.12,6.44,6.44,0,0,0,4-1.18,4.56,4.56,0,0,0,1-1,.84.84,0,0,0,0-1.14A6.94,6.94,0,0,1,42.13,42.46Zm1.76,1.8a5.25,5.25,0,0,1-.79-.06,2,2,0,0,1-1.8-1.49,3.23,3.23,0,0,0-.25-.66,2,2,0,0,1,.45-2.42,7.39,7.39,0,0,1,5.19-2.14h.08l.3.07a9.94,9.94,0,0,1,1,.29A1.54,1.54,0,0,1,49,38.92l.12.36c.07.23.14.45.23.67a1.87,1.87,0,0,1-.32,1.9,5.15,5.15,0,0,1-1.93,1.53A7.23,7.23,0,0,1,43.89,44.26ZM46.68,38a6.93,6.93,0,0,0-4.82,2,1.45,1.45,0,0,0-.36,1.84,4.11,4.11,0,0,1,.29.77,1.47,1.47,0,0,0,1.38,1.12,6.31,6.31,0,0,0,3.75-.77,4.82,4.82,0,0,0,1.75-1.39,1.32,1.32,0,0,0,.25-1.41c-.09-.24-.17-.47-.24-.71s-.07-.24-.11-.35a1.11,1.11,0,0,0-.63-.75,7.84,7.84,0,0,0-1-.27Zm-2.83,5.67h-.29a3.18,3.18,0,0,1-.78-.13,1.16,1.16,0,0,1-.9-1l0-.32.32,0a6.65,6.65,0,0,0,6.21-2.29l.22-.25.18.28a1.1,1.1,0,0,1,0,1.43,5.35,5.35,0,0,1-1.07,1A6.76,6.76,0,0,1,43.85,43.66Zm-1.37-.92a.69.69,0,0,0,.44.3,3.25,3.25,0,0,0,.66.11A6.16,6.16,0,0,0,47.39,42a4.3,4.3,0,0,0,1-.94.6.6,0,0,0,.15-.55A7,7,0,0,1,42.48,42.74Zm.79-.48h0l-.37-.07A5.32,5.32,0,0,1,42,42a.89.89,0,0,1-.5-1.39,4.07,4.07,0,0,1,.9-1,6.81,6.81,0,0,1,4.15-1.44,3.67,3.67,0,0,1,1.09.17,1,1,0,0,1,.72.61,1,1,0,0,1-.14.91,3.75,3.75,0,0,1-.79.91,7.67,7.67,0,0,1-4.14,1.57Zm3.34-3.67h0a6.31,6.31,0,0,0-3.85,1.34,3.19,3.19,0,0,0-.78.9.48.48,0,0,0-.08.39.49.49,0,0,0,.32.27,5.55,5.55,0,0,0,.78.2l.34.07a7.17,7.17,0,0,0,3.81-1.45,3.38,3.38,0,0,0,.69-.79.59.59,0,0,0,.1-.48.61.61,0,0,0-.4-.3A3.13,3.13,0,0,0,46.61,38.59Z"/></svg>