<svg id="Layer_1" data-name="Layer 1" xmlns="http://www.w3.org/2000/svg" xmlns:xlink="http://www.w3.org/1999/xlink" viewBox="0 0 54 54"><defs><style>.cls-1{fill:url(#linear-gradient);}</style><linearGradient id="linear-gradient" x1="3.57" y1="27" x2="49.59" y2="27" gradientUnits="userSpaceOnUse"><stop offset="0" stop-color="#fff"/><stop offset="1" stop-color="#fff"/></linearGradient></defs><path class="cls-1" d="M28.83,35.66v-8.8m.79,8.79V26.86a.79.79,0,1,0-1.58,0v8.79a.79.79,0,0,0,1.58,0Zm-.19,1,3.38-4a.79.79,0,0,0-.1-1.11.8.8,0,0,0-1.11.1l-2.71,3.25-2.37-3.4a.78.78,0,0,0-1.09-.19.78.78,0,0,0-.2,1.09l2.95,4.25a.79.79,0,0,0,.61.33h0A.78.78,0,0,0,29.43,36.63ZM11.5,53.24A7.84,7.84,0,0,1,8.57,52a6.57,6.57,0,0,1-2.8-5.64V19.5c0-1,0-1.95,0-2.93A3.55,3.55,0,0,1,6.9,13.85c2.48-2.46,5-4.91,7.4-7.41a3.84,3.84,0,0,1,3.19-1.3,1.32,1.32,0,0,0,1.41-.68c.37-.61.85-1.14,1.27-1.72A4.52,4.52,0,0,1,24,.76H47.2a2.2,2.2,0,0,1,2.39,2.4V46.55a6.55,6.55,0,0,1-5.53,6.6,1.84,1.84,0,0,0-.25.09ZM47.4,3H41.94a.93.93,0,0,0-.48.27c-.85.84-1.72,1.66-2.53,2.53a5,5,0,0,1-3.82,1.58c-5.92,0-11.84,0-17.76,0A1.8,1.8,0,0,0,16,7.87c-2.49,2.51-5,5-7.49,7.48A1.64,1.64,0,0,0,8,16.62Q8,31.55,8,46.46a4.49,4.49,0,0,0,.06.9,4.38,4.38,0,0,0,4.59,3.7h9.2q10.4,0,20.8,0a4.6,4.6,0,0,0,3.72-1.54,4.66,4.66,0,0,0,1.07-3.21q0-21.41,0-42.8ZM21.15,5.09l.41,0q6.95,0,13.89,0a2.15,2.15,0,0,0,1.21-.32A24.23,24.23,0,0,0,38.58,3,.92.92,0,0,0,38.39,3H23.76a2,2,0,0,0-1.51.69C21.88,4.08,21.56,4.55,21.15,5.09ZM4.24,11.62a1.06,1.06,0,0,0,1.23-.26Q8.74,8.11,12,4.83a1.05,1.05,0,0,0,0-1.57,1.08,1.08,0,0,0-1.57.06Q7.18,6.56,3.94,9.82a2.13,2.13,0,0,0-.37.62A1.15,1.15,0,0,0,4.24,11.62ZM42.33,47.29a6.75,6.75,0,0,1-1.11-.7c-1.45-1.41-2.85-2.85-4.3-4.25a1.48,1.48,0,0,0-.72-.26,4.24,4.24,0,0,0-.61,0c-4.72,0-9.45,0-14.17,0a2.52,2.52,0,0,0-2.07.88c-1.2,1.28-2.46,2.49-3.71,3.72a1.21,1.21,0,0,1-1.55.25,1.18,1.18,0,0,1-.56-1.42,2.18,2.18,0,0,1,.51-.74c1.38-1.4,2.79-2.78,4.17-4.2a1.5,1.5,0,0,0,.25-.78,4.45,4.45,0,0,0,0-.73c0-5.45,0-10.89,0-16.34a2.72,2.72,0,0,0-1-2.28c-1.22-1.11-2.35-2.31-3.52-3.48a1.27,1.27,0,1,1,1.76-1.77c1.42,1.4,2.82,2.82,4.25,4.21a1.52,1.52,0,0,0,.72.26,4.14,4.14,0,0,0,.61,0c4.75,0,9.49,0,14.24,0a2.3,2.3,0,0,0,1.92-.8c1.22-1.3,2.52-2.55,3.79-3.8a1.23,1.23,0,0,1,1.56-.26,1.13,1.13,0,0,1,.59,1.29,2,2,0,0,1-.53.86c-1.38,1.41-2.78,2.8-4.19,4.19-.22.23-.39.42-.28.79a3.34,3.34,0,0,1,0,.84c0,5.45,0,10.9,0,16.35a2.56,2.56,0,0,0,.91,2.11c1.28,1.2,2.49,2.46,3.73,3.7a1.13,1.13,0,0,1,.29,1.44A5.29,5.29,0,0,1,42.33,47.29ZM21,22.13V39.57H35.93V22.13Z"/></svg>