<svg width="996" height="691" viewBox="0 0 996 691" fill="none" xmlns="http://www.w3.org/2000/svg">
<path d="M993.698 119.576C993.698 119.494 993.698 119.412 993.698 119.33C993.698 119.166 993.61 119.002 993.61 118.839C987.635 132.107 978.497 148.732 964.438 166.177C947.568 187.062 929.555 201.641 915.672 211.141C931.664 194.351 957.848 162.328 973.137 115.399C989.393 65.1933 985.351 22.5228 981.485 0C975.422 19.7382 964.35 48.895 943.262 80.8364C924.81 109.01 903.986 140.379 863.128 162.656C847.663 171.092 813.131 186.817 762.871 186.161C766.913 183.95 778.951 176.415 780.972 163.639C781.323 162.082 781.323 160.526 781.323 158.643C778.336 162.41 773.24 167.406 765.859 170.518C751.097 176.825 740.729 170.518 719.553 171.419C713.138 171.747 695.741 172.648 679.925 181.739C662.176 192.058 654.443 209.012 651.104 219.331C654.092 216.792 661.209 210.895 671.929 209.012C681.331 207.456 694.774 208.029 702.77 214.991C714.544 224.982 714.808 248.816 697.762 268.308C697.762 266.424 696.795 257.989 689.678 253.238C688.36 252.256 686.69 251.682 685.285 251.027C685.285 259.217 684.582 271.093 679.573 284.279C671.49 305.573 657.431 319.087 649.698 325.311C651.016 321.544 652.422 316.876 652.686 310.897C653.037 305.246 652.686 300.25 651.983 296.482C650.313 298.366 627.204 324.083 594.254 319.988C579.141 318.104 568.773 310.569 563.764 306.474C564.819 306.802 568.509 307.375 572.2 306.146C575.539 304.918 577.56 303.034 578.262 302.051C571.233 298.612 558.492 291.077 548.739 276.99C531.957 252.829 536.35 227.767 537.316 221.215C540.655 219.004 545.752 215.236 550.057 209.012C555.417 201.149 556.735 193.614 557.087 189.929C553.396 191.485 547.333 194.024 539.337 195.252C526.597 197.464 517.898 194.925 500.412 192.713C495.404 192.058 489.341 191.485 482.312 190.83C471.592 190.174 465.529 190.174 459.554 193.369C452.525 197.136 448.834 203.688 446.813 207.783C436.797 205.899 427.043 209.012 420.98 215.646C415.621 221.625 415.621 228.832 415.972 231.043C418.696 230.388 421.683 229.815 425.022 229.487C439.433 227.931 452.173 230.142 461.224 232.599C461.224 234.483 460.872 240.134 456.83 245.458C452.788 251.109 446.725 253.32 445.056 253.894C446.023 254.876 449.098 257.006 453.403 257.333C455.424 257.333 456.742 257.006 457.797 257.006C455.776 265.196 448.043 290.831 423.88 302.461C420.19 304.345 416.499 305.573 412.457 306.556C413.512 307.785 415.445 309.75 418.608 311.224C420.805 312.207 422.738 312.617 424.144 312.862C414.918 318.186 406.746 319.742 402.001 320.397C369.139 324.82 345.942 298.775 344.272 296.892C343.57 300.659 342.954 305.655 343.57 311.306C343.921 317.285 345.59 322.281 346.908 325.721C339.176 319.414 325.117 305.983 317.034 284.688C312.025 271.175 310.971 259.627 311.322 251.437C310.004 251.764 308.335 252.665 306.929 253.648C299.9 258.316 299.197 266.506 298.845 268.718C281.711 248.98 282.063 225.474 293.837 215.4C301.921 208.52 315.276 207.538 324.678 209.421C335.398 211.633 342.427 217.284 345.503 219.741C342.164 209.421 334.08 192.468 316.331 182.148C300.866 172.73 283.117 172.156 276.703 171.829C255.263 170.846 245.158 177.152 230.397 170.846C223.016 167.406 218.008 162.41 214.932 158.97C214.932 160.854 214.932 162.41 215.284 163.966C217.305 176.497 229.342 184.032 233.384 186.571C182.773 187.226 148.505 171.501 133.128 163.065C92.1819 140.788 71.4452 109.42 52.9931 81.2459C31.8172 48.895 20.3945 19.7382 14.4195 0C10.7291 22.6047 6.33572 65.5209 22.7669 115.317C24.9635 122.033 29.1812 132.68 34.541 144.474C46.5788 171.01 59.8468 191.567 69.7757 205.572C58.2652 195.908 44.8215 182.885 31.8172 166.096C18.3735 148.814 9.0596 132.352 2.6453 118.839C2.55744 119.166 2.55744 119.494 2.46957 119.821C0.185025 132.68 -2.09952 154.875 3.43611 180.592C5.80852 191.894 9.76254 203.852 15.7375 215.973C26.8087 238.25 40.516 252.665 50.2693 262.411C83.483 295.991 122.408 314.173 153.249 324.165C139.806 323.51 121.705 321.626 101.584 315.401C78.7382 308.522 61.692 298.775 50.2693 290.995C57.2986 304.181 82.165 346.769 137.433 370.93C186.375 392.225 231.012 387.229 247.443 384.69C237.426 389.03 225.3 393.781 210.89 396.893C179.346 403.773 152.195 401.561 134.71 398.449C148.768 410.079 192.087 442.921 256.845 446.361C296.121 448.573 327.314 438.826 344.712 431.947C338.385 439.809 328.984 450.129 315.54 459.22C292.079 475.19 268.883 480.514 255.527 482.398C264.577 485.838 297.791 497.468 337.682 485.838C373.532 475.518 393.39 452.913 399.717 444.805C401.035 448.245 402.089 452.668 401.738 457.991C400.42 475.846 384.955 486.82 381.967 488.704C387.855 488.377 395.587 487.23 404.11 484.282C419.926 478.794 430.031 469.703 435.303 464.298C440.311 469.621 446.023 477.811 447.341 488.131C451.031 516.632 419.135 543.005 391.281 552.669C364.833 561.842 340.494 556.518 329.599 553.324C323.272 551.44 318.527 549.557 316.155 548.328C316.243 548.656 316.243 549.065 316.331 549.393C320.109 571.015 336.979 600.581 368.875 609.754C396.29 617.617 420.453 606.314 426.34 603.366C424.671 608.607 420.19 620.319 408.064 629.574C402.265 633.997 396.466 636.618 392.072 638.092C406.746 646.282 417.378 646.446 424.319 645.135C448.395 640.631 467.901 610.655 467.901 610.655C466.056 615.897 459.027 637.846 470.625 661.434C478.973 678.387 492.592 687.478 498.567 691C504.542 687.396 517.546 678.469 525.63 662.089C537.229 638.501 530.111 616.47 528.266 611.228C536.438 629.984 553.396 643.088 572.903 645.135C587.928 646.692 599.702 641.204 604.711 638.501C599.614 636.945 590.3 633.178 581.953 625.07C573.254 616.634 569.915 607.788 568.246 603.12C568.597 603.284 569.124 603.611 569.651 603.857C569.476 603.366 569.3 602.874 569.212 602.465C573.869 605.004 598.736 618.108 628.259 609.672C634.761 607.87 640.824 605.168 646.359 601.728C646.447 601.646 646.535 601.646 646.623 601.564C664.987 590.18 677.816 570.769 680.891 548.246C672.544 552.014 640.297 564.872 605.413 552.669C578.262 542.923 545.752 516.96 549.354 488.131C550.672 477.811 556.384 469.949 561.392 464.38C562.271 465.526 563.062 466.591 563.764 467.492C581.514 484.691 605.062 488.213 614.376 488.786C614.2 488.704 614.024 488.54 613.761 488.377C614.112 488.377 614.376 488.458 614.727 488.458C612.003 486.575 596.275 475.6 594.957 457.746C594.606 452.668 595.572 448.491 596.802 445.051C603.305 453.323 623.075 475.682 658.749 485.92C698.64 497.549 731.854 485.919 740.904 482.48C740.817 482.48 740.817 482.48 740.817 482.48C727.373 480.596 704.264 475.272 680.891 459.302C667.448 450.211 658.046 439.891 651.719 432.029C652.159 432.192 652.598 432.356 653.037 432.52C652.774 432.274 652.598 431.947 652.334 431.701C669.82 438.581 701.013 448.327 740.202 446.116C769.549 444.559 794.591 436.943 814.361 427.934C814.976 427.606 815.679 427.36 816.294 427.033C817.437 426.541 818.491 425.968 819.545 425.476C840.194 415.403 854.517 404.264 861.634 398.449C844.236 401.561 816.997 403.773 785.453 396.893C771.043 393.781 758.917 389.03 748.9 384.69C749.603 384.772 750.306 384.854 751.009 385.017C750.482 384.772 750.043 384.608 749.515 384.362C764.365 386.655 802.06 390.914 845.466 376.09C849.86 374.534 854.341 372.814 858.822 370.848C913.388 347.015 938.254 305.246 945.723 291.486C934.564 299.021 918.22 308.112 896.781 314.746C896.341 314.91 895.99 314.992 895.551 315.156C895.287 315.238 894.935 315.319 894.672 315.401C874.55 321.708 856.45 323.591 843.006 324.165C873.847 314.173 912.772 295.909 945.986 262.411C955.739 252.665 969.447 238.25 980.518 215.973C985.702 205.572 989.305 195.252 991.765 185.424C992.204 183.622 992.556 181.821 992.907 180.101C998.004 154.466 995.719 132.352 993.698 119.576Z" fill="url(#paint0_linear)"/>
<defs>
<linearGradient id="paint0_linear" x1="498" y1="0" x2="498" y2="731" gradientUnits="userSpaceOnUse">
<stop stop-color="white" stop-opacity="0.04"/>
<stop offset="1" stop-color="white" stop-opacity="0.02"/>
</linearGradient>
</defs>
</svg>
