<svg width="1410" height="626" viewBox="0 0 1410 626" fill="none" xmlns="http://www.w3.org/2000/svg">
<g style="mix-blend-mode:screen" opacity="0.2">
<path d="M977.767 62C978.424 61.2054 979.164 60.4841 979.975 59.8485C980.958 59.5304 981.972 59.322 983 59.2273C982.21 58.5716 981.49 57.8353 980.853 57.0303C980.536 56.046 980.328 55.0298 980.233 54C979.58 54.7986 978.839 55.5204 978.025 56.1515C977.043 56.4742 976.028 56.6876 975 56.7879C975.794 57.4394 976.514 58.1762 977.147 58.9849C977.464 59.9641 977.672 60.9752 977.767 62Z" fill="white"/>
</g>
<g filter="url(#filter0_f)">
<path d="M1386.28 294.029C1390.07 277.866 1380.07 261.682 1363.94 257.881C1347.81 254.081 1331.66 264.104 1327.87 280.268C1324.07 296.432 1334.08 312.616 1350.21 316.416C1366.34 320.216 1382.49 310.193 1386.28 294.029Z" fill="#F3A400"/>
<g style="mix-blend-mode:color-burn" opacity="0.34">
<path d="M1331.11 281.536C1329.8 286.12 1329.7 290.969 1330.84 295.6C1331.98 300.231 1334.31 304.483 1337.59 307.933C1348.98 319.795 1365.51 315.366 1368.53 310.079C1371.55 304.792 1361.48 295.622 1351.44 296.422C1341.39 297.222 1344.08 282.101 1338.94 278.746C1333.8 275.39 1332 279.526 1331.11 281.536Z" fill="#F3A400"/>
</g>
<g style="mix-blend-mode:screen">
<g style="mix-blend-mode:screen" opacity="0.45">
<path d="M1344.87 268.463C1345.57 266.883 1350.87 258.259 1365.57 263.176C1380.27 268.093 1383.36 285.437 1379.82 290.373C1376.28 295.309 1369.95 293.046 1365.9 285.749C1361.85 278.452 1351.1 280.013 1347.3 275.897C1343.51 271.78 1344.13 270.063 1344.87 268.463Z" fill="#F3A400"/>
</g>
<g style="mix-blend-mode:screen">
<path d="M1366.62 268.557C1366.13 270.313 1363.09 271.015 1359.82 270.098C1356.55 269.181 1354.31 267.035 1354.8 265.26C1355.28 263.484 1358.32 262.801 1361.59 263.699C1364.86 264.596 1367.12 266.782 1366.62 268.557Z" fill="#F3A400"/>
</g>
<g style="mix-blend-mode:screen">
<path d="M1374.15 273.065C1373.49 273.826 1371.82 273.494 1370.38 272.285C1368.94 271.075 1368.31 269.475 1368.96 268.695C1369.6 267.915 1371.29 268.266 1372.73 269.475C1374.17 270.685 1374.8 272.363 1374.15 273.065Z" fill="#F3A400"/>
</g>
</g>
</g>
<g style="mix-blend-mode:screen" filter="url(#filter1_d)">
<path d="M489.272 80.6453C489.272 80.6453 487.862 77.3847 487.046 76.56C486.231 75.7353 483 74.3227 483 74.3227C483 74.3227 486.262 72.91 487.085 72.0929C487.908 71.2759 489.31 68 489.31 68C489.31 68 490.72 71.2682 491.543 72.0929C492.366 72.9176 495.62 74.3227 495.62 74.3227C495.62 74.3227 492.366 75.7353 491.543 76.56C490.72 77.3847 489.272 80.6453 489.272 80.6453Z" fill="url(#paint0_linear)"/>
</g>
<path d="M262.128 19.7692C266.607 17.8271 268.667 12.6144 266.729 8.12638C264.791 3.63835 259.589 1.57449 255.11 3.51664C250.631 5.45878 248.571 10.6715 250.509 15.1595C252.448 19.6475 257.65 21.7114 262.128 19.7692Z" fill="url(#paint1_linear)"/>
<path style="mix-blend-mode:screen" d="M252.443 14.7703C251.674 14.3939 251.128 13.426 250.891 12.7046C250.386 11.1407 250.806 9.44686 251.473 8.00397C253.548 3.48263 259.164 3.07486 260.613 4.41916C262.062 5.76346 261.114 7.6679 258.659 8.70301C256.204 9.73813 256.32 13.2288 254.876 14.2953C254.349 14.746 253.672 14.9812 252.98 14.954C252.791 14.9256 252.609 14.8633 252.443 14.7703Z" fill="url(#paint2_radial)"/>
<path style="mix-blend-mode:multiply" opacity="0.5" d="M259.709 3.03906C260.57 3.61241 261.296 4.36806 261.834 5.25275C262.373 6.13745 262.711 7.12969 262.826 8.1596C262.94 9.18952 262.828 10.2321 262.497 11.2138C262.166 12.1955 261.624 13.0926 260.909 13.8418C260.195 14.591 259.325 15.1741 258.362 15.5501C257.398 15.9261 256.364 16.0858 255.332 16.018C254.3 15.9501 253.295 15.6564 252.389 15.1575C251.482 14.6586 250.696 13.9667 250.085 13.1304L250.059 13.0945C250.322 14.687 251.022 16.1748 252.08 17.3916C253.139 18.6083 254.514 19.5061 256.052 19.9846C257.591 20.463 259.232 20.5032 260.792 20.1007C262.352 19.6982 263.769 18.8689 264.886 17.7054C266.003 16.5419 266.774 15.0902 267.115 13.5125C267.455 11.9348 267.351 10.2933 266.814 8.77148C266.277 7.2497 265.328 5.90765 264.073 4.89531C262.818 3.88298 261.307 3.24027 259.709 3.03906Z" fill="url(#paint3_radial)"/>
<path style="mix-blend-mode:multiply" opacity="0.5" d="M255.188 9.4375C255.321 9.5057 255.421 9.62294 255.469 9.76433C255.517 9.90571 255.507 10.0601 255.443 10.1948C255.402 10.3385 255.307 10.4605 255.177 10.5342C255.048 10.608 254.894 10.6277 254.75 10.5891" fill="url(#paint4_radial)"/>
<path style="mix-blend-mode:multiply" opacity="0.5" d="M257.231 5.66008C257.561 5.57498 257.796 5.37968 257.756 5.22389C257.716 5.0681 257.416 5.01079 257.086 5.0959C256.756 5.18101 256.521 5.3763 256.561 5.53209C256.601 5.68788 256.901 5.74519 257.231 5.66008Z" fill="url(#paint5_radial)"/>
<g filter="url(#filter2_f)">
<path d="M58.3162 543.448C70.8441 538.016 76.6052 523.436 71.1838 510.882C65.7625 498.328 51.2118 492.556 38.6838 497.988C26.1559 503.42 20.3949 518.001 25.8162 530.555C31.2375 543.108 45.7882 548.881 58.3162 543.448Z" fill="url(#paint6_linear)"/>
<path style="mix-blend-mode:screen" d="M31.223 529.465C29.0715 528.412 27.5455 525.704 26.8825 523.686C25.4691 519.312 26.6449 514.574 28.5086 510.538C34.3125 497.892 50.0232 496.751 54.0759 500.511C58.1286 504.271 55.4769 509.598 48.6097 512.494C41.7426 515.389 42.0678 525.153 38.0276 528.136C36.5538 529.397 34.6602 530.054 32.724 529.979C32.1969 529.899 31.6885 529.725 31.223 529.465Z" fill="url(#paint7_radial)"/>
<path style="mix-blend-mode:multiply" opacity="0.5" d="M51.5479 496.652C53.9575 498.256 55.9869 500.37 57.4932 502.844C58.9995 505.319 59.946 508.094 60.2662 510.975C60.5863 513.856 60.2723 516.772 59.3462 519.518C58.4201 522.264 56.9044 524.773 54.9059 526.869C52.9074 528.965 50.4748 530.596 47.7792 531.647C45.0836 532.699 42.1907 533.146 39.3043 532.956C36.4178 532.766 33.6079 531.945 31.0725 530.549C28.5371 529.154 26.3379 527.218 24.6297 524.879L24.5547 524.779C25.2905 529.233 27.2483 533.395 30.209 536.798C33.1698 540.202 37.0169 542.713 41.3202 544.051C45.6236 545.389 50.2136 545.502 54.5771 544.376C58.9406 543.25 62.9055 540.93 66.0288 537.676C69.152 534.422 71.3104 530.361 72.2627 525.948C73.2149 521.535 72.9235 516.943 71.421 512.687C69.9184 508.43 67.264 504.676 63.7545 501.845C60.2449 499.013 56.0186 497.215 51.5479 496.652Z" fill="url(#paint8_radial)"/>
<path style="mix-blend-mode:multiply" opacity="0.5" d="M38.9055 514.551C39.276 514.742 39.5577 515.069 39.6908 515.465C39.824 515.86 39.798 516.292 39.6185 516.669C39.5046 517.071 39.2374 517.412 38.8746 517.619C38.5119 517.825 38.0827 517.88 37.6797 517.772" fill="url(#paint9_radial)"/>
<path style="mix-blend-mode:multiply" opacity="0.5" d="M44.616 503.983C45.5393 503.745 46.197 503.199 46.0851 502.763C45.9732 502.327 45.134 502.167 44.2108 502.405C43.2875 502.643 42.6298 503.189 42.7417 503.625C42.8536 504.061 43.6927 504.221 44.616 503.983Z" fill="url(#paint10_radial)"/>
</g>
<circle r="10.5" transform="matrix(1 0 0 -1 56.5 148.5)" fill="#37283F"/>
<circle r="5.5" transform="matrix(1 0 0 -1 960.5 620.5)" fill="#37283F"/>
<defs>
<filter id="filter0_f" x="1305.06" y="235.076" width="104.021" height="104.144" filterUnits="userSpaceOnUse" color-interpolation-filters="sRGB">
<feFlood flood-opacity="0" result="BackgroundImageFix"/>
<feBlend mode="normal" in="SourceGraphic" in2="BackgroundImageFix" result="shape"/>
<feGaussianBlur stdDeviation="11" result="effect1_foregroundBlur"/>
</filter>
<filter id="filter1_d" x="479" y="68" width="20.6195" height="20.6453" filterUnits="userSpaceOnUse" color-interpolation-filters="sRGB">
<feFlood flood-opacity="0" result="BackgroundImageFix"/>
<feColorMatrix in="SourceAlpha" type="matrix" values="0 0 0 0 0 0 0 0 0 0 0 0 0 0 0 0 0 0 127 0"/>
<feOffset dy="4"/>
<feGaussianBlur stdDeviation="2"/>
<feColorMatrix type="matrix" values="0 0 0 0 0 0 0 0 0 0 0 0 0 0 0 0 0 0 0.25 0"/>
<feBlend mode="normal" in2="BackgroundImageFix" result="effect1_dropShadow"/>
<feBlend mode="normal" in="SourceGraphic" in2="effect1_dropShadow" result="shape"/>
</filter>
<filter id="filter2_f" x="0.777344" y="472.945" width="95.4459" height="95.5472" filterUnits="userSpaceOnUse" color-interpolation-filters="sRGB">
<feFlood flood-opacity="0" result="BackgroundImageFix"/>
<feBlend mode="normal" in="SourceGraphic" in2="BackgroundImageFix" result="shape"/>
<feGaussianBlur stdDeviation="11.5" result="effect1_foregroundBlur"/>
</filter>
<linearGradient id="paint0_linear" x1="480.5" y1="60.5" x2="497.952" y2="65.6199" gradientUnits="userSpaceOnUse">
<stop stop-color="#7060D7"/>
<stop offset="0.403813" stop-color="#E93C5A"/>
<stop offset="0.800155" stop-color="#FF9E00"/>
</linearGradient>
<linearGradient id="paint1_linear" x1="219.597" y1="23.1131" x2="270.685" y2="8.17939" gradientUnits="userSpaceOnUse">
<stop offset="0.29" stop-color="#EA8045"/>
<stop offset="0.34" stop-color="#EA7F45"/>
<stop offset="0.59" stop-color="#F97228"/>
<stop offset="0.75" stop-color="#ED2980"/>
<stop offset="0.78" stop-color="#DF287E"/>
<stop offset="0.83" stop-color="#BA257A"/>
<stop offset="0.9" stop-color="#7F2174"/>
<stop offset="0.98" stop-color="#2D1A6B"/>
<stop offset="1" stop-color="#1D1969"/>
</linearGradient>
<radialGradient id="paint2_radial" cx="0" cy="0" r="1" gradientUnits="userSpaceOnUse" gradientTransform="translate(10681.3 11448.7) rotate(-20.8933) scale(530.4 493.686)">
<stop offset="0.05" stop-color="#F3A400"/>
<stop offset="0.41" stop-color="#F3A301" stop-opacity="0.99"/>
<stop offset="0.54" stop-color="#F3A007" stop-opacity="0.96"/>
<stop offset="0.63" stop-color="#F29A10" stop-opacity="0.92"/>
<stop offset="0.7" stop-color="#F2911C" stop-opacity="0.85"/>
<stop offset="0.77" stop-color="#F1862D" stop-opacity="0.76"/>
<stop offset="0.82" stop-color="#F17842" stop-opacity="0.64"/>
<stop offset="0.87" stop-color="#F0685A" stop-opacity="0.51"/>
<stop offset="0.92" stop-color="#EE5577" stop-opacity="0.35"/>
<stop offset="0.96" stop-color="#ED4096" stop-opacity="0.19"/>
<stop offset="1" stop-color="#EC29B8" stop-opacity="0"/>
</radialGradient>
<radialGradient id="paint3_radial" cx="0" cy="0" r="1" gradientUnits="userSpaceOnUse" gradientTransform="translate(8968.37 5893.73) rotate(-36.1658) scale(588.029 590.061)">
<stop stop-color="#FF0077"/>
<stop offset="0.14" stop-color="#FA0379"/>
<stop offset="0.31" stop-color="#EC0A80"/>
<stop offset="0.49" stop-color="#D4178A"/>
<stop offset="0.67" stop-color="#B32999"/>
<stop offset="0.87" stop-color="#8840AC"/>
<stop offset="0.9" stop-color="#8144AF"/>
</radialGradient>
<radialGradient id="paint4_radial" cx="0" cy="0" r="1" gradientUnits="userSpaceOnUse" gradientTransform="translate(1804.68 147.219) rotate(-68.8773) scale(1.57135 4.25787)">
<stop stop-color="#FF0077"/>
<stop offset="0.14" stop-color="#FA0379"/>
<stop offset="0.31" stop-color="#EC0A80"/>
<stop offset="0.49" stop-color="#D4178A"/>
<stop offset="0.67" stop-color="#B32999"/>
<stop offset="0.87" stop-color="#8840AC"/>
<stop offset="0.9" stop-color="#8144AF"/>
</radialGradient>
<radialGradient id="paint5_radial" cx="0" cy="0" r="1" gradientUnits="userSpaceOnUse" gradientTransform="translate(693.331 329.941) rotate(-14.4585) scale(3.17241 1.497)">
<stop stop-color="#FF0077"/>
<stop offset="0.14" stop-color="#FA0379"/>
<stop offset="0.31" stop-color="#EC0A80"/>
<stop offset="0.49" stop-color="#D4178A"/>
<stop offset="0.67" stop-color="#B32999"/>
<stop offset="0.87" stop-color="#8840AC"/>
<stop offset="0.9" stop-color="#8144AF"/>
</radialGradient>
<linearGradient id="paint6_linear" x1="-60.6508" y1="552.802" x2="82.2488" y2="511.03" gradientUnits="userSpaceOnUse">
<stop offset="0.29" stop-color="#EA8045"/>
<stop offset="0.34" stop-color="#EA7F45"/>
<stop offset="0.59" stop-color="#F97228"/>
<stop offset="0.75" stop-color="#ED2980"/>
<stop offset="0.78" stop-color="#DF287E"/>
<stop offset="0.83" stop-color="#BA257A"/>
<stop offset="0.9" stop-color="#7F2174"/>
<stop offset="0.98" stop-color="#2D1A6B"/>
<stop offset="1" stop-color="#1D1969"/>
</linearGradient>
<radialGradient id="paint7_radial" cx="0" cy="0" r="1" gradientUnits="userSpaceOnUse" gradientTransform="translate(29202.1 32511.7) rotate(-20.8933) scale(1483.6 1380.9)">
<stop offset="0.05" stop-color="#F3A400"/>
<stop offset="0.41" stop-color="#F3A301" stop-opacity="0.99"/>
<stop offset="0.54" stop-color="#F3A007" stop-opacity="0.96"/>
<stop offset="0.63" stop-color="#F29A10" stop-opacity="0.92"/>
<stop offset="0.7" stop-color="#F2911C" stop-opacity="0.85"/>
<stop offset="0.77" stop-color="#F1862D" stop-opacity="0.76"/>
<stop offset="0.82" stop-color="#F17842" stop-opacity="0.64"/>
<stop offset="0.87" stop-color="#F0685A" stop-opacity="0.51"/>
<stop offset="0.92" stop-color="#EE5577" stop-opacity="0.35"/>
<stop offset="0.96" stop-color="#ED4096" stop-opacity="0.19"/>
<stop offset="1" stop-color="#EC29B8" stop-opacity="0"/>
</radialGradient>
<radialGradient id="paint8_radial" cx="0" cy="0" r="1" gradientUnits="userSpaceOnUse" gradientTransform="translate(24410.8 16973.7) rotate(-36.1658) scale(1644.79 1650.48)">
<stop stop-color="#FF0077"/>
<stop offset="0.14" stop-color="#FA0379"/>
<stop offset="0.31" stop-color="#EC0A80"/>
<stop offset="0.49" stop-color="#D4178A"/>
<stop offset="0.67" stop-color="#B32999"/>
<stop offset="0.87" stop-color="#8840AC"/>
<stop offset="0.9" stop-color="#8144AF"/>
</radialGradient>
<radialGradient id="paint9_radial" cx="0" cy="0" r="1" gradientUnits="userSpaceOnUse" gradientTransform="translate(4373.03 899.943) rotate(-68.8773) scale(4.39527 11.9098)">
<stop stop-color="#FF0077"/>
<stop offset="0.14" stop-color="#FA0379"/>
<stop offset="0.31" stop-color="#EC0A80"/>
<stop offset="0.49" stop-color="#D4178A"/>
<stop offset="0.67" stop-color="#B32999"/>
<stop offset="0.87" stop-color="#8840AC"/>
<stop offset="0.9" stop-color="#8144AF"/>
</radialGradient>
<radialGradient id="paint10_radial" cx="0" cy="0" r="1" gradientUnits="userSpaceOnUse" gradientTransform="translate(1264.44 1411.04) rotate(-14.4585) scale(8.87363 4.1873)">
<stop stop-color="#FF0077"/>
<stop offset="0.14" stop-color="#FA0379"/>
<stop offset="0.31" stop-color="#EC0A80"/>
<stop offset="0.49" stop-color="#D4178A"/>
<stop offset="0.67" stop-color="#B32999"/>
<stop offset="0.87" stop-color="#8840AC"/>
<stop offset="0.9" stop-color="#8144AF"/>
</radialGradient>
</defs>
</svg>
