<svg id="Layer_1" data-name="Layer 1" xmlns="http://www.w3.org/2000/svg" xmlns:xlink="http://www.w3.org/1999/xlink" viewBox="0 0 54 54"><defs><style>.cls-1,.cls-2,.cls-3,.cls-4,.cls-5,.cls-6,.cls-7,.cls-8,.cls-9{stroke-miterlimit:10;}.cls-1{fill:url(#linear-gradient);stroke:url(#linear-gradient-2);}.cls-2{fill:url(#linear-gradient-3);stroke:url(#linear-gradient-4);}.cls-3{fill:url(#linear-gradient-5);stroke:url(#linear-gradient-6);}.cls-4{fill:url(#linear-gradient-7);stroke:url(#linear-gradient-8);}.cls-5{fill:url(#linear-gradient-9);stroke:url(#linear-gradient-10);}.cls-6{fill:url(#linear-gradient-11);stroke:url(#linear-gradient-12);}.cls-7{fill:url(#linear-gradient-13);stroke:url(#linear-gradient-14);}.cls-8{fill:url(#linear-gradient-15);stroke:url(#linear-gradient-16);}.cls-9{fill:url(#linear-gradient-17);stroke:url(#linear-gradient-18);}</style><linearGradient id="linear-gradient" x1="0.55" y1="27.55" x2="53.57" y2="27.55" gradientUnits="userSpaceOnUse"><stop offset="0" stop-color="#fff"/><stop offset="1" stop-color="#fff"/></linearGradient><linearGradient id="linear-gradient-2" x1="-0.18" y1="27.55" x2="54.3" y2="27.55" xlink:href="#linear-gradient"/><linearGradient id="linear-gradient-3" x1="24.14" y1="20.79" x2="29.96" y2="20.79" xlink:href="#linear-gradient"/><linearGradient id="linear-gradient-4" x1="23.64" y1="20.79" x2="30.46" y2="20.79" xlink:href="#linear-gradient"/><linearGradient id="linear-gradient-5" x1="29.32" y1="37.65" x2="31.6" y2="37.65" xlink:href="#linear-gradient"/><linearGradient id="linear-gradient-6" x1="28.59" y1="37.65" x2="32.1" y2="37.65" xlink:href="#linear-gradient"/><linearGradient id="linear-gradient-7" x1="21.38" y1="37.65" x2="23.63" y2="37.65" xlink:href="#linear-gradient"/><linearGradient id="linear-gradient-8" x1="20.88" y1="37.65" x2="24.13" y2="37.65" xlink:href="#linear-gradient"/><linearGradient id="linear-gradient-9" x1="15.78" y1="33.17" x2="18.08" y2="33.17" xlink:href="#linear-gradient"/><linearGradient id="linear-gradient-10" x1="15.28" y1="33.16" x2="18.58" y2="33.16" xlink:href="#linear-gradient"/><linearGradient id="linear-gradient-11" x1="39.43" y1="33.16" x2="41.64" y2="33.16" xlink:href="#linear-gradient"/><linearGradient id="linear-gradient-12" x1="38.93" y1="33.16" x2="42.14" y2="33.16" xlink:href="#linear-gradient"/><linearGradient id="linear-gradient-13" x1="25.4" y1="37.65" x2="27.6" y2="37.65" xlink:href="#linear-gradient"/><linearGradient id="linear-gradient-14" x1="24.9" y1="37.65" x2="28.1" y2="37.65" xlink:href="#linear-gradient"/><linearGradient id="linear-gradient-15" x1="11.84" y1="33.2" x2="14.06" y2="33.2" xlink:href="#linear-gradient"/><linearGradient id="linear-gradient-16" x1="11.34" y1="33.21" x2="14.56" y2="33.21" xlink:href="#linear-gradient"/><linearGradient id="linear-gradient-17" x1="35.46" y1="33.17" x2="37.64" y2="33.17" xlink:href="#linear-gradient"/><linearGradient id="linear-gradient-18" x1="34.96" y1="33.17" x2="38.14" y2="33.17" xlink:href="#linear-gradient"/></defs><path class="cls-1" d="M12.3,27.54c-.37-.18-.57-.3-.79-.4-3.38-1.47-6.76-2.93-10.13-4.42A3.69,3.69,0,0,1,.55,22c.28-.28.51-.68.85-.83q12.47-5.46,25-10.85a2,2,0,0,1,1.41,0q12.5,5.39,25,10.85a3.33,3.33,0,0,1,.84.76c-.28.28-.51.67-.85.82-3.36,1.5-6.75,3-10.12,4.43-.22.09-.42.22-.78.41.37.18.57.3.79.4,3.38,1.47,6.76,2.93,10.13,4.43a3.47,3.47,0,0,1,.83.76c-.28.28-.51.67-.85.82q-12.47,5.46-25,10.85a2,2,0,0,1-1.41,0Q13.85,39.43,1.39,34c-.33-.15-.56-.51-.84-.77.28-.28.51-.67.85-.82,3.36-1.5,6.75-3,10.12-4.43C11.74,27.86,11.94,27.73,12.3,27.54ZM3,21.91c.44.22.65.34.87.44q11.33,4.92,22.67,9.83a1.52,1.52,0,0,0,1,0Q39,27.27,50.32,22.32c.21-.09.4-.23.74-.42-.43-.21-.69-.35-1-.46q-11.19-4.87-22.41-9.72a1.71,1.71,0,0,0-1.26,0c-7,3-14.07,6.09-21.1,9.14Zm47.9,11.4,0-.23c-.23-.12-.46-.25-.7-.35-3.15-1.37-6.31-2.72-9.44-4.12a1.91,1.91,0,0,0-1.7,0c-3.76,1.66-7.53,3.3-11.28,5a1.68,1.68,0,0,1-1.5,0q-5.77-2.54-11.58-5a1.6,1.6,0,0,0-1.12,0C10.27,30,7,31.4,3.67,32.84a5.8,5.8,0,0,0-.59.38l1.34.62q10.82,4.69,21.64,9.42a2.2,2.2,0,0,0,2,0c5.85-2.58,11.71-5.11,17.57-7.66C47.37,34.86,49.13,34.08,50.89,33.31Z"/><path class="cls-2" d="M25.85,24.65h2.82c.25,0,.55-.07.74,0s.5.41.5.62-.31.59-.5.59c-1.55.05-3.11.06-4.66,0-.57,0-.71-.52-.56-.94a8.19,8.19,0,0,1,1-2.16c.9-1.2,1.93-2.31,2.91-3.44.4-.46.71-.93.35-1.55A1.5,1.5,0,0,0,27,17a1.49,1.49,0,0,0-1.39,1.09c-.05.16,0,.39-.13.5a6,6,0,0,1-.73.58c-.18-.26-.51-.51-.53-.77a2.89,2.89,0,0,1,3-2.77,2.86,2.86,0,0,1,2.71,3.08,3.65,3.65,0,0,1-.8,1.5c-.84,1-1.75,2-2.61,3a11.74,11.74,0,0,0-.78,1.16Z"/><path class="cls-3" d="M30.46,38.3c-.15,0-.34.06-.44,0a7,7,0,0,1-.7-.63A3.23,3.23,0,0,1,30,37a1.87,1.87,0,0,1,.82,0c.46,0,.85.21.74.69,0,.25-.47.43-.75.61-.09.06-.25,0-.37,0Z"/><path class="cls-4" d="M22.49,38.3c-.17,0-.39.07-.51,0s-.6-.41-.6-.61.32-.54.57-.65a2.38,2.38,0,0,1,.89,0c.46,0,.79.2.79.7s-.33.62-.76.62h-.38Z"/><path class="cls-5" d="M17,32.47a2.84,2.84,0,0,1,.68.12.59.59,0,0,1,.24,1,1.8,1.8,0,0,1-2,0,.59.59,0,0,1,.3-1A3,3,0,0,1,17,32.47Z"/><path class="cls-6" d="M40.53,33.84a1.45,1.45,0,0,1-.62-.07c-.21-.12-.49-.37-.48-.55a.88.88,0,0,1,.46-.64,2.33,2.33,0,0,1,1.17,0,.92.92,0,0,1,.58.62c0,.21-.33.46-.56.63S40.74,33.83,40.53,33.84Z"/><path class="cls-7" d="M26.48,38.3c-.18,0-.39.06-.52,0s-.57-.37-.56-.55a1,1,0,0,1,.5-.69,2.4,2.4,0,0,1,1,0c.44,0,.72.2.73.67s-.31.65-.75.64h-.37Z"/><path class="cls-8" d="M13,33.86a1.86,1.86,0,0,1-.71-.12.81.81,0,0,1-.4-.55c0-.2.2-.54.36-.57a4.53,4.53,0,0,1,1.47,0c.17,0,.38.39.39.61s-.23.42-.43.53A2,2,0,0,1,13,33.86Z"/><path class="cls-9" d="M36.55,33.84c-.2,0-.46,0-.58-.06s-.52-.47-.5-.69c.05-.66.62-.59,1.09-.59s1,0,1.08.6c0,.22-.29.51-.51.68S36.75,33.83,36.55,33.84Z"/></svg>