<svg width="25" height="25" viewBox="0 0 25 25" fill="none" xmlns="http://www.w3.org/2000/svg">
<g clip-path="url(#clip0)">
<path d="M23.0052 4.92956L25 3.02122V2.60352H18.0896L13.1646 14.8619L7.56146 2.60352H0.315625V3.02122L2.64583 5.82643C2.87292 6.03372 2.99167 6.33685 2.96146 6.64206V17.666C3.03333 18.0629 2.90417 18.4712 2.625 18.7598L0 21.941V22.3535H7.44271V21.9358L4.81771 18.7598C4.53333 18.4702 4.39896 18.0691 4.45625 17.666V8.1306L10.9896 22.3587H11.749L17.3667 8.1306V19.465C17.3667 19.7639 17.3667 19.8254 17.1708 20.0212L15.15 21.9764V22.3952H24.9542V21.9775L23.0063 20.0702C22.8354 19.941 22.7469 19.7244 22.7833 19.5139V5.48581C22.7469 5.27435 22.8344 5.05768 23.0052 4.92956Z" fill="url(#paint0_linear)"/>
</g>
<defs>
<linearGradient id="paint0_linear" x1="1.82292" y1="2.60352" x2="40.6513" y2="18.7247" gradientUnits="userSpaceOnUse">
<stop stop-color="#7060D7"/>
<stop offset="0.403813" stop-color="#E93C5A"/>
<stop offset="0.800155" stop-color="#FF9E00"/>
</linearGradient>
<clipPath id="clip0">
<rect width="25" height="25" fill="white"/>
</clipPath>
</defs>
</svg>
