<svg width="276" height="236" viewBox="0 0 276 236" fill="none" xmlns="http://www.w3.org/2000/svg">
<line y1="-0.5" x2="251.157" y2="-0.5" transform="matrix(0.869623 -0.493716 0.488316 0.872667 23.832 125)" stroke="white" stroke-opacity="0.31"/>
<line y1="-0.5" x2="314.697" y2="-0.5" transform="matrix(0.873857 -0.486182 0.480813 0.876823 1 209)" stroke="white" stroke-opacity="0.31"/>
<line y1="-0.5" x2="216.998" y2="-0.5" transform="matrix(0.864688 -0.502309 0.496876 0.867822 88.3633 236)" stroke="white" stroke-opacity="0.31"/>
<path d="M87.8649 37C87.8649 41.1456 84.5295 44.5 80.4227 44.5C76.3159 44.5 72.9805 41.1456 72.9805 37C72.9805 32.8544 76.3159 29.5 80.4227 29.5C84.5295 29.5 87.8649 32.8544 87.8649 37Z" stroke="white" stroke-opacity="0.56"/>
<ellipse opacity="0.13" cx="196.579" cy="218" rx="7.94224" ry="8" fill="white"/>
<ellipse opacity="0.13" cx="33.7622" cy="33" rx="13.8989" ry="14" fill="white"/>
<path d="M257.63 162.5C257.63 164.713 255.851 166.5 253.663 166.5C251.475 166.5 249.695 164.713 249.695 162.5C249.695 160.287 251.475 158.5 253.663 158.5C255.851 158.5 257.63 160.287 257.63 162.5Z" stroke="white" stroke-opacity="0.56"/>
<path d="M14.3987 156.5C14.3987 158.16 13.0634 159.5 11.4239 159.5C9.78446 159.5 8.44922 158.16 8.44922 156.5C8.44922 154.84 9.78446 153.5 11.4239 153.5C13.0634 153.5 14.3987 154.84 14.3987 156.5Z" stroke="white" stroke-opacity="0.56"/>
<path d="M98 82L162.086 119V193L98 230L33.9141 193V119L98 82Z" fill="#AACED6"/>
<path fill-rule="evenodd" clip-rule="evenodd" d="M86.4641 129.569C87.9458 122.698 94.0101 118 100.764 118C101.771 118 102.788 118.103 103.959 118.328H103.968H103.985C103.994 118.336 104.003 118.336 104.011 118.336H104.02H104.028H104.037H104.046H104.054H104.063H104.071H104.08H104.089H104.097H104.106H104.115H104.123C104.132 118.345 104.14 118.345 104.149 118.345H104.158C104.166 118.353 104.175 118.353 104.183 118.353H104.192C104.201 118.362 104.209 118.362 104.218 118.362H104.227C104.235 118.371 104.244 118.371 104.252 118.371C104.257 118.371 104.263 118.373 104.27 118.375C104.276 118.377 104.283 118.379 104.287 118.379C104.291 118.379 104.298 118.381 104.304 118.384C104.311 118.386 104.317 118.388 104.321 118.388C104.326 118.388 104.332 118.39 104.339 118.392C104.345 118.394 104.351 118.397 104.356 118.397C105.45 118.664 106.492 119.043 107.465 119.534C107.472 119.538 107.477 119.54 107.482 119.542C107.489 119.544 107.495 119.546 107.5 119.552C107.521 119.56 107.541 119.571 107.56 119.582C107.58 119.593 107.599 119.603 107.621 119.612C107.621 119.612 107.629 119.621 107.638 119.621C107.651 119.634 107.669 119.642 107.685 119.649L107.685 119.649C107.689 119.651 107.694 119.653 107.698 119.655C107.711 119.668 107.729 119.676 107.745 119.683C107.75 119.686 107.754 119.688 107.758 119.69C107.763 119.69 107.765 119.692 107.767 119.694C107.769 119.696 107.771 119.698 107.776 119.698C107.776 119.707 107.784 119.707 107.784 119.707C107.788 119.707 107.791 119.709 107.793 119.711C107.795 119.713 107.797 119.716 107.801 119.716C107.801 119.724 107.81 119.724 107.81 119.724C107.814 119.724 107.816 119.726 107.819 119.728C107.821 119.731 107.823 119.733 107.827 119.733C107.832 119.737 107.836 119.739 107.84 119.741C107.844 119.744 107.849 119.746 107.853 119.75C107.853 119.759 107.862 119.759 107.862 119.759C107.862 119.759 107.87 119.767 107.879 119.767C107.883 119.767 107.885 119.769 107.888 119.772C107.89 119.774 107.892 119.776 107.896 119.776C107.896 119.784 107.905 119.784 107.905 119.784C107.909 119.784 107.911 119.787 107.913 119.789C107.916 119.791 107.918 119.793 107.922 119.793C107.922 119.802 107.931 119.802 107.931 119.802C107.935 119.802 107.937 119.804 107.939 119.806C107.941 119.808 107.944 119.81 107.948 119.81C107.948 119.819 107.956 119.819 107.956 119.819C107.961 119.819 107.963 119.821 107.965 119.823C107.967 119.825 107.969 119.828 107.974 119.828C107.974 119.836 107.982 119.836 107.982 119.836C107.987 119.836 107.989 119.838 107.991 119.841C107.993 119.843 107.995 119.845 108 119.845C108 119.853 108.008 119.853 108.008 119.853C108.012 119.853 108.015 119.856 108.017 119.858C108.019 119.86 108.021 119.862 108.025 119.862C108.025 119.871 108.034 119.871 108.034 119.871C108.034 119.879 108.043 119.879 108.043 119.879C108.043 119.888 108.051 119.888 108.051 119.888C108.056 119.888 108.058 119.89 108.06 119.892C108.062 119.894 108.064 119.897 108.068 119.897C108.068 119.905 108.077 119.905 108.077 119.905C108.081 119.905 108.084 119.907 108.086 119.909C108.088 119.912 108.09 119.914 108.094 119.914C108.094 119.922 108.103 119.922 108.103 119.922C108.107 119.922 108.109 119.925 108.112 119.927C108.114 119.929 108.116 119.931 108.12 119.931C108.12 119.94 108.129 119.94 108.129 119.94C108.133 119.94 108.135 119.942 108.137 119.944C108.14 119.946 108.142 119.948 108.146 119.948C108.146 119.957 108.155 119.957 108.155 119.957C108.159 119.957 108.161 119.959 108.163 119.961C108.165 119.963 108.168 119.966 108.172 119.966C108.172 119.974 108.18 119.974 108.18 119.974C108.18 119.983 108.189 119.983 108.189 119.983C108.189 119.991 108.198 119.991 108.198 119.991C108.198 120 108.206 120 108.206 120C108.206 120.009 108.215 120.009 108.215 120.009C108.215 120.017 108.223 120.017 108.223 120.017C108.228 120.017 108.23 120.019 108.232 120.022C108.234 120.024 108.236 120.026 108.241 120.026C108.241 120.034 108.249 120.034 108.249 120.034C108.254 120.034 108.256 120.037 108.258 120.039C108.26 120.041 108.262 120.043 108.267 120.043C108.267 120.052 108.275 120.052 108.275 120.052C108.279 120.052 108.282 120.054 108.284 120.056C108.286 120.058 108.288 120.06 108.292 120.06C108.292 120.069 108.301 120.069 108.301 120.069C108.305 120.069 108.307 120.071 108.31 120.073C108.312 120.075 108.314 120.078 108.318 120.078C108.318 120.086 108.327 120.086 108.327 120.086C108.331 120.086 108.333 120.088 108.335 120.091C108.338 120.093 108.34 120.095 108.344 120.095C108.344 120.103 108.353 120.103 108.353 120.103C108.357 120.103 108.359 120.106 108.361 120.108C108.363 120.11 108.366 120.112 108.37 120.112C108.374 120.116 108.379 120.119 108.383 120.121C108.387 120.123 108.391 120.125 108.396 120.129C108.4 120.129 108.402 120.131 108.404 120.134C108.407 120.136 108.409 120.138 108.413 120.138C108.413 120.147 108.422 120.147 108.422 120.147C108.426 120.151 108.43 120.153 108.435 120.155C108.439 120.157 108.443 120.159 108.447 120.164C108.452 120.164 108.454 120.166 108.456 120.168C108.458 120.17 108.46 120.172 108.465 120.172C108.465 120.181 108.473 120.181 108.473 120.181C108.478 120.181 108.48 120.183 108.482 120.185C108.484 120.188 108.486 120.19 108.491 120.19C108.491 120.198 108.499 120.198 108.499 120.198C108.503 120.198 108.506 120.2 108.508 120.203C108.51 120.205 108.512 120.207 108.516 120.207C108.516 120.216 108.525 120.216 108.525 120.216C108.525 120.224 108.534 120.224 108.534 120.224C108.534 120.233 108.542 120.233 108.542 120.233C108.542 120.241 108.551 120.241 108.551 120.241C108.555 120.241 108.557 120.244 108.559 120.246C108.562 120.248 108.564 120.25 108.568 120.25C108.572 120.254 108.577 120.256 108.581 120.259C108.585 120.261 108.59 120.263 108.594 120.267C108.598 120.267 108.6 120.269 108.603 120.272C108.605 120.274 108.607 120.276 108.611 120.276C108.611 120.284 108.62 120.284 108.62 120.284C108.624 120.284 108.626 120.287 108.628 120.289C108.631 120.291 108.633 120.293 108.637 120.293C108.637 120.302 108.646 120.302 108.646 120.302C108.65 120.302 108.652 120.304 108.654 120.306C108.656 120.308 108.659 120.31 108.663 120.31C108.663 120.319 108.671 120.319 108.671 120.319C108.676 120.319 108.678 120.321 108.68 120.323C108.682 120.325 108.684 120.328 108.689 120.328C108.705 120.333 108.718 120.342 108.729 120.35C108.736 120.354 108.743 120.359 108.749 120.362L108.826 120.414C108.835 120.418 108.844 120.425 108.852 120.431C108.861 120.437 108.87 120.444 108.878 120.448C109.326 120.741 109.748 121.06 110.153 121.397C110.704 121.853 110.773 122.664 110.317 123.216C110.067 123.526 109.697 123.681 109.326 123.681C109.033 123.681 108.74 123.578 108.499 123.379C106.992 122.129 105.252 121.276 103.322 120.862C102.478 120.681 101.616 120.586 100.764 120.586C95.13 120.586 90.1854 124.595 88.833 130.328C88.1525 133.474 88.7383 136.707 90.4869 139.414C92.227 142.129 94.9232 143.991 98.076 144.672C98.9202 144.853 99.7816 144.948 100.634 144.948C106.268 144.948 111.221 140.94 112.41 135.422C112.789 133.655 112.772 131.879 112.367 130.138C112.203 129.448 112.634 128.75 113.332 128.586C113.426 128.56 113.53 128.552 113.625 128.552C114.21 128.552 114.744 128.948 114.882 129.543C115.063 130.302 115.184 131.078 115.235 131.871V131.914V131.922V131.931V131.966V131.974V131.983V132.017V132.026V132.034V132.043V132.06V132.069V132.078V132.086V132.095V132.103V132.112V132.121V132.129V132.138V132.147V132.155V132.164V132.172V132.181V132.19V132.198V132.207V132.216V132.224V132.233V132.241V132.25V132.259V132.267V132.276V132.284V132.293V132.302V132.31V132.319V132.328V132.336V132.345V132.353V132.362V132.371V132.379V132.388V132.397V132.405V132.414V132.422V132.431V132.44V132.448V132.457V132.466V132.474V132.483V132.491V132.5V132.509V132.517V132.526V132.534V132.543V132.552V132.56V132.569V132.578V132.586V132.595V132.603V132.612V132.621V132.629V132.638V132.647V132.655V132.664V132.672V132.681V132.69V132.698V132.707V132.716V132.724V132.733V132.741V132.75V132.759V132.767V132.776V132.784V132.793V132.802V132.81V132.819V132.828V132.836V132.845V132.853V132.871V132.879V132.888V132.897V132.914V132.922V132.931V132.94V132.957V132.966V132.974V132.983V133V133.009V133.017V133.026V133.06V133.069V133.078V133.112V133.121V133.181V133.19V133.233V133.241V133.284V133.345V133.353V133.397V133.405V133.466C115.218 133.776 115.192 134.086 115.158 134.405C115.158 134.459 115.151 134.505 115.144 134.557L115.141 134.578V134.586V134.595C115.132 134.612 115.132 134.621 115.132 134.638C115.132 134.652 115.129 134.664 115.127 134.674L115.127 134.674L115.125 134.685L115.124 134.691L115.124 134.695L115.123 134.698C115.123 134.712 115.121 134.724 115.118 134.735L115.118 134.735C115.117 134.743 115.115 134.751 115.115 134.759C115.106 134.776 115.106 134.784 115.106 134.802V134.81V134.819C115.098 134.836 115.098 134.845 115.098 134.853V134.862V134.871C115.089 134.888 115.089 134.897 115.089 134.905V134.914V134.922V134.931V134.948V134.957V134.966V134.974V134.983V134.991V135V135.009V135.017V135.034V135.043V135.052V135.06V135.069V135.078V135.086V135.095V135.103V135.112V135.121V135.129V135.138V135.147V135.155V135.164V135.172V135.181V135.19V135.198V135.207V135.216V135.224V135.233V135.241V135.25V135.259V135.267V135.276V135.284V135.293V135.302V135.31V135.319V135.328V135.336V135.345V135.353V135.362V135.371V135.379V135.388V135.397V135.405V135.414V135.422V135.431V135.44V135.448V135.457V135.466V135.474V135.483V135.491V135.5V135.509V135.517V135.526V135.534V135.543V135.552V135.56V135.569V135.578V135.586V135.595V135.603V135.612V135.621V135.629V135.638V135.647V135.655V135.664V135.672V135.681V135.69V135.698V135.707V135.716V135.724V135.733V135.741V135.75V135.759C113.607 142.629 107.534 147.328 100.789 147.328C99.7644 147.328 98.7307 147.216 97.6884 146.991C94.2685 146.25 91.3914 144.379 89.3585 141.845C88.7813 141.112 88.2645 140.336 87.8338 139.517C86.2746 136.578 85.7061 133.095 86.4555 129.595C86.4641 129.586 86.4641 129.578 86.4641 129.569ZM73.4308 184.069C72.1473 184.069 70.8897 183.69 69.8129 182.983C66.7893 180.983 65.9624 176.905 67.9608 173.879C69.9593 170.845 74.0338 170.017 77.0574 172.017L86.3607 162.724C85.1203 160.853 84.9221 158.483 85.8352 156.431C87.3083 153.121 91.1932 151.629 94.5011 153.103C97.8089 154.578 99.2992 158.457 97.8261 161.776L105.501 167.681C105.519 167.655 105.536 167.629 105.562 167.603C107.767 165.397 111.221 165.043 113.823 166.767L123.109 157.466C121.653 155.259 121.653 152.397 123.109 150.19C125.116 147.147 129.199 146.319 132.231 148.328C135.272 150.336 136.099 154.422 134.092 157.457C132.085 160.5 128.002 161.328 124.969 159.319L115.675 168.621C116.855 170.397 117.105 172.629 116.338 174.612C115.037 178 111.238 179.69 107.853 178.388C104.468 177.086 102.779 173.284 104.08 169.897L96.2928 163.905C95.3625 164.767 94.2082 165.353 92.9591 165.569C92.5801 165.638 92.1925 165.672 91.8048 165.672C90.5213 165.672 89.2723 165.293 88.2041 164.578L78.9094 173.879C79.6158 174.948 79.9948 176.216 79.9948 177.5C79.9948 181.129 77.0574 184.069 73.4308 184.069ZM132.524 153.845C132.524 151.672 130.767 149.905 128.587 149.905C126.417 149.905 124.651 151.672 124.651 153.845C124.651 156.017 126.408 157.784 128.587 157.784C130.758 157.784 132.524 156.026 132.524 153.845ZM110.205 168.302C109.154 168.302 108.155 168.716 107.414 169.457C105.88 171 105.88 173.491 107.414 175.034C108.973 176.526 111.428 176.526 112.987 175.034C113.728 174.293 114.141 173.284 114.141 172.241C114.141 170.069 112.384 168.302 110.205 168.302ZM91.1329 155.224C90.1079 155.405 89.1861 155.983 88.5918 156.845C87.3427 158.629 87.782 161.086 89.5479 162.336C91.3311 163.586 93.7861 163.155 95.0352 161.371C96.2842 159.586 95.8535 157.129 94.0704 155.879C93.4157 155.414 92.6318 155.164 91.8221 155.164C91.5895 155.164 91.3655 155.181 91.1329 155.224ZM76.2218 174.716C74.6799 173.172 72.1904 173.172 70.6485 174.716C69.1151 176.259 69.1151 178.75 70.6485 180.293C72.2076 181.784 74.6627 181.784 76.2218 180.293C77.7638 178.75 77.7638 176.259 76.2218 174.716ZM98.6946 137.862L98.679 137.871H98.903C99.1442 137.871 99.3768 137.862 99.6093 137.853L99.583 137.839C99.362 137.854 99.1407 137.862 98.9116 137.862H98.6946ZM103.925 133.155C104.227 133.388 104.451 133.672 104.597 134C104.735 134.328 104.812 134.716 104.812 135.138C104.812 136.164 104.442 137.026 103.71 137.724C103.227 138.19 102.598 138.5 101.823 138.655V139.94C101.823 140.397 101.444 140.776 100.988 140.776C100.531 140.776 100.152 140.397 100.152 139.94V138.776C99.4112 138.741 98.791 138.612 98.2828 138.379C97.697 138.121 97.2232 137.75 96.8787 137.276C96.5255 136.81 96.3532 136.267 96.3532 135.647V135.612H98.1622V135.647C98.1622 136.112 98.3431 136.509 98.6963 136.81C99.058 137.121 99.6524 137.276 100.497 137.276C101.237 137.276 101.84 137.095 102.297 136.733C102.754 136.371 102.986 135.94 102.986 135.448C102.986 134.784 102.538 134.31 101.634 134.034L100.721 133.75L100.109 133.56L98.8599 133.172C97.43 132.647 96.7236 131.767 96.7236 130.552C96.7236 129.698 97.0682 128.94 97.7573 128.293C98.2483 127.828 98.903 127.534 99.7386 127.405V125.733C99.7386 125.276 100.118 124.897 100.574 124.897C100.807 124.897 101.013 124.991 101.169 125.147C101.324 125.293 101.418 125.5 101.418 125.733V127.345C102.452 127.414 103.219 127.69 103.701 128.155C104.27 128.716 104.554 129.328 104.554 130V130.034H102.736V130C102.736 129.638 102.547 129.353 102.185 129.147C101.832 128.94 101.341 128.836 100.738 128.836C100.014 128.836 99.4629 128.983 99.0839 129.284C98.7049 129.586 98.5154 129.957 98.5154 130.397C98.5154 130.741 98.6359 131.017 98.8858 131.224C99.1356 131.44 99.549 131.629 100.135 131.793L101.005 132.034L101.634 132.224C102.504 132.474 103.055 132.655 103.27 132.759C103.486 132.862 103.701 132.991 103.925 133.155ZM65.4627 163.586L61.2074 159.328C60.7078 158.819 59.8894 158.819 59.3812 159.328C58.8729 159.828 58.8729 160.647 59.3812 161.155L65.7967 167.576C66.0329 167.836 66.3744 168 66.7548 168C66.7709 168 66.787 168 66.8029 167.999C66.8597 167.997 66.9166 167.991 66.9731 167.982C67.0437 167.994 67.1149 168 67.1856 168C67.5129 168 67.8489 167.879 68.0987 167.621L74.5593 161.155C75.0676 160.655 75.0676 159.836 74.5593 159.328C74.0597 158.819 73.2414 158.819 72.7331 159.328L68.047 164.017V141.707C68.047 140.991 67.4698 140.414 66.7548 140.414C66.0399 140.414 65.4627 140.991 65.4627 141.707V163.586ZM134.376 191.707C134.376 192.422 134.953 193 135.668 193C136.383 193 136.96 192.422 136.96 191.707V169.828L141.216 174.086C141.466 174.336 141.801 174.466 142.129 174.466C142.456 174.466 142.792 174.345 143.042 174.086C143.55 173.586 143.55 172.767 143.042 172.259L136.625 165.837C136.572 165.779 136.514 165.725 136.451 165.678C136.163 165.454 135.801 165.371 135.456 165.43C135.058 165.362 134.634 165.483 134.324 165.793L127.864 172.259C127.356 172.759 127.356 173.578 127.864 174.086C128.114 174.336 128.45 174.466 128.777 174.466C129.104 174.466 129.44 174.345 129.69 174.086L134.376 169.397V191.707Z" fill="white"/>
</svg>
