<svg id="Layer_1" data-name="Layer 1" xmlns="http://www.w3.org/2000/svg" xmlns:xlink="http://www.w3.org/1999/xlink" viewBox="0 0 54 54"><defs><style>.cls-1{fill:url(#linear-gradient);}.cls-2{fill:url(#linear-gradient-2);}.cls-3{fill:url(#linear-gradient-3);}.cls-4{fill:url(#linear-gradient-4);}.cls-5{fill:url(#linear-gradient-5);}</style><linearGradient id="linear-gradient" x1="0.48" y1="26.36" x2="53.06" y2="26.36" gradientUnits="userSpaceOnUse"><stop offset="0" stop-color="#fff"/><stop offset="1" stop-color="#fff"/></linearGradient><linearGradient id="linear-gradient-2" x1="15.15" y1="30.3" x2="38.54" y2="30.3" xlink:href="#linear-gradient"/><linearGradient id="linear-gradient-3" x1="22.88" y1="12.71" x2="31.68" y2="12.71" xlink:href="#linear-gradient"/><linearGradient id="linear-gradient-4" x1="4.22" y1="40.77" x2="13.01" y2="40.77" xlink:href="#linear-gradient"/><linearGradient id="linear-gradient-5" x1="40.84" y1="40.77" x2="49.63" y2="40.77" xlink:href="#linear-gradient"/></defs><path class="cls-1" d="M53.06,34.81c0-2.88-1.69-4.54-4.62-4.56h-1c-1.92,0-3.91,0-5.87,0a.88.88,0,0,1-.92-.51c-1.58-2.53-3.2-5-4.86-7.6l-.28-.44c-.77-1.14-1.18-1.83-.65-2.84a1.2,1.2,0,0,0,.11-.73V14.71C35,12,35,9.17,35,6.4A4.07,4.07,0,0,0,30.57,2c-2.13,0-4.3,0-6.39,0h-.83c-3.2,0-4.76,1.56-4.77,4.74,0,3,0,7,0,11a7.87,7.87,0,0,0,.1,1,7.83,7.83,0,0,1,.08.79v.22a2.24,2.24,0,0,1-.08.91c-1.06,1.72-2.17,3.45-3.24,5.12-.84,1.31-1.7,2.67-2.55,4a.87.87,0,0,1-.92.51c-2.34,0-4.77-.05-7.24,0A4.09,4.09,0,0,0,.51,34.45c0,3.8,0,7.74,0,12A4.12,4.12,0,0,0,4.84,50.7c2.26,0,4.66,0,7.33,0,3.16,0,4.71-1.58,4.74-4.76,0-.88,0-1.75,0-2.64v-.49H36.64v.68c0,1,0,1.91,0,2.84A4.14,4.14,0,0,0,41,50.7h7.57a4.15,4.15,0,0,0,4.44-4.48C53.07,42.76,53.07,39,53.06,34.81ZM51.61,46.23a2.7,2.7,0,0,1-3,3c-2.81,0-5.18,0-7.56,0a2.69,2.69,0,0,1-3-3c0-.92,0-1.84,0-2.82,0-.45,0-.92,0-1.4v-.72H15.47V45.9c0,2.42-.92,3.33-3.31,3.34-2.67,0-5.06,0-7.32,0A2.68,2.68,0,0,1,2,46.47c0-4.29,0-8.22,0-12A2.66,2.66,0,0,1,4.76,31.7c2.45,0,4.87,0,7.19,0a2.33,2.33,0,0,0,2.18-1.18c.84-1.34,1.7-2.69,2.54-4,1.07-1.68,2.18-3.41,3.25-5.14a3.06,3.06,0,0,0,.3-1.71v-.2a7.43,7.43,0,0,0-.09-1A5.84,5.84,0,0,1,20,17.7c0-4,0-7.94,0-10.93,0-2.4.9-3.3,3.32-3.31h.83c2.09,0,4.25,0,6.38,0a2.64,2.64,0,0,1,3,2.94c0,2.76,0,5.57,0,8.29,0,1.12,0,2.24,0,3.36,0,.07,0,.13,0,.2v0c-.89,1.77,0,3.13.77,4.23l.27.41c1.66,2.56,3.27,5.06,4.84,7.58a2.29,2.29,0,0,0,2.18,1.19c1.94,0,3.92,0,5.83,0h1c2.13,0,3.17,1,3.17,3.11C51.62,39,51.62,42.76,51.61,46.23Z"/><path class="cls-2" d="M37.07,29.84c-1.62-2.54-3.29-5.17-5-7.72a2.64,2.64,0,0,0-1.91-1.05c-2.22-.07-4.5-.07-6.77,0a2.57,2.57,0,0,0-1.92,1c-2.15,3.24-4.27,6.57-6,9.41A2.47,2.47,0,0,0,15.16,33c0,.37.09.74.15,1.09a7.61,7.61,0,0,1,.14,1.12c0,.82,0,1.63,0,2.49v1.85H37.59l.2-.36,0,0a.85.85,0,0,0,.16-.42l.12-1.18c.15-1.64.31-3.33.44-5a1.71,1.71,0,0,0-.39-1.09Zm-.42,7.62-.06.68H16.91v-.4c0-.88,0-1.71,0-2.56a10.72,10.72,0,0,0-.17-1.3c-.05-.34-.11-.66-.13-1a1.33,1.33,0,0,1,.06-.64c1.78-2.83,3.89-6.16,6-9.39a1.25,1.25,0,0,1,.76-.37c2.25-.07,4.5-.07,6.69,0a1.18,1.18,0,0,1,.74.4c1.69,2.55,3.36,5.17,5,7.71l1,1.57.08.13a2.29,2.29,0,0,1,.15.24C37,34.19,36.8,35.85,36.65,37.46Z"/><path class="cls-3" d="M30.09,6.59H24.47a1.59,1.59,0,0,0-1.59,1.59v9.05a1.59,1.59,0,0,0,1.59,1.59h5.62a1.59,1.59,0,0,0,1.59-1.59v-9A1.59,1.59,0,0,0,30.09,6.59Zm.28,10.19a.56.56,0,0,1-.56.56H24.75a.56.56,0,0,1-.56-.56V8.63a.56.56,0,0,1,.56-.56h5.06a.56.56,0,0,1,.56.56Z"/><path class="cls-4" d="M11.43,34.66H5.81a1.59,1.59,0,0,0-1.59,1.58V45.3a1.59,1.59,0,0,0,1.59,1.59h5.62A1.59,1.59,0,0,0,13,45.3V36.24A1.58,1.58,0,0,0,11.43,34.66ZM11.83,45a.58.58,0,0,1-.58.58H6A.58.58,0,0,1,5.41,45V36.54A.58.58,0,0,1,6,36h5.26a.58.58,0,0,1,.58.58Z"/><path class="cls-5" d="M48,34.66H42.42a1.58,1.58,0,0,0-1.58,1.58V45.3a1.59,1.59,0,0,0,1.58,1.59H48a1.59,1.59,0,0,0,1.59-1.59V36.24A1.59,1.59,0,0,0,48,34.66Zm.31,10.22a.57.57,0,0,1-.57.56h-5.1a.56.56,0,0,1-.56-.56V36.67a.56.56,0,0,1,.56-.57h5.1a.57.57,0,0,1,.57.57Z"/></svg>