<svg width="42" height="42" viewBox="0 0 42 42" fill="none" xmlns="http://www.w3.org/2000/svg">
<path d="M0 21C0 16.8466 1.23162 12.7865 3.53913 9.33304C5.84664 5.87961 9.1264 3.18798 12.9637 1.59854C16.8009 0.00910028 21.0233 -0.406771 25.0969 0.403518C29.1705 1.21381 32.9123 3.21386 35.8492 6.15076C38.7861 9.08767 40.7862 12.8295 41.5965 16.9031C42.4068 20.9767 41.9909 25.1991 40.4015 29.0363C38.812 32.8736 36.1204 36.1534 32.667 38.4609C29.2136 40.7684 25.1534 42 21 42C15.4304 42 10.089 39.7875 6.15077 35.8493C2.2125 31.911 0 26.5696 0 21Z" fill="url(#paint0_linear)"/>
<path d="M27.8937 32.9261L28.0559 32.8584L30.7761 31.2317L33.5821 29.5566C33.7318 29.4728 33.8672 29.3648 33.9829 29.2371C34.188 29.015 34.3213 28.7346 34.3647 28.4334C34.3647 28.2979 34.3647 21.6556 34.3647 21.5103C34.3129 21.1764 34.1632 20.866 33.9352 20.6195C33.7218 20.415 33.4807 20.2422 33.2194 20.1063L28.1132 17.0757C27.8989 16.977 27.6662 16.9259 27.4308 16.9259C27.1954 16.9259 26.9627 16.977 26.7484 17.0757C26.6625 17.0757 26.0803 17.4533 24.7918 18.2182L21.6613 20.087L18.5689 21.9267C17.6145 22.527 16.7269 23.0305 16.6601 23.0499C16.4444 23.161 16.2053 23.2175 15.9634 23.2145C15.7238 23.215 15.4866 23.1656 15.2666 23.0692C15.1617 23.0692 12.3079 21.336 12.1552 21.2198C12.0058 21.1045 11.8739 20.9675 11.7639 20.8132C11.6417 20.6241 11.5544 20.4142 11.5062 20.1935C11.4721 19.5484 11.4721 18.902 11.5062 18.257C11.4294 17.5053 11.4519 16.7466 11.573 16.0009C11.6357 15.8189 11.7224 15.6462 11.8307 15.4877C11.939 15.3375 12.0713 15.2066 12.222 15.1004C12.3365 15.0229 15.0853 13.3672 15.1712 13.2995C15.3927 13.196 15.6336 13.1425 15.8775 13.1425C16.1213 13.1425 16.3623 13.196 16.5838 13.2995C16.6792 13.3479 19.447 15.0036 19.657 15.1295C19.8592 15.2686 20.026 15.4545 20.1437 15.6717C20.2204 15.8048 20.2782 15.9482 20.3156 16.0977V16.243V17.4533C20.3156 18.1214 20.3156 18.6733 20.3156 18.6733L21.5849 17.9278L22.8352 17.1822V15.9719C22.8352 14.626 22.8352 14.6744 22.7493 14.4033C22.6333 14.0774 22.428 13.7919 22.1576 13.5803C22.0622 13.5125 16.8701 10.414 16.6219 10.2785L16.4215 10.1816H16.3356H15.3812L15.238 10.2397C15.133 10.2881 14.3981 10.7142 12.3747 11.9148C10.8763 12.8056 9.61643 13.5609 9.56871 13.5996C9.39647 13.7213 9.24963 13.8764 9.13662 14.0558C9.0236 14.2353 8.94664 14.4356 8.91016 14.6453C8.91016 14.7809 8.91016 14.8874 8.91016 18.1989C8.91016 21.5103 8.91016 21.6265 8.91016 21.7524C8.94686 21.9674 9.02819 22.172 9.14876 22.3527C9.27307 22.5336 9.42441 22.6936 9.59734 22.8272C9.72142 22.9046 15.0185 26.0709 15.1521 26.1386C15.3806 26.2475 15.6298 26.3038 15.8822 26.3038C16.1346 26.3038 16.3839 26.2475 16.6124 26.1386L18.5212 24.9864C20.077 24.0181 20.5637 23.7567 21.604 23.1661C22.6443 22.5754 22.9307 22.4108 24.6964 21.3167L26.6052 20.1257C27.0053 19.9395 27.4619 19.9221 27.8746 20.0773C27.9413 20.0944 28.0056 20.1204 28.0655 20.1547C28.18 20.2128 31.0529 21.9944 31.1388 22.0913C31.4649 22.3536 31.6827 22.73 31.7496 23.1467C31.7496 23.321 31.7496 26.9326 31.7496 27.1069C31.6818 27.5357 31.4525 27.921 31.1101 28.1817C31.0147 28.2494 28.2468 29.9342 28.0273 30.031C27.8096 30.1296 27.5738 30.1805 27.3354 30.1805C27.0969 30.1805 26.8611 30.1296 26.6434 30.031C26.567 30.031 26.0135 29.6631 25.0686 29.0628L23.532 28.0945C23.2581 27.8823 23.0522 27.5925 22.9402 27.2618C22.8639 27.0197 22.8639 27.0875 22.8543 25.732V24.4926L21.604 25.2381L20.3537 25.9837V27.2328C20.3537 28.5883 20.3537 28.5786 20.4205 28.811C20.4748 28.981 20.5553 29.1412 20.6591 29.2855C20.7666 29.4332 20.8953 29.5637 21.0409 29.6728C21.1268 29.7406 26.4048 32.9165 26.5289 32.9842C26.6529 33.052 26.7197 33.0908 27.2447 33.0908H27.7124L27.8937 32.9261Z" fill="white"/>
<defs>
<linearGradient id="paint0_linear" x1="62.2898" y1="67.4269" x2="2.86825" y2="0.617929" gradientUnits="userSpaceOnUse">
<stop stop-color="#A762FF" stop-opacity="0.11"/>
<stop offset="0.41" stop-color="#5C19EB"/>
<stop offset="0.78" stop-color="#A586FF"/>
<stop offset="1" stop-color="#E2C5FF"/>
</linearGradient>
</defs>
</svg>
