<svg id="Layer_1" data-name="Layer 1" xmlns="http://www.w3.org/2000/svg" viewBox="0 0 276 236"><defs><style>.cls-1,.cls-2{fill:none;}.cls-1,.cls-2,.cls-5{stroke:#fff;}.cls-1{stroke-opacity:0.31;}.cls-2{stroke-opacity:0.56;}.cls-3,.cls-5{fill:#fff;}.cls-3{isolation:isolate;opacity:0.13;}.cls-4{fill:#aaced6;}.cls-5{stroke-miterlimit:10;stroke-width:0.5px;}</style></defs><line class="cls-1" x1="23.59" y1="124.56" x2="242" y2="0.56"/><line class="cls-1" x1="0.76" y1="208.56" x2="275.76" y2="55.56"/><line class="cls-1" x1="88.11" y1="235.57" x2="275.75" y2="126.57"/><path class="cls-2" d="M87.86,37a7.44,7.44,0,1,1-7.44-7.5A7.46,7.46,0,0,1,87.86,37Z"/><ellipse class="cls-3" cx="196.58" cy="218" rx="7.94" ry="8"/><ellipse class="cls-3" cx="33.76" cy="33" rx="13.9" ry="14"/><path class="cls-2" d="M257.63,162.5a4,4,0,1,1-4-4A4,4,0,0,1,257.63,162.5Z"/><path class="cls-2" d="M14.4,156.5a3,3,0,1,1-3-3A3,3,0,0,1,14.4,156.5Z"/><path class="cls-4" d="M98,82l64.09,37v74L98,230,33.91,193V119Z"/><path class="cls-5" d="M62,179.82c.84-.35,1.06-1,1.41-1.45q8.86-12.35,17.7-24.71c1.15-1.61,1.48-1.6,2.5.05.56.91,1.16,1.8,1.66,2.74s.86,1,1.46,0c2-3.44,4.18-6.82,6.2-10.27a2.67,2.67,0,0,1,2.65-1.5c5.38.07,10.75,0,16.13,0a2.25,2.25,0,0,0,1.73-.51c3.43-3.29,6.88-6.57,10.31-9.85a2.46,2.46,0,0,0,.3-.5,26.8,26.8,0,0,0-4.28,1c-.61.14-1.2.33-1.43-.42s.44-1,1-1.12c2.39-.68,4.78-1.35,7.19-2,1.27-.34,1.64.06,1.31,1.34q-.82,3.3-1.67,6.58a.5.5,0,0,1,0,.13c-.22.56-.3,1.36-1.19,1.08s-.54-.89-.4-1.46c.31-1.2.62-2.39,1-3.73a2.2,2.2,0,0,0-1.24.84c-3.23,3.06-6.47,6.1-9.65,9.2a3.28,3.28,0,0,1-2.48,1c-5.25,0-10.49,0-15.74-.05A2.41,2.41,0,0,0,94,147.66c-2.22,3.8-4.55,7.53-6.85,11.28-.85,1.39-1.31,1.39-2.15,0-.66-1-1.33-2.1-1.93-3.19-.52-.94-.87-.82-1.45,0q-7,9.84-14,19.63c-1.24,1.74-2.5,3.46-3.71,5.22-.26.37-.87.71-.59,1.21s.82.19,1.25.19h77.74c.49,0,.93.14,1,.7s-.38.87-.95.87c-1.55,0-3.11,0-4.66,0H62.5c-2.06,0-2.06,0-2.06-2.09q0-30.08,0-60.14c0-.69-.34-1.79.77-1.81s.78,1.1.78,1.77q0,28.27,0,56.54Z"/><path class="cls-5" d="M95.23,176.74c-3.64,0-7.29,0-10.93,0-2.17,0-3-1.46-2-3.39,1.49-2.78,3-5.53,4.51-8.31a3.14,3.14,0,0,1,3-1.79c1.2,0,2.4,0,3.6,0,.38,0,.83.1,1-.42.91-2.76,2.79-5,3.87-7.71,1.19-3,3.11-4.07,6.29-3.77a86.06,86.06,0,0,0,8.8,0,2.82,2.82,0,0,1,2.74,1.54c1.68,3.27,3.76,6.34,5.08,9.8.22.59.65.51,1.08.51,1.82,0,3.64,0,5.46,0a3.36,3.36,0,0,1,3.34,2c1.42,2.71,2.93,5.38,4.38,8.08,1.08,2,.25,3.46-2,3.46q-10.86,0-21.73,0c-2.29,0-3.15-1.41-2.09-3.41,1.32-2.47,2.65-4.93,4-7.38.46-.82.26-1.07-.64-1.06q-4.12,0-8.27,0c-.93,0-1.06.28-.61,1.09,1.33,2.36,2.61,4.75,3.9,7.13s.39,3.63-2.16,3.63Zm.09-1.58c3.51,0,7,0,10.52,0,1.12,0,1.34-.33.78-1.33-1.43-2.56-2.83-5.14-4.18-7.73a2.12,2.12,0,0,0-2.13-1.24q-5,.06-10,0A2.25,2.25,0,0,0,88,166.21c-1.3,2.53-2.7,5-4,7.5-.67,1.24-.55,1.45.85,1.45Zm27.2,0H133c1.37,0,1.5-.23.83-1.46-1.37-2.54-2.78-5.06-4.11-7.61a2,2,0,0,0-2-1.21c-3.42,0-6.83,0-10.25,0a2.09,2.09,0,0,0-2.12,1.25c-1.33,2.56-2.74,5.07-4.11,7.61-.66,1.24-.56,1.43.86,1.43Zm-14.68-11.91c3.55,0,7.11,0,10.66,0,1,0,1.26-.35.75-1.27q-2.19-4-4.32-7.95a1.84,1.84,0,0,0-1.82-1.07c-3.51,0-7,0-10.53,0a1.84,1.84,0,0,0-1.81,1.09c-1.4,2.62-2.83,5.22-4.24,7.85-.64,1.2-.55,1.35.79,1.36Z"/><path class="cls-5" d="M130.35,128.32c.55,0,.7.35.87.74a3.45,3.45,0,0,0,5.37,1,1.4,1.4,0,0,0-.54-2.37,8.6,8.6,0,0,0-2.47-.49,3.84,3.84,0,0,1-3-1.69,2.92,2.92,0,0,1,1.56-4.18c.59-.27,1.29-.35,1.37-1.22,0-.35.38-.49.7-.48a.63.63,0,0,1,.66.55c.06.75.64.86,1.17,1.08a3.19,3.19,0,0,1,2.07,2.26c.12.52.11,1-.45,1.24s-.86-.16-1.09-.66a2.74,2.74,0,0,0-4.09-1.1,1.22,1.22,0,0,0,.13,2.23,4.12,4.12,0,0,0,1.66.46,10.49,10.49,0,0,1,1.84.28,3.2,3.2,0,0,1,2.59,2.85,3.29,3.29,0,0,1-2.27,3.25c-.67.28-1.39.31-1.65,1.29-.19.68-1,.65-1.26-.07s-.71-.91-1.31-1.12a3.35,3.35,0,0,1-2.51-2.65C129.59,128.92,129.68,128.41,130.35,128.32Z"/><path class="cls-5" d="M92,173.48c-1.16,0-2.31,0-3.46,0-.56,0-1.15-.1-1.17-.8s.51-.86,1.1-.86h7.18c.59,0,1.11.18,1.09.86s-.59.8-1.15.8Z"/><path class="cls-5" d="M101,171.83c.48,0,1,0,1.46,0a.78.78,0,0,1,.8.88.76.76,0,0,1-.81.73c-.92,0-1.86,0-2.79,0-.47,0-.88-.25-.87-.8s.39-.78.88-.81.88,0,1.33,0Z"/><path class="cls-5" d="M119.44,173.48c-1.2,0-2.4,0-3.6,0-.58,0-1.1-.18-1.06-.89s.52-.77,1.06-.77H123c.59,0,1.1.2,1.07.89s-.55.76-1.07.76C121.84,173.49,120.64,173.48,119.44,173.48Z"/><path class="cls-5" d="M128.1,173.46c-.54-.15-1.82.46-1.86-.74,0-1.36,1.28-.79,2-.89a6.51,6.51,0,0,1,1.59,0,.8.8,0,0,1,.81.86.81.81,0,0,1-.81.74C129.36,173.5,128.83,173.46,128.1,173.46Z"/><path class="cls-5" d="M105.32,160.14H109c.52,0,1,.13,1.07.74s-.47.89-1.07.89h-7.31c-.54,0-1-.21-1-.82s.48-.8,1-.8C102.92,160.12,104.12,160.14,105.32,160.14Z"/><path class="cls-5" d="M114.4,161.77c-.44,0-.88,0-1.32,0s-.87-.23-.9-.78.34-.8.83-.82c.93,0,1.86,0,2.79,0,.48,0,.86.25.83.82s-.42.75-.9.77S114.84,161.77,114.4,161.77Z"/></svg>