<svg width="276" height="236" viewBox="0 0 276 236" fill="none" xmlns="http://www.w3.org/2000/svg">
<line y1="-0.5" x2="251.157" y2="-0.5" transform="matrix(0.869623 -0.493716 0.488316 0.872667 23.832 125)" stroke="white" stroke-opacity="0.31"/>
<line y1="-0.5" x2="314.697" y2="-0.5" transform="matrix(0.873857 -0.486182 0.480813 0.876823 1 209)" stroke="white" stroke-opacity="0.31"/>
<line y1="-0.5" x2="216.998" y2="-0.5" transform="matrix(0.864688 -0.502309 0.496876 0.867822 88.3633 236)" stroke="white" stroke-opacity="0.31"/>
<path d="M87.8649 37C87.8649 41.1456 84.5295 44.5 80.4227 44.5C76.3159 44.5 72.9805 41.1456 72.9805 37C72.9805 32.8544 76.3159 29.5 80.4227 29.5C84.5295 29.5 87.8649 32.8544 87.8649 37Z" stroke="white" stroke-opacity="0.56"/>
<ellipse opacity="0.13" cx="196.579" cy="218" rx="7.94224" ry="8" fill="white"/>
<ellipse opacity="0.13" cx="33.7622" cy="33" rx="13.8989" ry="14" fill="white"/>
<path d="M257.63 162.5C257.63 164.713 255.851 166.5 253.663 166.5C251.475 166.5 249.695 164.713 249.695 162.5C249.695 160.287 251.475 158.5 253.663 158.5C255.851 158.5 257.63 160.287 257.63 162.5Z" stroke="white" stroke-opacity="0.56"/>
<path d="M14.3987 156.5C14.3987 158.16 13.0634 159.5 11.4239 159.5C9.78446 159.5 8.44922 158.16 8.44922 156.5C8.44922 154.84 9.78446 153.5 11.4239 153.5C13.0634 153.5 14.3987 154.84 14.3987 156.5Z" stroke="white" stroke-opacity="0.56"/>
<path d="M98 82L162.086 119V193L98 230L33.9141 193V119L98 82Z" fill="#EE93F0"/>
<path d="M120.949 172.048L115.119 168.789L120.949 165.53C121.722 165.096 122.305 164.446 122.649 163.675C120.985 164.41 119.226 164.964 117.395 165.307L93.4124 178.723C91.5877 179.747 89.4123 179.747 87.5935 178.723L60.9778 163.837C60.3061 163.464 59.9079 162.777 59.9079 162C59.9079 161.223 60.3061 160.536 60.9778 160.163L67.8606 156.319L86.6723 166.843C87.8729 167.512 89.1864 167.849 90.5 167.849C91.8195 167.849 93.133 167.512 94.3337 166.843L101.329 162.928C100.664 162.578 100.022 162.205 99.3977 161.801L93.4124 165.151C91.5877 166.169 89.4123 166.169 87.5935 165.151L60.9778 150.259C60.3061 149.886 59.9079 149.199 59.9079 148.422C59.9079 147.651 60.3061 146.964 60.9778 146.59L87.5935 131.699C88.2355 131.343 88.919 131.109 89.6144 131.006C89.8819 130.319 90.185 129.651 90.5119 129C89.1924 128.994 87.8729 129.331 86.6723 130.006L60.0565 144.898C58.7727 145.615 58 146.934 58 148.422C58 149.916 58.7727 151.235 60.0565 151.952L65.8873 155.211L60.0565 158.47C58.7727 159.193 58 160.512 58 162C58 163.488 58.7667 164.807 60.0565 165.53L65.8813 168.789L60.0565 172.048C58.7727 172.771 58 174.09 58 175.578C58 177.066 58.7727 178.386 60.0565 179.108L70.3747 184.88C70.5174 184.958 70.6779 185 70.8324 185C71.1712 185 71.4981 184.819 71.6704 184.5C71.926 184.03 71.7596 183.446 71.296 183.187L60.9778 177.416C60.3121 177.042 59.9079 176.355 59.9079 175.578C59.9079 174.801 60.3121 174.114 60.9778 173.741L67.8606 169.892L86.6723 180.416C87.8729 181.09 89.1864 181.428 90.5 181.428C91.8195 181.428 93.133 181.09 94.3337 180.416L113.145 169.892L120.022 173.741C120.694 174.114 121.092 174.801 121.092 175.578C121.092 176.355 120.694 177.042 120.028 177.416L93.4124 192.301C91.5877 193.319 89.4123 193.319 87.5935 192.301L74.6363 185.054C74.1727 184.795 73.5962 184.964 73.3406 185.434C73.085 185.898 73.2515 186.488 73.7151 186.747L86.6723 193.994C87.8729 194.663 89.1864 195 90.5 195C91.8195 195 93.133 194.663 94.3337 193.994L120.949 179.108C122.233 178.386 123 177.066 123 175.578C123 174.09 122.233 172.771 120.949 172.048Z" fill="white"/>
<path d="M112.641 115C102.787 115 94.225 120.649 90.0285 128.881C89.6965 129.532 89.3885 130.202 89.1168 130.89C87.9334 133.811 87.2812 137.004 87.2812 140.347C87.2812 149.333 91.9788 157.239 99.0554 161.741C99.6894 162.145 100.341 162.52 101.018 162.87C104.502 164.674 108.451 165.694 112.641 165.694C114.247 165.694 115.817 165.543 117.339 165.253C119.198 164.909 120.985 164.354 122.676 163.618C131.685 159.731 138.001 150.763 138.001 140.347C138.001 126.37 126.625 115 112.641 115ZM123.002 161.47C122.368 161.789 121.722 162.073 121.058 162.326C118.443 163.334 115.606 163.884 112.641 163.884C109.193 163.884 105.915 163.135 102.962 161.801C102.249 161.476 101.555 161.119 100.885 160.727C93.8446 156.66 89.0927 149.043 89.0927 140.347C89.0927 136.992 89.7991 133.799 91.0731 130.914C91.3388 130.299 91.6347 129.701 91.9547 129.122C95.9458 121.795 103.723 116.811 112.641 116.811C125.623 116.811 136.189 127.372 136.189 140.347C136.189 149.611 130.803 157.637 123.002 161.47Z" fill="white"/>
<path d="M127.339 135.658C126.874 135.839 126.349 135.604 126.168 135.139C124.03 129.593 118.59 125.863 112.642 125.863C107.232 125.863 102.499 128.845 100.017 133.256C99.6909 133.817 99.4132 134.403 99.1777 135.006C98.5135 136.66 98.1512 138.464 98.1512 140.347C98.1512 140.848 97.7467 141.271 97.2455 141.271C96.7444 141.271 96.3398 140.878 96.3398 140.383V140.347C96.3398 138.144 96.7806 136.044 97.5776 134.125C97.8252 133.522 98.109 132.942 98.429 132.381C101.219 127.414 106.544 124.053 112.642 124.053C119.339 124.053 125.449 128.247 127.858 134.487C128.039 134.952 127.804 135.477 127.339 135.658Z" fill="white"/>
<path d="M128.943 140.28V140.335C128.943 147.902 123.775 154.269 116.783 156.11C115.78 156.37 114.736 156.545 113.667 156.605L113.021 156.249L112.321 156.635C111.204 156.617 110.105 156.478 109.036 156.231C103.819 155.036 99.369 151.288 97.4127 146.176C97.2316 145.706 97.4671 145.187 97.932 145.006C98.4029 144.831 98.9222 145.06 99.1034 145.525C101.114 150.775 106.077 154.408 111.644 154.794C111.976 154.819 112.309 154.831 112.641 154.831C114.005 154.831 115.334 154.644 116.583 154.281C122.664 152.561 127.132 146.967 127.132 140.347V140.28C127.132 139.779 127.536 139.375 128.038 139.375C128.539 139.375 128.943 139.779 128.943 140.28Z" fill="white"/>
<path d="M107.709 145.278C107.352 144.922 107.352 144.348 107.709 143.998L116.796 134.915C117.152 134.559 117.726 134.559 118.076 134.915C118.432 135.272 118.432 135.845 118.076 136.195L108.989 145.278C108.638 145.628 108.065 145.628 107.709 145.278Z" fill="white"/>
<path d="M111.736 135.519C112.57 135.519 113.246 134.844 113.246 134.011C113.246 133.177 112.57 132.502 111.736 132.502C110.902 132.502 110.227 133.177 110.227 134.011C110.227 134.844 110.902 135.519 111.736 135.519Z" fill="white"/>
<path d="M113.545 147.59C114.378 147.59 115.054 146.914 115.054 146.081C115.054 145.248 114.378 144.572 113.545 144.572C112.711 144.572 112.035 145.248 112.035 146.081C112.035 146.914 112.711 147.59 113.545 147.59Z" fill="white"/>
</svg>
