<svg id="Layer_1" data-name="Layer 1" xmlns="http://www.w3.org/2000/svg" viewBox="0 0 276 236"><defs><style>.cls-1,.cls-2{fill:none;stroke:#fff;}.cls-1{stroke-opacity:0.31;}.cls-2{stroke-opacity:0.56;}.cls-3,.cls-5{fill:#fff;}.cls-3{isolation:isolate;opacity:0.13;}.cls-4{fill:#ee93f0;}</style></defs><line class="cls-1" x1="23.59" y1="124.56" x2="242" y2="0.56"/><line class="cls-1" x1="0.76" y1="208.56" x2="275.76" y2="55.56"/><line class="cls-1" x1="88.11" y1="235.57" x2="275.75" y2="126.57"/><path class="cls-2" d="M87.86,37a7.44,7.44,0,1,1-7.44-7.5A7.46,7.46,0,0,1,87.86,37Z"/><ellipse class="cls-3" cx="196.58" cy="218" rx="7.94" ry="8"/><ellipse class="cls-3" cx="33.76" cy="33" rx="13.9" ry="14"/><path class="cls-2" d="M257.63,162.5a4,4,0,1,1-4-4A4,4,0,0,1,257.63,162.5Z"/><path class="cls-2" d="M14.4,156.5a3,3,0,1,1-3-3A3,3,0,0,1,14.4,156.5Z"/><path class="cls-4" d="M98,82l64.09,37v74L98,230,33.91,193V119Z"/><path class="cls-5" d="M110.78,136.78a1.44,1.44,0,0,1-1.12-.21c-2-2.23-7.22-3.74-12.89-3.74-5.16,0-9.67,1.2-12,3a5.61,5.61,0,0,0-.8.71,3.13,3.13,0,0,0-1,2.15c0,.2-.38.37-.86.37s-.86-.16-.86-.35v0a3.62,3.62,0,0,1,1.18-2.51,6.38,6.38,0,0,1,.81-.7c2.66-2,7.73-3.36,13.55-3.36,6.38,0,12.2,1.69,14.5,4.21C111.44,136.5,111.22,136.71,110.78,136.78Z"/><path class="cls-5" d="M112.31,138.64v0c0,3.05-4.93,5.61-11.6,6.36-.95.1-1.95.17-3,.19l-.61-.14-.67.16c-1.06,0-2.11-.07-3.13-.17-5-.48-9.22-2-11.08-4-.17-.19,0-.4.49-.47a1.44,1.44,0,0,1,1.12.21c1.92,2.11,6.65,3.58,12,3.73l1,0a32.19,32.19,0,0,0,3.75-.22c5.8-.7,10.06-2.95,10.06-5.62v0c0-.2.38-.36.86-.36S112.31,138.44,112.31,138.64Z"/><path class="cls-5" d="M92.06,140.66c-.34-.14-.34-.38,0-.52l8.67-3.66a1.82,1.82,0,0,1,1.22,0c.34.14.34.38,0,.52l-8.67,3.66A1.82,1.82,0,0,1,92.06,140.66Z"/><path class="cls-5" d="M95.9,136.72c.8,0,1.44-.27,1.44-.6s-.64-.61-1.44-.61-1.44.27-1.44.61S95.11,136.72,95.9,136.72Z"/><path class="cls-5" d="M97.63,141.59c.79,0,1.44-.27,1.44-.61s-.65-.61-1.44-.61-1.44.28-1.44.61S96.83,141.59,97.63,141.59Z"/><path class="cls-5" d="M132.79,139.18q-10.92,5.59-21.85,11.18c-4.28,2.19-8.56,4.35-12.83,6.56A2.06,2.06,0,0,1,96,157c-11.24-5.76-22.5-11.48-33.73-17.25a1.79,1.79,0,0,1-.9-1.21c0-.35.48-.89.88-1.1Q79.09,128.76,96,120.21a2.5,2.5,0,0,1,2,0c5.71,2.83,11.38,5.75,17.07,8.64.74.38,1.4.89.89,1.78s-1.19.53-1.89.16c-5.35-2.74-10.7-5.48-16.08-8.16a2.23,2.23,0,0,0-1.75-.1q-15.45,7.8-30.85,15.7a5.55,5.55,0,0,0-.56.37l3.11,1.63q13.9,7.09,27.8,14.21a2.46,2.46,0,0,0,2.56,0q15.06-7.74,30.17-15.42l.8-.45-6.41-3.3q-2-1-4-2c-.66-.33-1.06-.83-.7-1.55s1-.76,1.65-.41l13,6.71Z"/><path class="cls-5" d="M132.79,156.89q-9.13,4.68-18.28,9.38c-5.46,2.79-10.94,5.54-16.39,8.36a2.21,2.21,0,0,1-2.25,0c-11.17-5.73-22.36-11.41-33.52-17.15a2,2,0,0,1-1-1.27c0-.37.56-.92,1-1.15,4.26-2.22,8.54-4.38,12.82-6.57.7-.36,1.36-.47,1.75.34s0,1.24-.7,1.56c-.15.07-.29.15-.43.23l-9.92,5.06c-.32.16-.63.34-1.1.61,2.49,1.28,4.83,2.49,7.19,3.69q12.08,6.17,24.16,12.3a2,2,0,0,0,1.53.11q15.57-7.86,31.07-15.81a4.12,4.12,0,0,0,.48-.35l-9.11-4.68-2.37-1.21c-.72-.35-1-1-.55-1.57a1.64,1.64,0,0,1,1.53-.31c4.72,2.36,9.4,4.8,14.09,7.22Z"/><path class="cls-5" d="M132.79,174.59,109.6,186.45q-6.12,3.15-12.2,6.33h-1c-1.54-.85-3.05-1.74-4.6-2.54q-8.65-4.44-17.35-8.85c-.14-.07-.28-.15-.43-.21-.72-.32-1.16-.86-.8-1.62s1.07-.69,1.76-.33l5.83,3c5.17,2.64,10.33,5.29,15.51,7.9a1.55,1.55,0,0,0,1.21,0q15.59-7.89,31.14-15.86a3.49,3.49,0,0,0,.49-.36l-8.26-4.23c-.93-.48-1.86-1-2.8-1.43-.66-.34-1.1-.91-.6-1.54a1.63,1.63,0,0,1,1.51-.38c4.61,2.3,9.17,4.68,13.75,7Z"/><path class="cls-5" d="M64.77,174l5.61,2.86c.36.19.83.32,1,.62a1.59,1.59,0,0,1,.2,1.3,1.29,1.29,0,0,1-1.17.45c-2.91-1.39-5.8-2.84-8.64-4.35-.88-.47-.72-1.45.28-2,2.35-1.24,4.72-2.43,7.09-3.64,1.87-1,3.74-1.9,5.6-2.86.68-.35,1.35-.49,1.76.31s-.07,1.27-.75,1.62q-5,2.52-9.91,5.06C65.53,173.54,65.23,173.73,64.77,174Z"/><path class="cls-5" d="M94.24,158.5a3.05,3.05,0,0,1-.79.77c-2.86,1.5-5.74,2.95-8.61,4.42-.66.34-1.39.37-1.62-.38a1.65,1.65,0,0,1,.55-1.46c2.91-1.57,5.87-3.06,8.83-4.53C93.5,156.87,94.23,157.31,94.24,158.5Z"/><path class="cls-5" d="M111,162.59c0,1.06-.74,1.57-1.53,1.18-3-1.49-6.07-3-9.05-4.63-.33-.18-.31-1-.46-1.53.5-.1,1.11-.44,1.48-.26,3,1.43,5.93,2.94,8.86,4.46C110.6,162,110.81,162.42,111,162.59Z"/></svg>