<svg id="Layer_1" data-name="Layer 1" xmlns="http://www.w3.org/2000/svg" xmlns:xlink="http://www.w3.org/1999/xlink" viewBox="0 0 54 54"><defs><style>.cls-1{fill:url(#linear-gradient);}</style><linearGradient id="linear-gradient" x1="1.65" y1="27" x2="52.15" y2="27" gradientUnits="userSpaceOnUse"><stop offset="0" stop-color="#f26736"/><stop offset="1" stop-color="#bd4988"/></linearGradient></defs><path class="cls-1" d="M17.91,32.37V43.84m1.18,0V32.37a1.18,1.18,0,0,0-2.36,0V43.84a1.18,1.18,0,1,0,2.36,0ZM14.39,38,18,33.54l4.15,4.3a1.18,1.18,0,1,0,1.7-1.64l-5.08-5.27a1.24,1.24,0,0,0-.9-.36A1.21,1.21,0,0,0,17,31l-4.44,5.54a1.18,1.18,0,0,0,.18,1.66,1.15,1.15,0,0,0,.74.26A1.18,1.18,0,0,0,14.39,38Zm20.16,6c0-1.9.81-2.43,2.66-2.63a29.21,29.21,0,0,0,7.8-2,6.62,6.62,0,0,0,4.48-7.28c-.12-1.12,0-2.27,0-3.83a21.55,21.55,0,0,1-11.94,4.39c-1.85.16-3-.29-3-2.47,1.82-.18,3.66-.32,5.5-.56a14.69,14.69,0,0,0,2.77-.66c5.85-2,7.59-5.12,6.47-11.73C40.51,22.71,31.8,22.82,23,17.16L22.85,20l-2.53-.5c0-3.09-.15-6.17,0-9.22.16-2.65,1.77-4.59,3.85-6.14C30.45-.52,41.81-.55,48.09,4a9,9,0,0,1,4.06,7.83c-.11,7-.13,13.93,0,20.89.08,4-1.79,6.67-5,8.67A21.3,21.3,0,0,1,34.55,44.08Zm2.27-25.35a16.59,16.59,0,0,0,10-3.13c3.57-2.7,3.54-6.46,0-9.19-5.34-4.17-15.75-4.2-21.15-.07C22,9.2,22,13,25.85,15.77,29,18,32.5,18.72,36.82,18.73ZM17.67,21.17a16.11,16.11,0,1,1-16,16.11A16,16,0,0,1,17.67,21.17Zm0,2.74a13.45,13.45,0,1,0,.13,26.89,13.45,13.45,0,1,0-.13-26.89Z"/></svg>