<svg id="Layer_1" data-name="Layer 1" xmlns="http://www.w3.org/2000/svg" viewBox="0 0 276 236"><defs><style>.cls-1,.cls-2{fill:none;}.cls-1,.cls-2,.cls-6{stroke:#fff;}.cls-1{stroke-opacity:0.31;}.cls-2{stroke-opacity:0.56;}.cls-3,.cls-5,.cls-6{fill:#fff;}.cls-3{isolation:isolate;opacity:0.13;}.cls-4{fill:#fdb999;}.cls-6{stroke-miterlimit:10;stroke-width:0.75px;}</style></defs><line class="cls-1" x1="23.59" y1="124.56" x2="242" y2="0.56"/><line class="cls-1" x1="0.76" y1="208.56" x2="275.76" y2="55.56"/><line class="cls-1" x1="88.11" y1="235.57" x2="275.75" y2="126.57"/><path class="cls-2" d="M87.86,37a7.44,7.44,0,1,1-7.44-7.5A7.46,7.46,0,0,1,87.86,37Z"/><ellipse class="cls-3" cx="196.58" cy="218" rx="7.94" ry="8"/><ellipse class="cls-3" cx="33.76" cy="33" rx="13.9" ry="14"/><path class="cls-2" d="M257.63,162.5a4,4,0,1,1-4-4A4,4,0,0,1,257.63,162.5Z"/><path class="cls-2" d="M14.4,156.5a3,3,0,1,1-3-3A3,3,0,0,1,14.4,156.5Z"/><path class="cls-4" d="M98,82l64.09,37v74L98,230,33.91,193V119Z"/><path class="cls-5" d="M106.27,151l-.56.32H106l.82,0Z"/><path class="cls-5" d="M106.27,151l-.56.31H106l.82,0Z"/><path class="cls-6" d="M82.6,182c0-2.54,0-5.08,0-7.62a2,2,0,0,0-.84-1.8,30.58,30.58,0,1,1,40.35-2.17.29.29,0,0,1-.11.11c-3.11,1.71-3.52,4.46-3.31,7.7.23,3.64,0,7.31.08,11a4,4,0,0,1-2.44,4,23.24,23.24,0,0,1-7.72,2.2,51,51,0,0,1-20.69-1,20.83,20.83,0,0,1-2.28-.85c-2.13-.88-3.32-2.29-3.1-4.81C82.75,186.49,82.6,184.25,82.6,182Zm27-34c2.48,0,5,0,7.45,0,.8,0,1.22-.19,1.18-1.11a48.15,48.15,0,0,0-2-12c-.24-.77-.57-.92-1.32-.67a45.63,45.63,0,0,1-12.54,2.11c-1,0-1.21.39-1.2,1.28,0,3,0,6.08,0,9.12,0,.94.34,1.25,1.25,1.23C104.78,148,107.17,148,109.55,148Zm-18,0c2.38,0,4.76,0,7.14,0,1.09,0,1.55-.25,1.52-1.43-.07-2.94-.06-5.88,0-8.82,0-1.06-.36-1.37-1.4-1.41a44.21,44.21,0,0,1-12.24-2.06c-.78-.25-1.18-.2-1.44.68a48.2,48.2,0,0,0-2,11.8c0,.94.31,1.25,1.23,1.23C86.78,148,89.16,148,91.54,148Zm9.84,19.28a44.51,44.51,0,0,0,8.82-.83,16,16,0,0,0,6.26-2.2c1.56-1.07,1.56-2.1,0-3.2a10,10,0,0,0-3.17-1.44,49.7,49.7,0,0,0-22.3-.74,14.77,14.77,0,0,0-6.24,2.25c-1.41,1-1.4,2,0,3a10.45,10.45,0,0,0,3.44,1.58A45.24,45.24,0,0,0,101.38,167.32ZM83.82,179.05c-.26,5.3-.92,5.73,4.57,7.38,6.92,2.07,14,2,21.1.84a19.16,19.16,0,0,0,6.5-2c.75-.42,1.57-.89,1.62-1.86.09-1.49,0-3,0-4.37A46.55,46.55,0,0,1,83.82,179.05Zm.08-7c-.49,5.31-.76,5.62,4.13,7.41l.15,0a50,50,0,0,0,20.23,1,22.34,22.34,0,0,0,7.16-2c.94-.47,2-1,2.06-2.23s0-2.43,0-3.65c0-.75-.22-.9-.89-.49a12.75,12.75,0,0,1-3.94,1.59C103,175.93,93.33,176,83.9,172Zm-.21,13.76v2c0,3.68.4,4.21,4,5.4a31.57,31.57,0,0,0,7,1.43c6.57.62,13.09.53,19.43-1.57,3.25-1.08,3.6-1.66,3.6-5,0-.4,0-.81,0-1.21.07-.94-.17-1.22-1.08-.66a14.87,14.87,0,0,1-5.13,1.83C102.07,189.69,92.82,189.78,83.69,185.8Zm17-11.61c4.28-.14,8.74-.36,13-1.77,3.56-1.17,4-1.73,4-5.39,0-.36,0-.71,0-1.07.08-1-.38-1-1.06-.55a14.86,14.86,0,0,1-5,1.83c-9.21,1.71-18.34,2.07-27.15-1.92-.35-.16-.6-.29-.78.27-.93,2.94.14,5.33,3,6.47C91.14,173.8,95.81,174,100.67,174.19ZM76.67,148c1.43,0,2.85,0,4.27,0,.84,0,1.18-.26,1.2-1.12a45.76,45.76,0,0,1,2-12.29c.21-.7.15-1.09-.62-1.39a25.75,25.75,0,0,1-5.13-2.66c-.63-.42-1-.21-1.38.32a29.72,29.72,0,0,0-5.83,15.94c-.06,1,.35,1.23,1.24,1.2C73.83,148,75.25,148,76.67,148Zm48.06,0c1.42,0,2.84,0,4.25,0,.93,0,1.26-.3,1.2-1.24a29.82,29.82,0,0,0-5.82-15.89c-.38-.51-.73-.77-1.37-.34a28.18,28.18,0,0,1-5.26,2.72c-.57.24-.76.51-.56,1.15a46.84,46.84,0,0,1,2,12.55c0,.78.34,1.07,1.11,1.05C121.79,148,123.26,148,124.73,148ZM100.18,127.2c0-2.29,0-4.58,0-6.86,0-1.18-.46-1.38-1.49-1.14a13.44,13.44,0,0,0-4.46,1.89c-4,2.73-6.3,6.66-8.1,11-.35.82.06,1.08.73,1.29a47.8,47.8,0,0,0,12,2c1,0,1.35-.29,1.33-1.3C100.14,131.77,100.18,129.48,100.18,127.2Zm1-.1c0,2.24,0,4.47,0,6.7-.05,1.19.3,1.61,1.53,1.55a50.83,50.83,0,0,0,11.69-1.94c1.06-.3,1.08-.8.7-1.66a30.08,30.08,0,0,0-3.55-6.37c-2.24-2.93-4.93-5.24-8.65-6.12-1.21-.29-1.79-.15-1.73,1.29C101.24,122.73,101.17,124.92,101.17,127.1Zm-24.52,22c-1.42,0-2.84,0-4.26,0-.9,0-1.29.26-1.22,1.23a29.65,29.65,0,0,0,5.91,16c.2.27.4.69.83.46,1.47-.79,3-1.54,4.37-2.46.66-.43.16-1.35.37-2a4.18,4.18,0,0,1,.51-1.09,1.59,1.59,0,0,0,.22-1.43,46.21,46.21,0,0,1-1.24-9.64c0-.9-.42-1.12-1.22-1.1C79.5,149.12,78.07,149.09,76.65,149.09Zm53.55,1.28c.22-.94-.29-1.33-1.5-1.3-2.69.07-5.38.06-8.07,0-1,0-1.43.29-1.44,1.36a44.47,44.47,0,0,1-1.14,9c-.08.39-.27.86-.13,1.18.85,2.07,1,4.68,3.91,5.23a2.2,2.2,0,0,1,.9.55c.7.56,1.15.48,1.71-.29A30.42,30.42,0,0,0,130.2,150.37Zm-38.52-1.28h-7.3c-.63,0-1.22,0-1.2.92a45.16,45.16,0,0,0,1.16,9.19c.12.52.38.67.87.44,4.41-2.09,9.17-2.42,13.93-2.67.81,0,1-.39,1-1.13,0-1.78-.07-3.55,0-5.33.06-1.18-.44-1.46-1.52-1.44C96.35,149.13,94,149.09,91.68,149.09Zm18,0c-2.33,0-4.67.06-7,0-1.23,0-1.58.43-1.52,1.58a41,41,0,0,1,0,4.57c-.09,1.28.28,1.74,1.65,1.8,4.52.19,9,.6,13.2,2.56.81.38.93-.05,1.07-.68a49.4,49.4,0,0,0,1.12-8.58c0-.93-.29-1.26-1.22-1.24C114.54,149.12,112.11,149.09,109.67,149.09Zm-16.21-29a27.9,27.9,0,0,0-14.64,8.63c-.57.62,0,.89.41,1.15a33.2,33.2,0,0,0,4.59,2.37c.72.31,1.05.19,1.37-.55.62-1.44,1.29-2.86,2-4.24A25.27,25.27,0,0,1,93.46,120.1Zm14-.1a26.07,26.07,0,0,1,8.74,11.84c.25.63.57.7,1.16.46a45.64,45.64,0,0,0,4.48-2.24c1-.53,1-1,.25-1.81a30,30,0,0,0-10.36-7A14.3,14.3,0,0,0,107.5,120ZM82.6,169.05c0-1,0-1.73,0-2.49s-.32-1-1-.6c-.31.18-.64.32-1,.49-2.6,1.4-2.62,1.44-.43,3.4.68.62,1.32,1.92,2.19,1.54C83.11,171.09,82.4,169.72,82.6,169.05Zm36.16-.69c0,.94,0,1.64,0,2.35,0,.28-.12.66.24.79s.55-.19.77-.38c.74-.68,1.43-1.42,2.2-2.06,1.07-.88.94-1.5-.28-2-.91-.4-1.82-1.54-2.65-1.11S118.93,167.68,118.76,168.36Z"/><path class="cls-6" d="M102.38,159.81c-1.08.74-2,1.39-3.27,1a1.85,1.85,0,0,0-2,.52.39.39,0,0,0,0,.55,2,2,0,0,0,2,.41c1.5-.27,3-.59,4.48-.86a5,5,0,0,1,2.69.28c1.4.54,1.55,1.22.55,2.35-.18.21-.52.29-.48.69.1,1.14.06,1.21-1,.78a2.25,2.25,0,0,0-1.6.11,7.82,7.82,0,0,1-5.31,0c1.13-.8,2.06-1.38,3.35-1.07a2.43,2.43,0,0,0,2.4-.63.43.43,0,0,0-.09-.66,2.69,2.69,0,0,0-2.34-.25c-1.24.24-2.47.55-3.71.79a5.31,5.31,0,0,1-2.71-.15c-1.67-.56-1.86-1.23-.71-2.57.18-.22.59-.36.34-.73-.88-1.29.23-1.09.75-.85a3.31,3.31,0,0,0,2.34,0A6.21,6.21,0,0,1,102.38,159.81Z"/></svg>