<svg id="Layer_1" data-name="Layer 1" xmlns="http://www.w3.org/2000/svg" xmlns:xlink="http://www.w3.org/1999/xlink" viewBox="0 0 64 64"><defs><style>.cls-1{fill:url(#linear-gradient);}.cls-2{fill:url(#linear-gradient-2);}.cls-3{fill:url(#linear-gradient-3);}.cls-4{fill:url(#linear-gradient-4);}.cls-5{fill:url(#linear-gradient-5);}.cls-6{fill:url(#linear-gradient-6);}.cls-7{fill:url(#linear-gradient-7);}.cls-8{fill:url(#linear-gradient-8);}.cls-9{fill:url(#linear-gradient-9);}.cls-10{fill:url(#linear-gradient-10);}.cls-11{fill:url(#linear-gradient-11);}.cls-12{fill:url(#linear-gradient-12);}.cls-13{fill:url(#linear-gradient-13);}.cls-14{fill:url(#linear-gradient-14);}.cls-15{fill:url(#linear-gradient-15);}.cls-16{fill:url(#linear-gradient-16);}.cls-17{fill:url(#linear-gradient-17);}</style><linearGradient id="linear-gradient" x1="17.02" y1="36.42" x2="24.7" y2="36.42" gradientUnits="userSpaceOnUse"><stop offset="0" stop-color="#f26736"/><stop offset="1" stop-color="#bd4988"/></linearGradient><linearGradient id="linear-gradient-2" x1="16.38" y1="36.44" x2="25.2" y2="36.44" xlink:href="#linear-gradient"/><linearGradient id="linear-gradient-3" x1="1.04" y1="43.99" x2="62.96" y2="43.99" xlink:href="#linear-gradient"/><linearGradient id="linear-gradient-4" x1="1.04" y1="27.2" x2="62.96" y2="27.2" xlink:href="#linear-gradient"/><linearGradient id="linear-gradient-5" x1="1.04" y1="11.64" x2="62.96" y2="11.64" xlink:href="#linear-gradient"/><linearGradient id="linear-gradient-6" x1="1.04" y1="27.2" x2="62.96" y2="27.2" xlink:href="#linear-gradient"/><linearGradient id="linear-gradient-7" x1="1.04" y1="43.99" x2="62.96" y2="43.99" xlink:href="#linear-gradient"/><linearGradient id="linear-gradient-8" x1="1.04" y1="11.03" x2="62.96" y2="11.03" xlink:href="#linear-gradient"/><linearGradient id="linear-gradient-9" x1="1.04" y1="22.93" x2="62.96" y2="22.93" xlink:href="#linear-gradient"/><linearGradient id="linear-gradient-10" x1="1.04" y1="5.59" x2="62.96" y2="5.59" xlink:href="#linear-gradient"/><linearGradient id="linear-gradient-11" x1="1.04" y1="13.48" x2="62.96" y2="13.48" xlink:href="#linear-gradient"/><linearGradient id="linear-gradient-12" x1="1.04" y1="42.41" x2="62.96" y2="42.41" xlink:href="#linear-gradient"/><linearGradient id="linear-gradient-13" x1="1.04" y1="57.59" x2="62.96" y2="57.59" xlink:href="#linear-gradient"/><linearGradient id="linear-gradient-14" x1="1.04" y1="22.96" x2="62.96" y2="22.96" xlink:href="#linear-gradient"/><linearGradient id="linear-gradient-15" x1="1.04" y1="11.64" x2="62.96" y2="11.64" xlink:href="#linear-gradient"/><linearGradient id="linear-gradient-16" x1="1.04" y1="30.83" x2="62.96" y2="30.83" xlink:href="#linear-gradient"/><linearGradient id="linear-gradient-17" x1="1.04" y1="15.19" x2="62.96" y2="15.19" xlink:href="#linear-gradient"/></defs><path class="cls-1" d="M20.41,29.79V27.85h1l.09,1.85,2.77.72-.41,1c-1.05-.15-2-.36-2.93-.4a1.95,1.95,0,0,0-1,3.72c.87.48,1.82.83,2.69,1.31,2.38,1.31,2.79,4.17.86,5.8a2.32,2.32,0,0,1-.93.56c-1.1.18-1.37.84-1.22,1.82a3.24,3.24,0,0,1,0,.67l-.94.07-.1-1.94L17,42.19l.34-1a32.5,32.5,0,0,0,3.62.45,2.16,2.16,0,0,0,1-4c-1.14-.68-2.42-1.14-3.5-1.88a3,3,0,0,1,0-5A12.54,12.54,0,0,1,20.41,29.79Z"/><path class="cls-2" d="M19.89,45.53l-.11-2.09-3.4-.9L17,40.61l.41,0,1.17.18a17,17,0,0,0,2.38.27A1.66,1.66,0,0,0,21.75,38c-.47-.28-1-.52-1.47-.76a16,16,0,0,1-2.06-1.14,3.48,3.48,0,0,1-1.55-2.87,3.57,3.57,0,0,1,1.59-2.95,7.17,7.17,0,0,1,1.3-.65l.35-.15V27.35h2l.1,2,3,.77L24.18,32l-.39,0-1-.16a15.1,15.1,0,0,0-1.91-.24,1.48,1.48,0,0,0-1.61,1.08,1.46,1.46,0,0,0,.87,1.7c.42.23.86.43,1.3.63s.94.43,1.39.68A4.37,4.37,0,0,1,25.18,39a3.76,3.76,0,0,1-1.38,3.29,2.63,2.63,0,0,1-1.17.67c-.72.12-.93.44-.8,1.25a2,2,0,0,1,0,.55,1.64,1.64,0,0,0,0,.23l0,.44Zm.92-1.41,0,.33h0a.47.47,0,0,0,0-.12Zm-3.15-2.28,3.08.83.06,1.12a1.77,1.77,0,0,1,1.66-1.85,2,2,0,0,0,.69-.45,2.77,2.77,0,0,0,1-2.43,3.34,3.34,0,0,0-1.81-2.56c-.43-.23-.88-.44-1.33-.64s-.92-.42-1.36-.66A2.45,2.45,0,0,1,21,30.54a17.85,17.85,0,0,1,2,.25l.56.1.05-.13L21,30.09l-.11-1.74v1.76l-.29.13-.67.3a5.84,5.84,0,0,0-1.12.56,2.56,2.56,0,0,0-1.16,2.12,2.47,2.47,0,0,0,1.11,2,15.63,15.63,0,0,0,1.94,1.07c.51.25,1,.5,1.54.8a2.66,2.66,0,0,1-1.24,5H21a16.88,16.88,0,0,1-2.53-.28l-.73-.12Z"/><path class="cls-3" d="M39.82,44.06c0,.6.38.83.92.86.74,0,1-.36,1-1s-.32-.83-.89-.82S39.77,43.33,39.82,44.06Z"/><path class="cls-4" d="M41.7,27.34c0-.58,0-1.12-.86-1.08-.63-.05-1,.2-1,.91s.32,1,1,1S41.7,27.94,41.7,27.34Z"/><path class="cls-5" d="M37.15,10.71c-.88,0-1.76,0-2.64,0s-1.93,0-2.89,0c-.63,0-1.08.13-1.07.92s.44,1,1.08,1h5.53c.71,0,1-.41,1-1.08S37.67,10.72,37.15,10.71Z"/><path class="cls-6" d="M31.59,28.15h5.55a.86.86,0,0,0,1-1c0-.6-.37-.84-.93-.85H31.64c-.63,0-1.07.15-1.08.92S30.93,28.15,31.59,28.15Z"/><path class="cls-7" d="M31.48,44.92c1.92,0,3.84,0,5.77,0a.84.84,0,0,0,.89-.91c0-.75-.43-1-1.07-1H34.42c-1,0-1.92,0-2.88,0-.51,0-1,.1-1,.76S30.75,44.92,31.48,44.92Z"/><path class="cls-8" d="M52.15,9.71c0-.63.08-1.33-.89-1.38-1.18-.06-.94.8-1,1.48,0,.4,0,.8,0,1.2s0,.81,0,1.21c0,.67-.21,1.57,1,1.51s.88-.94.91-1.62S52.17,10.51,52.15,9.71Z"/><path class="cls-9" d="M57.58,12.84c-1.47.1-2-.36-1.9-1.88.12-2.49-.06-5,.07-7.49C55.84,1.7,55.48,1,53.45,1c-11,.11-21.92.05-32.88.05l-1.45,0c-.46,0-.76.21-.77.71s0,1,.67,1.09A15.44,15.44,0,0,0,21,3C31.1,3,41.25,3,51.4,2.9c2.09,0,2.49.62,2.47,2.57-.08,12.4,0,24.81,0,37.22,0,.81-.62,2.24,1,2.16,1.41-.07.79-1.37.79-2.11,0-8.62,0-17.24,0-25.86,0-.7-.37-1.77.33-2a7.6,7.6,0,0,1,4.28,0c1.14.29.72,1.47.72,2.29,0,1.49-.37,3.14,1.9,3.31V14.62C61.68,12.5,59.57,12.72,57.58,12.84Z"/><path class="cls-10" d="M51,4.62c-.79.06-.82.62-.8,1.21s.48.75,1,.74c.71,0,1-.39,1-1.08S51.67,4.56,51,4.62Z"/><path class="cls-11" d="M20.8,6.47H17.66c-3,0-3.92.9-4,3.84,0,1.86,0,3.71,0,5.56,0,3.78,1.31,4.92,5,4.5.75-.08,1.22-.21,1.19-1.09s-.65-.87-1.18-.78c-3.17.59-3.4-1.29-3.17-3.66.08-.79,0-1.61,0-2.41,0-4.63-.54-4.06,4.16-4.08,6.35,0,6.3,0,6.38,6.29,0,2.37.16,4.52-3.27,3.86-.61-.12-1.1.09-1.07.89s.44.87,1.08,1c3.46.56,5-.7,5-4.22,0-.89,0-1.78,0-2.66C27.9,6.47,27.9,6.47,20.8,6.47Z"/><path class="cls-12" d="M61.05,23.76c.08,6.85,0,13.7.09,20.54,0,2-.62,2.38-2.45,2.35-7.65-.09-15.3,0-23,0H34c-.64,0-1.07.17-1.1.93s.41.94,1.05.93h1.69c7.9,0,15.79,0,23.69,0,.61,0,1.59-.46,1.68.73.05.61.26,1.43-.5,1.71a6.27,6.27,0,0,1-2.13.26H5c-1.09,0-2.11,0-2.09-1.59,0-1.73,1.28-1.11,2.07-1.12,6.13,0,12.25,0,18.37,0,2.18,0,4.36,0,6.53,0,.55,0,1.19.08,1.18-.78,0-.41,0-.89-.47-1a7.86,7.86,0,0,0-1.68-.09c-7.5,0-15-.07-22.48,0-2.34,0-4.22,0-3.53-3.17.14-.63,0-1.29-.92-1.33s-.93.65-.93,1.29c0,1.86,0,3.71,0,5.56,0,3.25.72,4,4,4,6.2,0,12.41,0,18.61,0,.75,0,1.9-.43,2.14.49A4.66,4.66,0,0,1,25.16,56c-.41,1-1.39.65-2.12.62-6.73-.22-6.55.51-6.51,6.35h8.22c.27-1.48-.33-2-1.84-1.88a23.2,23.2,0,0,1-2.89,0c-.82,0-1.61.12-1.6-1.16s.68-1.47,1.69-1.46c2.66,0,5.32,0,8,0,.76,0,2,.53,2-.94s-1.13-.72-1.8-.87c-.51-.11-1.37.08-1.05-.8S27.36,53.17,29,53a40.46,40.46,0,0,1,6,0c1.35.09,2.22,2.69,1.22,3.59-.42.37-.67.64-.57,1.15.14.74.74.72,1.31.72,2.26,0,4.51,0,6.77,0,1.07,0,1.89.13,1.85,1.54s-1.14,1.07-1.9,1.08c-5.07,0-10.14.06-15.21,0-1.45,0-2.18.31-1.78,1.88H47.48c.05-6,0-6.65-6.48-6.27-2.42.14-2.57-1.46-2.86-3s1-.74,1.5-.74C46.07,53,52.5,53,58.93,53a4.62,4.62,0,0,0,4-1.63V21.88C61.5,21.68,61,22.25,61.05,23.76Z"/><path class="cls-13" d="M33.88,57.63c0-.7-.29-1-1-1s-.93.11-.93.75,0,1.12.81,1.12S33.85,58.34,33.88,57.63Z"/><path class="cls-14" d="M2,40.28c.57,0,.89-.27.9-.86s0-1.13,0-1.69c0-6.85.13-13.69-.07-20.53C2.79,14.53,4.18,14.74,6,14.62c2-.14,2.41.58,2.35,2.42-.13,4.18,0,8.38,0,12.56v7.25c0,2.09,0,4.19,0,6.28,0,.7-.42,1.81.95,1.75s.82-1.13.9-1.85a9.59,9.59,0,0,0,0-1.2q0-16.68,0-33.34c0-1.75-.7-3.88.33-5.15s3-.25,4.61-.39c.64-.05,1.32,0,1.36-.92,0-1.22-.86-.94-1.51-.95-1.69,0-3.39.06-5.07,0C8.66,1,8.23,1.38,8.27,2.67c.09,2.65-.11,5.32.07,8,.13,1.9-.58,2.42-2.31,2.2a9.26,9.26,0,0,0-2.41,0c-1.22.14-2.4.81-2.42,2-.13,8.21-.11,16.42-.14,24.63C1.06,40.15,1.45,40.31,2,40.28Z"/><path class="cls-15" d="M41.7,11.42c0-.68-.49-.73-1-.71s-.89.26-.88.87.35,1,1,1S41.71,12,41.7,11.42Z"/><path class="cls-16" d="M44.42,30.76c0-1-.86-.78-1.45-.78-3.69,0-7.37,0-11.06,0-.63,0-1.37-.09-1.31.92s.85.77,1.43.78c1.85,0,3.69,0,5.53,0s3.53,0,5.29,0C43.5,31.66,44.46,31.93,44.42,30.76Z"/><path class="cls-17" d="M30.56,15.35c0,.86.66.77,1.2.77H43.29c.56,0,1.16,0,1.19-.81s-.49-1.07-1.23-1.07H31.73C31,14.24,30.52,14.5,30.56,15.35Z"/></svg>