<svg width="1586" height="631" viewBox="0 0 1586 631" fill="none" xmlns="http://www.w3.org/2000/svg">
<path d="M1584.95 524.19C1545.21 558.28 1465.3 294.583 1152.06 196.241C838.817 97.8991 544.998 617.613 24.1341 535.742" stroke="url(#paint0_linear)" stroke-opacity="0.3" stroke-width="0.2264" stroke-miterlimit="10" stroke-linecap="round" stroke-linejoin="round"/>
<path d="M1583.4 512.68C1541.84 549.815 1460.11 304.728 1143.99 202.827C827.863 100.927 542.408 610.298 23.6005 524.371" stroke="url(#paint1_linear)" stroke-opacity="0.3" stroke-width="0.227" stroke-miterlimit="10" stroke-linecap="round" stroke-linejoin="round"/>
<path d="M1580.96 500.124C1537.78 540.324 1454.27 313.818 1135.41 208.385C816.547 102.952 539.562 601.884 23.2131 511.953" stroke="url(#paint2_linear)" stroke-opacity="0.3" stroke-width="0.2276" stroke-miterlimit="10" stroke-linecap="round" stroke-linejoin="round"/>
<path d="M1579.41 488.675C1534.42 531.812 1449.07 324.028 1127.32 215.058C805.577 106.088 536.987 594.448 22.6951 500.464" stroke="url(#paint3_linear)" stroke-opacity="0.3" stroke-width="0.2283" stroke-miterlimit="10" stroke-linecap="round" stroke-linejoin="round"/>
<path d="M1576.82 477.091C1530.22 523.366 1442.94 334.154 1118.53 221.693C794.119 109.231 533.9 586.88 22.1796 488.916" stroke="url(#paint4_linear)" stroke-opacity="0.3" stroke-width="0.2289" stroke-miterlimit="10" stroke-linecap="round" stroke-linejoin="round"/>
<path d="M1575.28 465.542C1526.87 514.818 1437.73 344.421 1110.43 228.464C783.136 112.507 531.35 579.298 21.6828 477.303" stroke="url(#paint5_linear)" stroke-opacity="0.3" stroke-width="0.2296" stroke-miterlimit="10" stroke-linecap="round" stroke-linejoin="round"/>
<path d="M1572.79 453.413C1522.74 505.842 1431.68 353.818 1101.83 234.236C771.994 114.654 528.4 571.681 21.1974 465.616" stroke="url(#paint6_linear)" stroke-opacity="0.3" stroke-width="0.2302" stroke-miterlimit="10" stroke-linecap="round" stroke-linejoin="round"/>
<path d="M1571.23 441.968C1519.35 497.347 1426.34 364.227 1093.39 241.087C760.434 117.946 525.182 563.924 19.7 453.722" stroke="url(#paint7_linear)" stroke-opacity="0.3" stroke-width="0.2308" stroke-miterlimit="10" stroke-linecap="round" stroke-linejoin="round"/>
<path d="M1569.69 430.444C1516.01 488.743 1421.32 374.459 1085.27 247.995C749.227 121.532 522.668 556.061 19.2327 441.891" stroke="url(#paint8_linear)" stroke-opacity="0.3" stroke-width="0.2315" stroke-miterlimit="10" stroke-linecap="round" stroke-linejoin="round"/>
<path d="M1567.19 418.303C1511.88 479.699 1415.26 383.955 1076.7 253.949C738.143 123.943 519.69 548.169 18.7707 429.975" stroke="url(#paint9_linear)" stroke-opacity="0.3" stroke-width="0.2321" stroke-miterlimit="10" stroke-linecap="round" stroke-linejoin="round"/>
<path d="M1565.66 406.612C1508.51 471.279 1410.06 394.034 1068.63 260.089C727.196 126.145 516.913 541.375 18.1918 418.947" stroke="url(#paint10_linear)" stroke-opacity="0.3" stroke-width="0.2327" stroke-miterlimit="10" stroke-linecap="round" stroke-linejoin="round"/>
<path d="M1563.08 395.073C1504.35 462.55 1403.94 404.139 1059.8 267.091C715.67 130.043 514.103 533.109 17.751 406.873" stroke="url(#paint11_linear)" stroke-opacity="0.3" stroke-width="0.2334" stroke-miterlimit="10" stroke-linecap="round" stroke-linejoin="round"/>
<path d="M1561.59 383.149C1501.05 453.576 1398.78 413.913 1051.89 273.35C705.001 132.787 511.691 524.92 17.3304 394.694" stroke="url(#paint12_linear)" stroke-opacity="0.3" stroke-width="0.234" stroke-miterlimit="10" stroke-linecap="round" stroke-linejoin="round"/>
<path d="M1559.05 371.302C1496.71 444.905 1392.66 423.848 1043.11 279.6C693.566 135.352 508.633 517.649 16.7854 383.401" stroke="url(#paint13_linear)" stroke-opacity="0.3" stroke-width="0.2347" stroke-miterlimit="10" stroke-linecap="round" stroke-linejoin="round"/>
<path d="M1557.53 359.613C1493.47 436.516 1387.36 434.003 1034.71 285.997C682.052 137.99 505.168 510.384 15.2465 371.825" stroke="url(#paint14_linear)" stroke-opacity="0.3" stroke-width="0.2353" stroke-miterlimit="10" stroke-linecap="round" stroke-linejoin="round"/>
<path d="M1556.01 347.846C1490.13 427.864 1382.34 444.179 1026.64 292.515C670.933 140.85 502.589 502.978 14.7363 360.287" stroke="url(#paint15_linear)" stroke-opacity="0.3" stroke-width="0.2359" stroke-miterlimit="10" stroke-linecap="round" stroke-linejoin="round"/>
<path d="M1553.48 336.046C1485.86 418.727 1376.31 453.549 1018.04 298.842C659.763 144.135 499.935 494.065 14.3734 347.696" stroke="url(#paint16_linear)" stroke-opacity="0.3" stroke-width="0.2366" stroke-miterlimit="10" stroke-linecap="round" stroke-linejoin="round"/>
<path d="M1551.9 324.748C1482.66 410.293 1371.11 463.586 1009.88 305.559C648.642 147.532 497.304 486.174 13.8926 335.944" stroke="url(#paint17_linear)" stroke-opacity="0.3" stroke-width="0.2372" stroke-miterlimit="10" stroke-linecap="round" stroke-linejoin="round"/>
<path d="M1549.43 312.33C1478.34 401.476 1364.95 473.972 1001.18 311.773C637.397 149.574 494.255 479.698 13.3082 324.924" stroke="url(#paint18_linear)" stroke-opacity="0.3" stroke-width="0.2379" stroke-miterlimit="10" stroke-linecap="round" stroke-linejoin="round"/>
<path d="M1547.86 301.034C1475.16 392.912 1359.79 483.745 993.202 318.402C626.612 153.059 491.678 471.41 12.8638 312.901" stroke="url(#paint19_linear)" stroke-opacity="0.3" stroke-width="0.2385" stroke-miterlimit="10" stroke-linecap="round" stroke-linejoin="round"/>
<path d="M1545.26 289.608C1470.74 384.56 1353.54 494.091 984.062 325.159C614.589 156.228 488.047 464.12 11.2979 301.514" stroke="url(#paint20_linear)" stroke-opacity="0.3" stroke-width="0.2391" stroke-miterlimit="10" stroke-linecap="round" stroke-linejoin="round"/>
<path d="M1543.82 277.318C1467.48 375.265 1348.6 503.517 976.025 330.967C603.452 158.418 485.488 455.716 10.91 289.106" stroke="url(#paint21_linear)" stroke-opacity="0.3" stroke-width="0.2398" stroke-miterlimit="10" stroke-linecap="round" stroke-linejoin="round"/>
<path d="M1542.25 266.022C1464.29 366.844 1343.43 513.462 967.926 337.675C592.42 161.888 482.95 448.008 10.4076 277.522" stroke="url(#paint22_linear)" stroke-opacity="0.3" stroke-width="0.2404" stroke-miterlimit="10" stroke-linecap="round" stroke-linejoin="round"/>
<path d="M1539.78 253.602C1460.02 357.687 1337.34 523.301 959.367 343.765C581.397 164.229 480.114 440.43 9.94767 265.604" stroke="url(#paint23_linear)" stroke-opacity="0.3" stroke-width="0.2411" stroke-miterlimit="10" stroke-linecap="round" stroke-linejoin="round"/>
<path d="M1538.2 242.305C1456.77 349.584 1332.04 534.169 951.212 350.84C570.385 167.511 477.289 433.505 9.37366 254.504" stroke="url(#paint24_linear)" stroke-opacity="0.3" stroke-width="0.2417" stroke-miterlimit="10" stroke-linecap="round" stroke-linejoin="round"/>
<path d="M1535.61 230.879C1452.43 340.983 1325.96 543.868 942.424 357.365C558.886 170.862 474.314 425.667 8.87396 242.882" stroke="url(#paint25_linear)" stroke-opacity="0.3" stroke-width="0.2423" stroke-miterlimit="10" stroke-linecap="round" stroke-linejoin="round"/>
<path d="M1534.17 218.589C1449.17 331.675 1320.88 553.115 934.565 363.147C548.253 173.179 471.933 417.256 8.49071 230.46" stroke="url(#paint26_linear)" stroke-opacity="0.3" stroke-width="0.243" stroke-miterlimit="10" stroke-linecap="round" stroke-linejoin="round"/>
<path d="M1532.59 207.294C1445.92 323.312 1315.57 563.235 926.081 369.728C536.594 176.222 468.684 409.575 6.9599 218.802" stroke="url(#paint27_linear)" stroke-opacity="0.3" stroke-width="0.2436" stroke-miterlimit="10" stroke-linecap="round" stroke-linejoin="round"/>
<path d="M1530.02 195.87C1441.58 314.796 1309.63 573.112 917.3 376.261C524.966 179.411 465.503 401.949 6.44243 207.382" stroke="url(#paint28_linear)" stroke-opacity="0.3" stroke-width="0.2442" stroke-miterlimit="10" stroke-linecap="round" stroke-linejoin="round"/>
<path d="M1528.55 183.577C1438.43 305.772 1304.42 583.268 909.344 382.608C514.264 181.949 463.016 394.258 5.98582 195.357" stroke="url(#paint29_linear)" stroke-opacity="0.3" stroke-width="0.2449" stroke-miterlimit="10" stroke-linecap="round" stroke-linejoin="round"/>
<path d="M1525.96 172.151C1434.09 297.283 1298.38 592.899 900.661 388.955C502.94 185.011 460.166 386.428 5.49193 183.72" stroke="url(#paint30_linear)" stroke-opacity="0.3" stroke-width="0.2455" stroke-miterlimit="10" stroke-linecap="round" stroke-linejoin="round"/>
<path d="M1524.52 159.862C1430.97 288.232 1293.36 602.92 892.724 395.225C492.087 187.529 457.695 378.627 5.05371 171.662" stroke="url(#paint31_linear)" stroke-opacity="0.3" stroke-width="0.2462" stroke-miterlimit="10" stroke-linecap="round" stroke-linejoin="round"/>
<path d="M1521.92 148.435C1426.58 279.962 1286.97 613.676 883.864 402.36C480.762 191.045 454.602 371.675 4.4778 160.583" stroke="url(#paint32_linear)" stroke-opacity="0.3" stroke-width="0.2468" stroke-miterlimit="10" stroke-linecap="round" stroke-linejoin="round"/>
<path d="M1520.34 137.138C1423.22 271.455 1281.85 623.225 875.819 408.638C469.787 194.051 451.915 363.762 3.98931 148.896" stroke="url(#paint33_linear)" stroke-opacity="0.3" stroke-width="0.2474" stroke-miterlimit="10" stroke-linecap="round" stroke-linejoin="round"/>
<path d="M1518.9 124.849C1419.89 262.294 1276.58 633.063 867.385 414.692C458.191 196.32 448.721 355.646 2.55221 136.573" stroke="url(#paint34_linear)" stroke-opacity="0.3" stroke-width="0.2481" stroke-miterlimit="10" stroke-linecap="round" stroke-linejoin="round"/>
<path d="M1516.31 113.423C1415.7 254.026 1270.58 643.715 858.624 421.713C446.67 199.711 445.776 348.549 2.00257 125.358" stroke="url(#paint35_linear)" stroke-opacity="0.3" stroke-width="0.2487" stroke-miterlimit="10" stroke-linecap="round" stroke-linejoin="round"/>
<path d="M1514.86 101.134C1412.4 244.828 1265.41 653.344 850.624 427.839C435.84 202.333 443.213 340.498 1.57492 113.192" stroke="url(#paint36_linear)" stroke-opacity="0.3" stroke-width="0.2494" stroke-miterlimit="10" stroke-linecap="round" stroke-linejoin="round"/>
<path d="M1512.27 89.7084C1408.25 236.193 1259.41 662.609 841.99 433.899C424.567 205.19 440.38 332.521 1.08094 101.496" stroke="url(#paint37_linear)" stroke-opacity="0.3" stroke-width="0.25" stroke-miterlimit="10" stroke-linecap="round" stroke-linejoin="round"/>
<defs>
<linearGradient id="paint0_linear" x1="1445.11" y1="717.603" x2="303.739" y2="-844.394" gradientUnits="userSpaceOnUse">
<stop stop-color="#7060D7" stop-opacity="0.66"/>
<stop offset="0.403813" stop-color="#7F4E98" stop-opacity="0.6"/>
<stop offset="1" stop-color="#1D1338" stop-opacity="0.39"/>
</linearGradient>
<linearGradient id="paint1_linear" x1="1443.61" y1="706.316" x2="353.81" y2="-844.34" gradientUnits="userSpaceOnUse">
<stop stop-color="#7060D7" stop-opacity="0.66"/>
<stop offset="0.403813" stop-color="#7F4E98" stop-opacity="0.6"/>
<stop offset="1" stop-color="#1D1338" stop-opacity="0.39"/>
</linearGradient>
<linearGradient id="paint2_linear" x1="1441.3" y1="693.917" x2="404.236" y2="-842.275" gradientUnits="userSpaceOnUse">
<stop stop-color="#7060D7" stop-opacity="0.66"/>
<stop offset="0.403813" stop-color="#7F4E98" stop-opacity="0.6"/>
<stop offset="1" stop-color="#1D1338" stop-opacity="0.39"/>
</linearGradient>
<linearGradient id="paint3_linear" x1="1439.8" y1="682.627" x2="456.939" y2="-837.389" gradientUnits="userSpaceOnUse">
<stop stop-color="#7060D7" stop-opacity="0.66"/>
<stop offset="0.403813" stop-color="#7F4E98" stop-opacity="0.6"/>
<stop offset="1" stop-color="#1D1338" stop-opacity="0.39"/>
</linearGradient>
<linearGradient id="paint4_linear" x1="1437.34" y1="671.221" x2="509.659" y2="-829.164" gradientUnits="userSpaceOnUse">
<stop stop-color="#7060D7" stop-opacity="0.66"/>
<stop offset="0.403813" stop-color="#7F4E98" stop-opacity="0.6"/>
<stop offset="1" stop-color="#1D1338" stop-opacity="0.39"/>
</linearGradient>
<linearGradient id="paint5_linear" x1="1435.84" y1="659.933" x2="564.645" y2="-818.583" gradientUnits="userSpaceOnUse">
<stop stop-color="#7060D7" stop-opacity="0.66"/>
<stop offset="0.403813" stop-color="#7F4E98" stop-opacity="0.6"/>
<stop offset="1" stop-color="#1D1338" stop-opacity="0.39"/>
</linearGradient>
<linearGradient id="paint6_linear" x1="1433.4" y1="648.526" x2="616.144" y2="-805.75" gradientUnits="userSpaceOnUse">
<stop stop-color="#7060D7" stop-opacity="0.66"/>
<stop offset="0.403813" stop-color="#7F4E98" stop-opacity="0.6"/>
<stop offset="1" stop-color="#1D1338" stop-opacity="0.39"/>
</linearGradient>
<linearGradient id="paint7_linear" x1="1431.82" y1="637.229" x2="673.003" y2="-789.33" gradientUnits="userSpaceOnUse">
<stop stop-color="#7060D7" stop-opacity="0.66"/>
<stop offset="0.403813" stop-color="#7F4E98" stop-opacity="0.6"/>
<stop offset="1" stop-color="#1D1338" stop-opacity="0.39"/>
</linearGradient>
<linearGradient id="paint8_linear" x1="1430.32" y1="625.94" x2="730.251" y2="-768.63" gradientUnits="userSpaceOnUse">
<stop stop-color="#7060D7" stop-opacity="0.66"/>
<stop offset="0.403813" stop-color="#7F4E98" stop-opacity="0.6"/>
<stop offset="1" stop-color="#1D1338" stop-opacity="0.39"/>
</linearGradient>
<linearGradient id="paint9_linear" x1="1427.87" y1="614.533" x2="783.297" y2="-745.767" gradientUnits="userSpaceOnUse">
<stop stop-color="#7060D7" stop-opacity="0.66"/>
<stop offset="0.403813" stop-color="#7F4E98" stop-opacity="0.6"/>
<stop offset="1" stop-color="#1D1338" stop-opacity="0.39"/>
</linearGradient>
<linearGradient id="paint10_linear" x1="1426.24" y1="604.236" x2="834.203" y2="-720.934" gradientUnits="userSpaceOnUse">
<stop stop-color="#7060D7" stop-opacity="0.66"/>
<stop offset="0.403813" stop-color="#7F4E98" stop-opacity="0.6"/>
<stop offset="1" stop-color="#1D1338" stop-opacity="0.39"/>
</linearGradient>
<linearGradient id="paint11_linear" x1="1423.79" y1="592.829" x2="890.407" y2="-688.46" gradientUnits="userSpaceOnUse">
<stop stop-color="#7060D7" stop-opacity="0.66"/>
<stop offset="0.403813" stop-color="#7F4E98" stop-opacity="0.6"/>
<stop offset="1" stop-color="#1D1338" stop-opacity="0.39"/>
</linearGradient>
<linearGradient id="paint12_linear" x1="1422.29" y1="581.542" x2="944.039" y2="-654.586" gradientUnits="userSpaceOnUse">
<stop stop-color="#7060D7" stop-opacity="0.66"/>
<stop offset="0.403813" stop-color="#7F4E98" stop-opacity="0.6"/>
<stop offset="1" stop-color="#1D1338" stop-opacity="0.39"/>
</linearGradient>
<linearGradient id="paint13_linear" x1="1419.71" y1="571.123" x2="992.304" y2="-618.449" gradientUnits="userSpaceOnUse">
<stop stop-color="#7060D7" stop-opacity="0.66"/>
<stop offset="0.403813" stop-color="#7F4E98" stop-opacity="0.6"/>
<stop offset="1" stop-color="#1D1338" stop-opacity="0.39"/>
</linearGradient>
<linearGradient id="paint14_linear" x1="1418" y1="560.821" x2="1040.91" y2="-579.043" gradientUnits="userSpaceOnUse">
<stop stop-color="#7060D7" stop-opacity="0.66"/>
<stop offset="0.403813" stop-color="#7F4E98" stop-opacity="0.6"/>
<stop offset="1" stop-color="#1D1338" stop-opacity="0.39"/>
</linearGradient>
<linearGradient id="paint15_linear" x1="1416.36" y1="550.523" x2="1087.94" y2="-535.572" gradientUnits="userSpaceOnUse">
<stop stop-color="#7060D7" stop-opacity="0.66"/>
<stop offset="0.403813" stop-color="#7F4E98" stop-opacity="0.6"/>
<stop offset="1" stop-color="#1D1338" stop-opacity="0.39"/>
</linearGradient>
<linearGradient id="paint16_linear" x1="1413.92" y1="539.117" x2="1102.95" y2="-525.522" gradientUnits="userSpaceOnUse">
<stop stop-color="#7060D7" stop-opacity="0.66"/>
<stop offset="0.403813" stop-color="#7F4E98" stop-opacity="0.6"/>
<stop offset="1" stop-color="#1D1338" stop-opacity="0.39"/>
</linearGradient>
<linearGradient id="paint17_linear" x1="1412.28" y1="528.819" x2="1098.12" y2="-539.169" gradientUnits="userSpaceOnUse">
<stop stop-color="#7060D7" stop-opacity="0.66"/>
<stop offset="0.403813" stop-color="#7F4E98" stop-opacity="0.6"/>
<stop offset="1" stop-color="#1D1338" stop-opacity="0.39"/>
</linearGradient>
<linearGradient id="paint18_linear" x1="1409.56" y1="519.395" x2="1085.98" y2="-558.726" gradientUnits="userSpaceOnUse">
<stop stop-color="#7060D7" stop-opacity="0.66"/>
<stop offset="0.403813" stop-color="#7F4E98" stop-opacity="0.6"/>
<stop offset="1" stop-color="#1D1338" stop-opacity="0.39"/>
</linearGradient>
<linearGradient id="paint19_linear" x1="1407.92" y1="509.1" x2="1081.11" y2="-572.294" gradientUnits="userSpaceOnUse">
<stop stop-color="#7060D7" stop-opacity="0.66"/>
<stop offset="0.403813" stop-color="#7F4E98" stop-opacity="0.6"/>
<stop offset="1" stop-color="#1D1338" stop-opacity="0.39"/>
</linearGradient>
<linearGradient id="paint20_linear" x1="1405.14" y1="499.666" x2="1072.06" y2="-588.423" gradientUnits="userSpaceOnUse">
<stop stop-color="#7060D7" stop-opacity="0.66"/>
<stop offset="0.403813" stop-color="#7F4E98" stop-opacity="0.6"/>
<stop offset="1" stop-color="#1D1338" stop-opacity="0.39"/>
</linearGradient>
<linearGradient id="paint21_linear" x1="1403.5" y1="489.369" x2="1064.14" y2="-605.345" gradientUnits="userSpaceOnUse">
<stop stop-color="#7060D7" stop-opacity="0.66"/>
<stop offset="0.403813" stop-color="#7F4E98" stop-opacity="0.6"/>
<stop offset="1" stop-color="#1D1338" stop-opacity="0.39"/>
</linearGradient>
<linearGradient id="paint22_linear" x1="1401.73" y1="480.066" x2="1056.05" y2="-621.201" gradientUnits="userSpaceOnUse">
<stop stop-color="#7060D7" stop-opacity="0.66"/>
<stop offset="0.403813" stop-color="#7F4E98" stop-opacity="0.6"/>
<stop offset="1" stop-color="#1D1338" stop-opacity="0.39"/>
</linearGradient>
<linearGradient id="paint23_linear" x1="1399.02" y1="470.639" x2="1043.67" y2="-640.212" gradientUnits="userSpaceOnUse">
<stop stop-color="#7060D7" stop-opacity="0.66"/>
<stop offset="0.403813" stop-color="#7F4E98" stop-opacity="0.6"/>
<stop offset="1" stop-color="#1D1338" stop-opacity="0.39"/>
</linearGradient>
<linearGradient id="paint24_linear" x1="1397.11" y1="462.327" x2="1032.28" y2="-658.177" gradientUnits="userSpaceOnUse">
<stop stop-color="#7060D7" stop-opacity="0.66"/>
<stop offset="0.403813" stop-color="#7F4E98" stop-opacity="0.6"/>
<stop offset="1" stop-color="#1D1338" stop-opacity="0.39"/>
</linearGradient>
<linearGradient id="paint25_linear" x1="1393.59" y1="458.851" x2="1003.37" y2="-686.82" gradientUnits="userSpaceOnUse">
<stop stop-color="#7060D7" stop-opacity="0.66"/>
<stop offset="0.403813" stop-color="#7F4E98" stop-opacity="0.6"/>
<stop offset="1" stop-color="#1D1338" stop-opacity="0.39"/>
</linearGradient>
<linearGradient id="paint26_linear" x1="1389.81" y1="464.419" x2="942.188" y2="-735.105" gradientUnits="userSpaceOnUse">
<stop stop-color="#7060D7" stop-opacity="0.66"/>
<stop offset="0.403813" stop-color="#7F4E98" stop-opacity="0.6"/>
<stop offset="1" stop-color="#1D1338" stop-opacity="0.39"/>
</linearGradient>
<linearGradient id="paint27_linear" x1="1385.82" y1="470.972" x2="879.866" y2="-777.844" gradientUnits="userSpaceOnUse">
<stop stop-color="#7060D7" stop-opacity="0.66"/>
<stop offset="0.403813" stop-color="#7F4E98" stop-opacity="0.6"/>
<stop offset="1" stop-color="#1D1338" stop-opacity="0.39"/>
</linearGradient>
<linearGradient id="paint28_linear" x1="1380.96" y1="477.421" x2="815.372" y2="-815.078" gradientUnits="userSpaceOnUse">
<stop stop-color="#7060D7" stop-opacity="0.66"/>
<stop offset="0.403813" stop-color="#7F4E98" stop-opacity="0.6"/>
<stop offset="1" stop-color="#1D1338" stop-opacity="0.39"/>
</linearGradient>
<linearGradient id="paint29_linear" x1="1377.04" y1="483.971" x2="748.471" y2="-850.3" gradientUnits="userSpaceOnUse">
<stop stop-color="#7060D7" stop-opacity="0.66"/>
<stop offset="0.403813" stop-color="#7F4E98" stop-opacity="0.6"/>
<stop offset="1" stop-color="#1D1338" stop-opacity="0.39"/>
</linearGradient>
<linearGradient id="paint30_linear" x1="1372.19" y1="490.412" x2="683.685" y2="-878.264" gradientUnits="userSpaceOnUse">
<stop stop-color="#7060D7" stop-opacity="0.66"/>
<stop offset="0.403813" stop-color="#7F4E98" stop-opacity="0.6"/>
<stop offset="1" stop-color="#1D1338" stop-opacity="0.39"/>
</linearGradient>
<linearGradient id="paint31_linear" x1="1368.28" y1="496.972" x2="617.232" y2="-904.02" gradientUnits="userSpaceOnUse">
<stop stop-color="#7060D7" stop-opacity="0.66"/>
<stop offset="0.403813" stop-color="#7F4E98" stop-opacity="0.6"/>
<stop offset="1" stop-color="#1D1338" stop-opacity="0.39"/>
</linearGradient>
<linearGradient id="paint32_linear" x1="1363.28" y1="504.403" x2="550.162" y2="-923.931" gradientUnits="userSpaceOnUse">
<stop stop-color="#7060D7" stop-opacity="0.66"/>
<stop offset="0.403813" stop-color="#7F4E98" stop-opacity="0.6"/>
<stop offset="1" stop-color="#1D1338" stop-opacity="0.39"/>
</linearGradient>
<linearGradient id="paint33_linear" x1="1359.36" y1="510.964" x2="488.611" y2="-940.023" gradientUnits="userSpaceOnUse">
<stop stop-color="#7060D7" stop-opacity="0.66"/>
<stop offset="0.403813" stop-color="#7F4E98" stop-opacity="0.6"/>
<stop offset="1" stop-color="#1D1338" stop-opacity="0.39"/>
</linearGradient>
<linearGradient id="paint34_linear" x1="1355.38" y1="517.514" x2="425.216" y2="-954.464" gradientUnits="userSpaceOnUse">
<stop stop-color="#7060D7" stop-opacity="0.66"/>
<stop offset="0.403813" stop-color="#7F4E98" stop-opacity="0.6"/>
<stop offset="1" stop-color="#1D1338" stop-opacity="0.39"/>
</linearGradient>
<linearGradient id="paint35_linear" x1="1350.39" y1="524.948" x2="361.76" y2="-963.091" gradientUnits="userSpaceOnUse">
<stop stop-color="#7060D7" stop-opacity="0.66"/>
<stop offset="0.403813" stop-color="#7F4E98" stop-opacity="0.6"/>
<stop offset="1" stop-color="#1D1338" stop-opacity="0.39"/>
</linearGradient>
<linearGradient id="paint36_linear" x1="1346.47" y1="531.508" x2="301.146" y2="-970.112" gradientUnits="userSpaceOnUse">
<stop stop-color="#7060D7" stop-opacity="0.66"/>
<stop offset="0.403813" stop-color="#7F4E98" stop-opacity="0.6"/>
<stop offset="1" stop-color="#1D1338" stop-opacity="0.39"/>
</linearGradient>
<linearGradient id="paint37_linear" x1="1341.61" y1="537.949" x2="243.928" y2="-972.928" gradientUnits="userSpaceOnUse">
<stop stop-color="#7060D7" stop-opacity="0.66"/>
<stop offset="0.403813" stop-color="#7F4E98" stop-opacity="0.6"/>
<stop offset="1" stop-color="#1D1338" stop-opacity="0.39"/>
</linearGradient>
</defs>
</svg>
